%TF.GenerationSoftware,KiCad,Pcbnew,8.0.9*%
%TF.CreationDate,2025-04-23T02:47:11-04:00*%
%TF.ProjectId,digital-gate-driver,64696769-7461-46c2-9d67-6174652d6472,rev?*%
%TF.SameCoordinates,Original*%
%TF.FileFunction,Drillmap*%
%TF.FilePolarity,Positive*%
%FSLAX45Y45*%
G04 Gerber Fmt 4.5, Leading zero omitted, Abs format (unit mm)*
G04 Created by KiCad (PCBNEW 8.0.9) date 2025-04-23 02:47:11*
%MOMM*%
%LPD*%
G01*
G04 APERTURE LIST*
%ADD10C,0.100000*%
%ADD11C,0.200000*%
%ADD12C,0.102000*%
%ADD13C,0.112300*%
%ADD14C,0.129540*%
%ADD15C,0.157480*%
%ADD16C,0.190500*%
%ADD17C,0.241000*%
%ADD18C,0.250000*%
G04 APERTURE END LIST*
D10*
X17414000Y-7580000D02*
X17414000Y-7580000D01*
G75*
G02*
X17714000Y-7880000I0J-300000D01*
G01*
X17714000Y-10280000D01*
G75*
G02*
X17414000Y-10580000I-300000J0D01*
G01*
X13614000Y-10580000D01*
G75*
G02*
X13314000Y-10280000I0J300000D01*
G01*
X13314000Y-7880000D01*
G75*
G02*
X13614000Y-7580000I300000J0D01*
G01*
X17414000Y-7580000D01*
D11*
D10*
X14355000Y-8595000D02*
X14385000Y-8625000D01*
X14385000Y-8595000D02*
X14355000Y-8625000D01*
X14355000Y-9055000D02*
X14385000Y-9085000D01*
X14385000Y-9055000D02*
X14355000Y-9085000D01*
X14455000Y-8795000D02*
X14485000Y-8825000D01*
X14485000Y-8795000D02*
X14455000Y-8825000D01*
X14525000Y-8845000D02*
X14555000Y-8875000D01*
X14555000Y-8845000D02*
X14525000Y-8875000D01*
X14525000Y-9065000D02*
X14555000Y-9095000D01*
X14555000Y-9065000D02*
X14525000Y-9095000D01*
X14585000Y-8675000D02*
X14615000Y-8705000D01*
X14615000Y-8675000D02*
X14585000Y-8705000D01*
X14752827Y-8025000D02*
X14782827Y-8055000D01*
X14782827Y-8025000D02*
X14752827Y-8055000D01*
X14813000Y-9967500D02*
X14843000Y-9997500D01*
X14843000Y-9967500D02*
X14813000Y-9997500D01*
X14877827Y-7885000D02*
X14907827Y-7915000D01*
X14907827Y-7885000D02*
X14877827Y-7915000D01*
X14877827Y-8165000D02*
X14907827Y-8195000D01*
X14907827Y-8165000D02*
X14877827Y-8195000D01*
X14985000Y-8025000D02*
X15015000Y-8055000D01*
X15015000Y-8025000D02*
X14985000Y-8055000D01*
X14985000Y-8900050D02*
X15015000Y-8930050D01*
X15015000Y-8900050D02*
X14985000Y-8930050D01*
X15215380Y-9785000D02*
X15245380Y-9815000D01*
X15245380Y-9785000D02*
X15215380Y-9815000D01*
X15233000Y-9985000D02*
X15263000Y-10015000D01*
X15263000Y-9985000D02*
X15233000Y-10015000D01*
X15399100Y-9722587D02*
X15429100Y-9752587D01*
X15429100Y-9722587D02*
X15399100Y-9752587D01*
X15415000Y-9625000D02*
X15445000Y-9655000D01*
X15445000Y-9625000D02*
X15415000Y-9655000D01*
X15433000Y-10125000D02*
X15463000Y-10155000D01*
X15463000Y-10125000D02*
X15433000Y-10155000D01*
X15593000Y-10225000D02*
X15623000Y-10255000D01*
X15623000Y-10225000D02*
X15593000Y-10255000D01*
X15773000Y-9625000D02*
X15803000Y-9655000D01*
X15803000Y-9625000D02*
X15773000Y-9655000D01*
X15785000Y-10365000D02*
X15815000Y-10395000D01*
X15815000Y-10365000D02*
X15785000Y-10395000D01*
X15865000Y-10365000D02*
X15895000Y-10395000D01*
X15895000Y-10365000D02*
X15865000Y-10395000D01*
X15945000Y-10365000D02*
X15975000Y-10395000D01*
X15975000Y-10365000D02*
X15945000Y-10395000D01*
X15985000Y-10185000D02*
X16015000Y-10215000D01*
X16015000Y-10185000D02*
X15985000Y-10215000D01*
X16025000Y-10285000D02*
X16055000Y-10315000D01*
X16055000Y-10285000D02*
X16025000Y-10315000D01*
X16113000Y-10345000D02*
X16143000Y-10375000D01*
X16143000Y-10345000D02*
X16113000Y-10375000D01*
X16205000Y-9255000D02*
X16235000Y-9285000D01*
X16235000Y-9255000D02*
X16205000Y-9285000D01*
X16305000Y-10465000D02*
X16335000Y-10495000D01*
X16335000Y-10465000D02*
X16305000Y-10495000D01*
X16345000Y-9395000D02*
X16375000Y-9425000D01*
X16375000Y-9395000D02*
X16345000Y-9425000D01*
X16385000Y-10465000D02*
X16415000Y-10495000D01*
X16415000Y-10465000D02*
X16385000Y-10495000D01*
X16465000Y-10465000D02*
X16495000Y-10495000D01*
X16495000Y-10465000D02*
X16465000Y-10495000D01*
X13451500Y-7880000D02*
G75*
G02*
X13401500Y-7880000I-25000J0D01*
G01*
X13401500Y-7880000D02*
G75*
G02*
X13451500Y-7880000I25000J0D01*
G01*
X13451500Y-10280000D02*
G75*
G02*
X13401500Y-10280000I-25000J0D01*
G01*
X13401500Y-10280000D02*
G75*
G02*
X13451500Y-10280000I25000J0D01*
G01*
X13506417Y-7747417D02*
G75*
G02*
X13456417Y-7747417I-25000J0D01*
G01*
X13456417Y-7747417D02*
G75*
G02*
X13506417Y-7747417I25000J0D01*
G01*
X13506417Y-8012582D02*
G75*
G02*
X13456417Y-8012582I-25000J0D01*
G01*
X13456417Y-8012582D02*
G75*
G02*
X13506417Y-8012582I25000J0D01*
G01*
X13506418Y-10147417D02*
G75*
G02*
X13456418Y-10147417I-25000J0D01*
G01*
X13456418Y-10147417D02*
G75*
G02*
X13506418Y-10147417I25000J0D01*
G01*
X13506418Y-10412582D02*
G75*
G02*
X13456418Y-10412582I-25000J0D01*
G01*
X13456418Y-10412582D02*
G75*
G02*
X13506418Y-10412582I25000J0D01*
G01*
X13639000Y-7692500D02*
G75*
G02*
X13589000Y-7692500I-25000J0D01*
G01*
X13589000Y-7692500D02*
G75*
G02*
X13639000Y-7692500I25000J0D01*
G01*
X13639000Y-8067500D02*
G75*
G02*
X13589000Y-8067500I-25000J0D01*
G01*
X13589000Y-8067500D02*
G75*
G02*
X13639000Y-8067500I25000J0D01*
G01*
X13639000Y-10092500D02*
G75*
G02*
X13589000Y-10092500I-25000J0D01*
G01*
X13589000Y-10092500D02*
G75*
G02*
X13639000Y-10092500I25000J0D01*
G01*
X13639000Y-10467500D02*
G75*
G02*
X13589000Y-10467500I-25000J0D01*
G01*
X13589000Y-10467500D02*
G75*
G02*
X13639000Y-10467500I25000J0D01*
G01*
X13771582Y-7747417D02*
G75*
G02*
X13721582Y-7747417I-25000J0D01*
G01*
X13721582Y-7747417D02*
G75*
G02*
X13771582Y-7747417I25000J0D01*
G01*
X13771582Y-8012582D02*
G75*
G02*
X13721582Y-8012582I-25000J0D01*
G01*
X13721582Y-8012582D02*
G75*
G02*
X13771582Y-8012582I25000J0D01*
G01*
X13771583Y-10147417D02*
G75*
G02*
X13721583Y-10147417I-25000J0D01*
G01*
X13721583Y-10147417D02*
G75*
G02*
X13771583Y-10147417I25000J0D01*
G01*
X13771583Y-10412582D02*
G75*
G02*
X13721583Y-10412582I-25000J0D01*
G01*
X13721583Y-10412582D02*
G75*
G02*
X13771583Y-10412582I25000J0D01*
G01*
X13826500Y-7880000D02*
G75*
G02*
X13776500Y-7880000I-25000J0D01*
G01*
X13776500Y-7880000D02*
G75*
G02*
X13826500Y-7880000I25000J0D01*
G01*
X13826500Y-10280000D02*
G75*
G02*
X13776500Y-10280000I-25000J0D01*
G01*
X13776500Y-10280000D02*
G75*
G02*
X13826500Y-10280000I25000J0D01*
G01*
X15085000Y-9160000D02*
G75*
G02*
X15035000Y-9160000I-25000J0D01*
G01*
X15035000Y-9160000D02*
G75*
G02*
X15085000Y-9160000I25000J0D01*
G01*
X15775000Y-8130000D02*
G75*
G02*
X15725000Y-8130000I-25000J0D01*
G01*
X15725000Y-8130000D02*
G75*
G02*
X15775000Y-8130000I25000J0D01*
G01*
X15785000Y-8730000D02*
G75*
G02*
X15735000Y-8730000I-25000J0D01*
G01*
X15735000Y-8730000D02*
G75*
G02*
X15785000Y-8730000I25000J0D01*
G01*
X17251500Y-7880000D02*
G75*
G02*
X17201500Y-7880000I-25000J0D01*
G01*
X17201500Y-7880000D02*
G75*
G02*
X17251500Y-7880000I25000J0D01*
G01*
X17251500Y-10280000D02*
G75*
G02*
X17201500Y-10280000I-25000J0D01*
G01*
X17201500Y-10280000D02*
G75*
G02*
X17251500Y-10280000I25000J0D01*
G01*
X17306418Y-7747417D02*
G75*
G02*
X17256418Y-7747417I-25000J0D01*
G01*
X17256418Y-7747417D02*
G75*
G02*
X17306418Y-7747417I25000J0D01*
G01*
X17306418Y-8012582D02*
G75*
G02*
X17256418Y-8012582I-25000J0D01*
G01*
X17256418Y-8012582D02*
G75*
G02*
X17306418Y-8012582I25000J0D01*
G01*
X17306418Y-10147417D02*
G75*
G02*
X17256418Y-10147417I-25000J0D01*
G01*
X17256418Y-10147417D02*
G75*
G02*
X17306418Y-10147417I25000J0D01*
G01*
X17306418Y-10412582D02*
G75*
G02*
X17256418Y-10412582I-25000J0D01*
G01*
X17256418Y-10412582D02*
G75*
G02*
X17306418Y-10412582I25000J0D01*
G01*
X17439000Y-7692500D02*
G75*
G02*
X17389000Y-7692500I-25000J0D01*
G01*
X17389000Y-7692500D02*
G75*
G02*
X17439000Y-7692500I25000J0D01*
G01*
X17439000Y-8067500D02*
G75*
G02*
X17389000Y-8067500I-25000J0D01*
G01*
X17389000Y-8067500D02*
G75*
G02*
X17439000Y-8067500I25000J0D01*
G01*
X17439000Y-10092500D02*
G75*
G02*
X17389000Y-10092500I-25000J0D01*
G01*
X17389000Y-10092500D02*
G75*
G02*
X17439000Y-10092500I25000J0D01*
G01*
X17439000Y-10467500D02*
G75*
G02*
X17389000Y-10467500I-25000J0D01*
G01*
X17389000Y-10467500D02*
G75*
G02*
X17439000Y-10467500I25000J0D01*
G01*
X17571583Y-7747417D02*
G75*
G02*
X17521583Y-7747417I-25000J0D01*
G01*
X17521583Y-7747417D02*
G75*
G02*
X17571583Y-7747417I25000J0D01*
G01*
X17571583Y-8012582D02*
G75*
G02*
X17521583Y-8012582I-25000J0D01*
G01*
X17521583Y-8012582D02*
G75*
G02*
X17571583Y-8012582I25000J0D01*
G01*
X17571583Y-10147417D02*
G75*
G02*
X17521583Y-10147417I-25000J0D01*
G01*
X17521583Y-10147417D02*
G75*
G02*
X17571583Y-10147417I25000J0D01*
G01*
X17571583Y-10412582D02*
G75*
G02*
X17521583Y-10412582I-25000J0D01*
G01*
X17521583Y-10412582D02*
G75*
G02*
X17571583Y-10412582I25000J0D01*
G01*
X17626500Y-7880000D02*
G75*
G02*
X17576500Y-7880000I-25000J0D01*
G01*
X17576500Y-7880000D02*
G75*
G02*
X17626500Y-7880000I25000J0D01*
G01*
X17626500Y-10280000D02*
G75*
G02*
X17576500Y-10280000I-25000J0D01*
G01*
X17576500Y-10280000D02*
G75*
G02*
X17626500Y-10280000I25000J0D01*
G01*
X15340000Y-9123000D02*
X15340000Y-9197000D01*
X15303000Y-9160000D02*
X15377000Y-9160000D01*
X15594000Y-9123000D02*
X15594000Y-9197000D01*
X15557000Y-9160000D02*
X15631000Y-9160000D01*
X15848000Y-9123000D02*
X15848000Y-9197000D01*
X15811000Y-9160000D02*
X15885000Y-9160000D01*
X13489356Y-8480356D02*
X13489356Y-8409644D01*
X13418644Y-8409644D01*
X13418644Y-8480356D01*
X13489356Y-8480356D01*
X13489356Y-8734356D02*
X13489356Y-8663644D01*
X13418644Y-8663644D01*
X13418644Y-8734356D01*
X13489356Y-8734356D01*
X13489356Y-8988356D02*
X13489356Y-8917644D01*
X13418644Y-8917644D01*
X13418644Y-8988356D01*
X13489356Y-8988356D01*
X13489356Y-9242356D02*
X13489356Y-9171644D01*
X13418644Y-9171644D01*
X13418644Y-9242356D01*
X13489356Y-9242356D01*
X13489356Y-9496356D02*
X13489356Y-9425644D01*
X13418644Y-9425644D01*
X13418644Y-9496356D01*
X13489356Y-9496356D01*
X13489356Y-9750356D02*
X13489356Y-9679644D01*
X13418644Y-9679644D01*
X13418644Y-9750356D01*
X13489356Y-9750356D01*
D12*
X17400000Y-8681000D02*
X17451000Y-8630000D01*
X17400000Y-8579000D01*
X17349000Y-8630000D01*
X17400000Y-8681000D01*
X17400000Y-8981000D02*
X17451000Y-8930000D01*
X17400000Y-8879000D01*
X17349000Y-8930000D01*
X17400000Y-8981000D01*
X17400000Y-9281000D02*
X17451000Y-9230000D01*
X17400000Y-9179000D01*
X17349000Y-9230000D01*
X17400000Y-9281000D01*
X17400000Y-9581000D02*
X17451000Y-9530000D01*
X17400000Y-9479000D01*
X17349000Y-9530000D01*
X17400000Y-9581000D01*
D13*
X14133850Y-8273850D02*
X14246150Y-8386150D01*
X14246150Y-8273850D02*
X14133850Y-8386150D01*
X14246150Y-8330000D02*
G75*
G02*
X14133850Y-8330000I-56150J0D01*
G01*
X14133850Y-8330000D02*
G75*
G02*
X14246150Y-8330000I56150J0D01*
G01*
X14133850Y-10273850D02*
X14246150Y-10386150D01*
X14246150Y-10273850D02*
X14133850Y-10386150D01*
X14246150Y-10330000D02*
G75*
G02*
X14133850Y-10330000I-56150J0D01*
G01*
X14133850Y-10330000D02*
G75*
G02*
X14246150Y-10330000I56150J0D01*
G01*
X16357850Y-8273850D02*
X16470150Y-8386150D01*
X16470150Y-8273850D02*
X16357850Y-8386150D01*
X16470150Y-8330000D02*
G75*
G02*
X16357850Y-8330000I-56150J0D01*
G01*
X16357850Y-8330000D02*
G75*
G02*
X16470150Y-8330000I56150J0D01*
G01*
X16357850Y-10273850D02*
X16470150Y-10386150D01*
X16470150Y-10273850D02*
X16357850Y-10386150D01*
X16470150Y-10330000D02*
G75*
G02*
X16357850Y-10330000I-56150J0D01*
G01*
X16357850Y-10330000D02*
G75*
G02*
X16470150Y-10330000I56150J0D01*
G01*
D14*
X15377403Y-8010280D02*
X15506943Y-8139820D01*
X15506943Y-8010280D02*
X15377403Y-8139820D01*
X15442173Y-8010280D02*
X15442173Y-8139820D01*
X15377403Y-8075050D02*
X15506943Y-8075050D01*
X15377403Y-8610280D02*
X15506943Y-8739820D01*
X15506943Y-8610280D02*
X15377403Y-8739820D01*
X15442173Y-8610280D02*
X15442173Y-8739820D01*
X15377403Y-8675050D02*
X15506943Y-8675050D01*
D15*
X15743433Y-8296310D02*
X15900913Y-8453790D01*
X15900913Y-8296310D02*
X15743433Y-8453790D01*
X15877851Y-8430728D02*
X15877851Y-8319372D01*
X15766494Y-8319372D01*
X15766494Y-8430728D01*
X15877851Y-8430728D01*
X15971260Y-8046310D02*
X16128740Y-8203790D01*
X16128740Y-8046310D02*
X15971260Y-8203790D01*
X16105678Y-8180728D02*
X16105678Y-8069372D01*
X15994322Y-8069372D01*
X15994322Y-8180728D01*
X16105678Y-8180728D01*
X15971260Y-8546310D02*
X16128740Y-8703790D01*
X16128740Y-8546310D02*
X15971260Y-8703790D01*
X16105678Y-8680728D02*
X16105678Y-8569372D01*
X15994322Y-8569372D01*
X15994322Y-8680728D01*
X16105678Y-8680728D01*
D16*
X14344750Y-7984750D02*
X14535250Y-8175250D01*
X14535250Y-7984750D02*
X14344750Y-8175250D01*
X14440000Y-8175250D02*
X14535250Y-8080000D01*
X14440000Y-7984750D01*
X14344750Y-8080000D01*
X14440000Y-8175250D01*
X14344750Y-9984750D02*
X14535250Y-10175250D01*
X14535250Y-9984750D02*
X14344750Y-10175250D01*
X14440000Y-10175250D02*
X14535250Y-10080000D01*
X14440000Y-9984750D01*
X14344750Y-10080000D01*
X14440000Y-10175250D01*
X16568750Y-7984750D02*
X16759250Y-8175250D01*
X16759250Y-7984750D02*
X16568750Y-8175250D01*
X16664000Y-8175250D02*
X16759250Y-8080000D01*
X16664000Y-7984750D01*
X16568750Y-8080000D01*
X16664000Y-8175250D01*
X16568750Y-9984750D02*
X16759250Y-10175250D01*
X16759250Y-9984750D02*
X16568750Y-10175250D01*
X16664000Y-10175250D02*
X16759250Y-10080000D01*
X16664000Y-9984750D01*
X16568750Y-10080000D01*
X16664000Y-10175250D01*
D17*
X17400000Y-8294500D02*
X17400000Y-8535500D01*
X17279500Y-8415000D02*
X17520500Y-8415000D01*
X17520500Y-8415000D02*
G75*
G02*
X17279500Y-8415000I-120500J0D01*
G01*
X17279500Y-8415000D02*
G75*
G02*
X17520500Y-8415000I120500J0D01*
G01*
X17400000Y-9624500D02*
X17400000Y-9865500D01*
X17279500Y-9745000D02*
X17520500Y-9745000D01*
X17520500Y-9745000D02*
G75*
G02*
X17279500Y-9745000I-120500J0D01*
G01*
X17279500Y-9745000D02*
G75*
G02*
X17520500Y-9745000I120500J0D01*
G01*
D18*
X13702389Y-7968389D02*
X13702389Y-7791611D01*
X13525611Y-7791611D01*
X13525611Y-7968389D01*
X13702389Y-7968389D01*
X13739000Y-7880000D02*
G75*
G02*
X13489000Y-7880000I-125000J0D01*
G01*
X13489000Y-7880000D02*
G75*
G02*
X13739000Y-7880000I125000J0D01*
G01*
X13702389Y-10368389D02*
X13702389Y-10191611D01*
X13525611Y-10191611D01*
X13525611Y-10368389D01*
X13702389Y-10368389D01*
X13739000Y-10280000D02*
G75*
G02*
X13489000Y-10280000I-125000J0D01*
G01*
X13489000Y-10280000D02*
G75*
G02*
X13739000Y-10280000I125000J0D01*
G01*
X17502389Y-7968389D02*
X17502389Y-7791611D01*
X17325611Y-7791611D01*
X17325611Y-7968389D01*
X17502389Y-7968389D01*
X17539000Y-7880000D02*
G75*
G02*
X17289000Y-7880000I-125000J0D01*
G01*
X17289000Y-7880000D02*
G75*
G02*
X17539000Y-7880000I125000J0D01*
G01*
X17502389Y-10368389D02*
X17502389Y-10191611D01*
X17325611Y-10191611D01*
X17325611Y-10368389D01*
X17502389Y-10368389D01*
X17539000Y-10280000D02*
G75*
G02*
X17289000Y-10280000I-125000J0D01*
G01*
X17289000Y-10280000D02*
G75*
G02*
X17539000Y-10280000I125000J0D01*
G01*
D11*
X13569777Y-10896484D02*
X13569777Y-10696484D01*
X13569777Y-10696484D02*
X13617396Y-10696484D01*
X13617396Y-10696484D02*
X13645967Y-10706008D01*
X13645967Y-10706008D02*
X13665015Y-10725055D01*
X13665015Y-10725055D02*
X13674539Y-10744103D01*
X13674539Y-10744103D02*
X13684062Y-10782198D01*
X13684062Y-10782198D02*
X13684062Y-10810769D01*
X13684062Y-10810769D02*
X13674539Y-10848865D01*
X13674539Y-10848865D02*
X13665015Y-10867912D01*
X13665015Y-10867912D02*
X13645967Y-10886960D01*
X13645967Y-10886960D02*
X13617396Y-10896484D01*
X13617396Y-10896484D02*
X13569777Y-10896484D01*
X13769777Y-10896484D02*
X13769777Y-10763150D01*
X13769777Y-10801246D02*
X13779301Y-10782198D01*
X13779301Y-10782198D02*
X13788824Y-10772674D01*
X13788824Y-10772674D02*
X13807872Y-10763150D01*
X13807872Y-10763150D02*
X13826920Y-10763150D01*
X13893586Y-10896484D02*
X13893586Y-10763150D01*
X13893586Y-10696484D02*
X13884062Y-10706008D01*
X13884062Y-10706008D02*
X13893586Y-10715531D01*
X13893586Y-10715531D02*
X13903110Y-10706008D01*
X13903110Y-10706008D02*
X13893586Y-10696484D01*
X13893586Y-10696484D02*
X13893586Y-10715531D01*
X14017396Y-10896484D02*
X13998348Y-10886960D01*
X13998348Y-10886960D02*
X13988824Y-10867912D01*
X13988824Y-10867912D02*
X13988824Y-10696484D01*
X14122158Y-10896484D02*
X14103110Y-10886960D01*
X14103110Y-10886960D02*
X14093586Y-10867912D01*
X14093586Y-10867912D02*
X14093586Y-10696484D01*
X14350729Y-10896484D02*
X14350729Y-10696484D01*
X14350729Y-10696484D02*
X14417396Y-10839341D01*
X14417396Y-10839341D02*
X14484062Y-10696484D01*
X14484062Y-10696484D02*
X14484062Y-10896484D01*
X14665015Y-10896484D02*
X14665015Y-10791722D01*
X14665015Y-10791722D02*
X14655491Y-10772674D01*
X14655491Y-10772674D02*
X14636443Y-10763150D01*
X14636443Y-10763150D02*
X14598348Y-10763150D01*
X14598348Y-10763150D02*
X14579301Y-10772674D01*
X14665015Y-10886960D02*
X14645967Y-10896484D01*
X14645967Y-10896484D02*
X14598348Y-10896484D01*
X14598348Y-10896484D02*
X14579301Y-10886960D01*
X14579301Y-10886960D02*
X14569777Y-10867912D01*
X14569777Y-10867912D02*
X14569777Y-10848865D01*
X14569777Y-10848865D02*
X14579301Y-10829817D01*
X14579301Y-10829817D02*
X14598348Y-10820293D01*
X14598348Y-10820293D02*
X14645967Y-10820293D01*
X14645967Y-10820293D02*
X14665015Y-10810769D01*
X14760253Y-10763150D02*
X14760253Y-10963150D01*
X14760253Y-10772674D02*
X14779301Y-10763150D01*
X14779301Y-10763150D02*
X14817396Y-10763150D01*
X14817396Y-10763150D02*
X14836443Y-10772674D01*
X14836443Y-10772674D02*
X14845967Y-10782198D01*
X14845967Y-10782198D02*
X14855491Y-10801246D01*
X14855491Y-10801246D02*
X14855491Y-10858388D01*
X14855491Y-10858388D02*
X14845967Y-10877436D01*
X14845967Y-10877436D02*
X14836443Y-10886960D01*
X14836443Y-10886960D02*
X14817396Y-10896484D01*
X14817396Y-10896484D02*
X14779301Y-10896484D01*
X14779301Y-10896484D02*
X14760253Y-10886960D01*
X14941205Y-10877436D02*
X14950729Y-10886960D01*
X14950729Y-10886960D02*
X14941205Y-10896484D01*
X14941205Y-10896484D02*
X14931682Y-10886960D01*
X14931682Y-10886960D02*
X14941205Y-10877436D01*
X14941205Y-10877436D02*
X14941205Y-10896484D01*
X14941205Y-10772674D02*
X14950729Y-10782198D01*
X14950729Y-10782198D02*
X14941205Y-10791722D01*
X14941205Y-10791722D02*
X14931682Y-10782198D01*
X14931682Y-10782198D02*
X14941205Y-10772674D01*
X14941205Y-10772674D02*
X14941205Y-10791722D01*
D10*
X13279000Y-11210000D02*
X13309000Y-11240000D01*
X13309000Y-11210000D02*
X13279000Y-11240000D01*
D11*
X13607872Y-11116484D02*
X13626920Y-11116484D01*
X13626920Y-11116484D02*
X13645967Y-11126008D01*
X13645967Y-11126008D02*
X13655491Y-11135531D01*
X13655491Y-11135531D02*
X13665015Y-11154579D01*
X13665015Y-11154579D02*
X13674539Y-11192674D01*
X13674539Y-11192674D02*
X13674539Y-11240293D01*
X13674539Y-11240293D02*
X13665015Y-11278388D01*
X13665015Y-11278388D02*
X13655491Y-11297436D01*
X13655491Y-11297436D02*
X13645967Y-11306960D01*
X13645967Y-11306960D02*
X13626920Y-11316484D01*
X13626920Y-11316484D02*
X13607872Y-11316484D01*
X13607872Y-11316484D02*
X13588824Y-11306960D01*
X13588824Y-11306960D02*
X13579301Y-11297436D01*
X13579301Y-11297436D02*
X13569777Y-11278388D01*
X13569777Y-11278388D02*
X13560253Y-11240293D01*
X13560253Y-11240293D02*
X13560253Y-11192674D01*
X13560253Y-11192674D02*
X13569777Y-11154579D01*
X13569777Y-11154579D02*
X13579301Y-11135531D01*
X13579301Y-11135531D02*
X13588824Y-11126008D01*
X13588824Y-11126008D02*
X13607872Y-11116484D01*
X13760253Y-11297436D02*
X13769777Y-11306960D01*
X13769777Y-11306960D02*
X13760253Y-11316484D01*
X13760253Y-11316484D02*
X13750729Y-11306960D01*
X13750729Y-11306960D02*
X13760253Y-11297436D01*
X13760253Y-11297436D02*
X13760253Y-11316484D01*
X13836443Y-11116484D02*
X13960253Y-11116484D01*
X13960253Y-11116484D02*
X13893586Y-11192674D01*
X13893586Y-11192674D02*
X13922158Y-11192674D01*
X13922158Y-11192674D02*
X13941205Y-11202198D01*
X13941205Y-11202198D02*
X13950729Y-11211722D01*
X13950729Y-11211722D02*
X13960253Y-11230769D01*
X13960253Y-11230769D02*
X13960253Y-11278388D01*
X13960253Y-11278388D02*
X13950729Y-11297436D01*
X13950729Y-11297436D02*
X13941205Y-11306960D01*
X13941205Y-11306960D02*
X13922158Y-11316484D01*
X13922158Y-11316484D02*
X13865015Y-11316484D01*
X13865015Y-11316484D02*
X13845967Y-11306960D01*
X13845967Y-11306960D02*
X13836443Y-11297436D01*
X14084062Y-11116484D02*
X14103110Y-11116484D01*
X14103110Y-11116484D02*
X14122158Y-11126008D01*
X14122158Y-11126008D02*
X14131682Y-11135531D01*
X14131682Y-11135531D02*
X14141205Y-11154579D01*
X14141205Y-11154579D02*
X14150729Y-11192674D01*
X14150729Y-11192674D02*
X14150729Y-11240293D01*
X14150729Y-11240293D02*
X14141205Y-11278388D01*
X14141205Y-11278388D02*
X14131682Y-11297436D01*
X14131682Y-11297436D02*
X14122158Y-11306960D01*
X14122158Y-11306960D02*
X14103110Y-11316484D01*
X14103110Y-11316484D02*
X14084062Y-11316484D01*
X14084062Y-11316484D02*
X14065015Y-11306960D01*
X14065015Y-11306960D02*
X14055491Y-11297436D01*
X14055491Y-11297436D02*
X14045967Y-11278388D01*
X14045967Y-11278388D02*
X14036443Y-11240293D01*
X14036443Y-11240293D02*
X14036443Y-11192674D01*
X14036443Y-11192674D02*
X14045967Y-11154579D01*
X14045967Y-11154579D02*
X14055491Y-11135531D01*
X14055491Y-11135531D02*
X14065015Y-11126008D01*
X14065015Y-11126008D02*
X14084062Y-11116484D01*
X14274539Y-11116484D02*
X14293586Y-11116484D01*
X14293586Y-11116484D02*
X14312634Y-11126008D01*
X14312634Y-11126008D02*
X14322158Y-11135531D01*
X14322158Y-11135531D02*
X14331682Y-11154579D01*
X14331682Y-11154579D02*
X14341205Y-11192674D01*
X14341205Y-11192674D02*
X14341205Y-11240293D01*
X14341205Y-11240293D02*
X14331682Y-11278388D01*
X14331682Y-11278388D02*
X14322158Y-11297436D01*
X14322158Y-11297436D02*
X14312634Y-11306960D01*
X14312634Y-11306960D02*
X14293586Y-11316484D01*
X14293586Y-11316484D02*
X14274539Y-11316484D01*
X14274539Y-11316484D02*
X14255491Y-11306960D01*
X14255491Y-11306960D02*
X14245967Y-11297436D01*
X14245967Y-11297436D02*
X14236443Y-11278388D01*
X14236443Y-11278388D02*
X14226920Y-11240293D01*
X14226920Y-11240293D02*
X14226920Y-11192674D01*
X14226920Y-11192674D02*
X14236443Y-11154579D01*
X14236443Y-11154579D02*
X14245967Y-11135531D01*
X14245967Y-11135531D02*
X14255491Y-11126008D01*
X14255491Y-11126008D02*
X14274539Y-11116484D01*
X14426920Y-11316484D02*
X14426920Y-11183150D01*
X14426920Y-11202198D02*
X14436443Y-11192674D01*
X14436443Y-11192674D02*
X14455491Y-11183150D01*
X14455491Y-11183150D02*
X14484063Y-11183150D01*
X14484063Y-11183150D02*
X14503110Y-11192674D01*
X14503110Y-11192674D02*
X14512634Y-11211722D01*
X14512634Y-11211722D02*
X14512634Y-11316484D01*
X14512634Y-11211722D02*
X14522158Y-11192674D01*
X14522158Y-11192674D02*
X14541205Y-11183150D01*
X14541205Y-11183150D02*
X14569777Y-11183150D01*
X14569777Y-11183150D02*
X14588824Y-11192674D01*
X14588824Y-11192674D02*
X14598348Y-11211722D01*
X14598348Y-11211722D02*
X14598348Y-11316484D01*
X14693586Y-11316484D02*
X14693586Y-11183150D01*
X14693586Y-11202198D02*
X14703110Y-11192674D01*
X14703110Y-11192674D02*
X14722158Y-11183150D01*
X14722158Y-11183150D02*
X14750729Y-11183150D01*
X14750729Y-11183150D02*
X14769777Y-11192674D01*
X14769777Y-11192674D02*
X14779301Y-11211722D01*
X14779301Y-11211722D02*
X14779301Y-11316484D01*
X14779301Y-11211722D02*
X14788824Y-11192674D01*
X14788824Y-11192674D02*
X14807872Y-11183150D01*
X14807872Y-11183150D02*
X14836443Y-11183150D01*
X14836443Y-11183150D02*
X14855491Y-11192674D01*
X14855491Y-11192674D02*
X14865015Y-11211722D01*
X14865015Y-11211722D02*
X14865015Y-11316484D01*
X15255491Y-11106960D02*
X15084063Y-11364103D01*
X15512634Y-11116484D02*
X15531682Y-11116484D01*
X15531682Y-11116484D02*
X15550729Y-11126008D01*
X15550729Y-11126008D02*
X15560253Y-11135531D01*
X15560253Y-11135531D02*
X15569777Y-11154579D01*
X15569777Y-11154579D02*
X15579301Y-11192674D01*
X15579301Y-11192674D02*
X15579301Y-11240293D01*
X15579301Y-11240293D02*
X15569777Y-11278388D01*
X15569777Y-11278388D02*
X15560253Y-11297436D01*
X15560253Y-11297436D02*
X15550729Y-11306960D01*
X15550729Y-11306960D02*
X15531682Y-11316484D01*
X15531682Y-11316484D02*
X15512634Y-11316484D01*
X15512634Y-11316484D02*
X15493586Y-11306960D01*
X15493586Y-11306960D02*
X15484063Y-11297436D01*
X15484063Y-11297436D02*
X15474539Y-11278388D01*
X15474539Y-11278388D02*
X15465015Y-11240293D01*
X15465015Y-11240293D02*
X15465015Y-11192674D01*
X15465015Y-11192674D02*
X15474539Y-11154579D01*
X15474539Y-11154579D02*
X15484063Y-11135531D01*
X15484063Y-11135531D02*
X15493586Y-11126008D01*
X15493586Y-11126008D02*
X15512634Y-11116484D01*
X15665015Y-11297436D02*
X15674539Y-11306960D01*
X15674539Y-11306960D02*
X15665015Y-11316484D01*
X15665015Y-11316484D02*
X15655491Y-11306960D01*
X15655491Y-11306960D02*
X15665015Y-11297436D01*
X15665015Y-11297436D02*
X15665015Y-11316484D01*
X15798348Y-11116484D02*
X15817396Y-11116484D01*
X15817396Y-11116484D02*
X15836444Y-11126008D01*
X15836444Y-11126008D02*
X15845967Y-11135531D01*
X15845967Y-11135531D02*
X15855491Y-11154579D01*
X15855491Y-11154579D02*
X15865015Y-11192674D01*
X15865015Y-11192674D02*
X15865015Y-11240293D01*
X15865015Y-11240293D02*
X15855491Y-11278388D01*
X15855491Y-11278388D02*
X15845967Y-11297436D01*
X15845967Y-11297436D02*
X15836444Y-11306960D01*
X15836444Y-11306960D02*
X15817396Y-11316484D01*
X15817396Y-11316484D02*
X15798348Y-11316484D01*
X15798348Y-11316484D02*
X15779301Y-11306960D01*
X15779301Y-11306960D02*
X15769777Y-11297436D01*
X15769777Y-11297436D02*
X15760253Y-11278388D01*
X15760253Y-11278388D02*
X15750729Y-11240293D01*
X15750729Y-11240293D02*
X15750729Y-11192674D01*
X15750729Y-11192674D02*
X15760253Y-11154579D01*
X15760253Y-11154579D02*
X15769777Y-11135531D01*
X15769777Y-11135531D02*
X15779301Y-11126008D01*
X15779301Y-11126008D02*
X15798348Y-11116484D01*
X16055491Y-11316484D02*
X15941206Y-11316484D01*
X15998348Y-11316484D02*
X15998348Y-11116484D01*
X15998348Y-11116484D02*
X15979301Y-11145055D01*
X15979301Y-11145055D02*
X15960253Y-11164103D01*
X15960253Y-11164103D02*
X15941206Y-11173627D01*
X16245967Y-11316484D02*
X16131682Y-11316484D01*
X16188825Y-11316484D02*
X16188825Y-11116484D01*
X16188825Y-11116484D02*
X16169777Y-11145055D01*
X16169777Y-11145055D02*
X16150729Y-11164103D01*
X16150729Y-11164103D02*
X16131682Y-11173627D01*
X16360253Y-11202198D02*
X16341206Y-11192674D01*
X16341206Y-11192674D02*
X16331682Y-11183150D01*
X16331682Y-11183150D02*
X16322158Y-11164103D01*
X16322158Y-11164103D02*
X16322158Y-11154579D01*
X16322158Y-11154579D02*
X16331682Y-11135531D01*
X16331682Y-11135531D02*
X16341206Y-11126008D01*
X16341206Y-11126008D02*
X16360253Y-11116484D01*
X16360253Y-11116484D02*
X16398348Y-11116484D01*
X16398348Y-11116484D02*
X16417396Y-11126008D01*
X16417396Y-11126008D02*
X16426920Y-11135531D01*
X16426920Y-11135531D02*
X16436444Y-11154579D01*
X16436444Y-11154579D02*
X16436444Y-11164103D01*
X16436444Y-11164103D02*
X16426920Y-11183150D01*
X16426920Y-11183150D02*
X16417396Y-11192674D01*
X16417396Y-11192674D02*
X16398348Y-11202198D01*
X16398348Y-11202198D02*
X16360253Y-11202198D01*
X16360253Y-11202198D02*
X16341206Y-11211722D01*
X16341206Y-11211722D02*
X16331682Y-11221246D01*
X16331682Y-11221246D02*
X16322158Y-11240293D01*
X16322158Y-11240293D02*
X16322158Y-11278388D01*
X16322158Y-11278388D02*
X16331682Y-11297436D01*
X16331682Y-11297436D02*
X16341206Y-11306960D01*
X16341206Y-11306960D02*
X16360253Y-11316484D01*
X16360253Y-11316484D02*
X16398348Y-11316484D01*
X16398348Y-11316484D02*
X16417396Y-11306960D01*
X16417396Y-11306960D02*
X16426920Y-11297436D01*
X16426920Y-11297436D02*
X16436444Y-11278388D01*
X16436444Y-11278388D02*
X16436444Y-11240293D01*
X16436444Y-11240293D02*
X16426920Y-11221246D01*
X16426920Y-11221246D02*
X16417396Y-11211722D01*
X16417396Y-11211722D02*
X16398348Y-11202198D01*
X16512634Y-11116484D02*
X16512634Y-11154579D01*
X16588825Y-11116484D02*
X16588825Y-11154579D01*
X16884063Y-11392674D02*
X16874539Y-11383150D01*
X16874539Y-11383150D02*
X16855491Y-11354579D01*
X16855491Y-11354579D02*
X16845968Y-11335531D01*
X16845968Y-11335531D02*
X16836444Y-11306960D01*
X16836444Y-11306960D02*
X16826920Y-11259341D01*
X16826920Y-11259341D02*
X16826920Y-11221246D01*
X16826920Y-11221246D02*
X16836444Y-11173627D01*
X16836444Y-11173627D02*
X16845968Y-11145055D01*
X16845968Y-11145055D02*
X16855491Y-11126008D01*
X16855491Y-11126008D02*
X16874539Y-11097436D01*
X16874539Y-11097436D02*
X16884063Y-11087912D01*
X16941206Y-11116484D02*
X17065015Y-11116484D01*
X17065015Y-11116484D02*
X16998349Y-11192674D01*
X16998349Y-11192674D02*
X17026920Y-11192674D01*
X17026920Y-11192674D02*
X17045968Y-11202198D01*
X17045968Y-11202198D02*
X17055491Y-11211722D01*
X17055491Y-11211722D02*
X17065015Y-11230769D01*
X17065015Y-11230769D02*
X17065015Y-11278388D01*
X17065015Y-11278388D02*
X17055491Y-11297436D01*
X17055491Y-11297436D02*
X17045968Y-11306960D01*
X17045968Y-11306960D02*
X17026920Y-11316484D01*
X17026920Y-11316484D02*
X16969777Y-11316484D01*
X16969777Y-11316484D02*
X16950730Y-11306960D01*
X16950730Y-11306960D02*
X16941206Y-11297436D01*
X17188825Y-11116484D02*
X17207872Y-11116484D01*
X17207872Y-11116484D02*
X17226920Y-11126008D01*
X17226920Y-11126008D02*
X17236444Y-11135531D01*
X17236444Y-11135531D02*
X17245968Y-11154579D01*
X17245968Y-11154579D02*
X17255491Y-11192674D01*
X17255491Y-11192674D02*
X17255491Y-11240293D01*
X17255491Y-11240293D02*
X17245968Y-11278388D01*
X17245968Y-11278388D02*
X17236444Y-11297436D01*
X17236444Y-11297436D02*
X17226920Y-11306960D01*
X17226920Y-11306960D02*
X17207872Y-11316484D01*
X17207872Y-11316484D02*
X17188825Y-11316484D01*
X17188825Y-11316484D02*
X17169777Y-11306960D01*
X17169777Y-11306960D02*
X17160253Y-11297436D01*
X17160253Y-11297436D02*
X17150730Y-11278388D01*
X17150730Y-11278388D02*
X17141206Y-11240293D01*
X17141206Y-11240293D02*
X17141206Y-11192674D01*
X17141206Y-11192674D02*
X17150730Y-11154579D01*
X17150730Y-11154579D02*
X17160253Y-11135531D01*
X17160253Y-11135531D02*
X17169777Y-11126008D01*
X17169777Y-11126008D02*
X17188825Y-11116484D01*
X17493587Y-11316484D02*
X17493587Y-11116484D01*
X17579301Y-11316484D02*
X17579301Y-11211722D01*
X17579301Y-11211722D02*
X17569777Y-11192674D01*
X17569777Y-11192674D02*
X17550730Y-11183150D01*
X17550730Y-11183150D02*
X17522158Y-11183150D01*
X17522158Y-11183150D02*
X17503111Y-11192674D01*
X17503111Y-11192674D02*
X17493587Y-11202198D01*
X17703111Y-11316484D02*
X17684063Y-11306960D01*
X17684063Y-11306960D02*
X17674539Y-11297436D01*
X17674539Y-11297436D02*
X17665015Y-11278388D01*
X17665015Y-11278388D02*
X17665015Y-11221246D01*
X17665015Y-11221246D02*
X17674539Y-11202198D01*
X17674539Y-11202198D02*
X17684063Y-11192674D01*
X17684063Y-11192674D02*
X17703111Y-11183150D01*
X17703111Y-11183150D02*
X17731682Y-11183150D01*
X17731682Y-11183150D02*
X17750730Y-11192674D01*
X17750730Y-11192674D02*
X17760253Y-11202198D01*
X17760253Y-11202198D02*
X17769777Y-11221246D01*
X17769777Y-11221246D02*
X17769777Y-11278388D01*
X17769777Y-11278388D02*
X17760253Y-11297436D01*
X17760253Y-11297436D02*
X17750730Y-11306960D01*
X17750730Y-11306960D02*
X17731682Y-11316484D01*
X17731682Y-11316484D02*
X17703111Y-11316484D01*
X17884063Y-11316484D02*
X17865015Y-11306960D01*
X17865015Y-11306960D02*
X17855492Y-11287912D01*
X17855492Y-11287912D02*
X17855492Y-11116484D01*
X18036444Y-11306960D02*
X18017396Y-11316484D01*
X18017396Y-11316484D02*
X17979301Y-11316484D01*
X17979301Y-11316484D02*
X17960253Y-11306960D01*
X17960253Y-11306960D02*
X17950730Y-11287912D01*
X17950730Y-11287912D02*
X17950730Y-11211722D01*
X17950730Y-11211722D02*
X17960253Y-11192674D01*
X17960253Y-11192674D02*
X17979301Y-11183150D01*
X17979301Y-11183150D02*
X18017396Y-11183150D01*
X18017396Y-11183150D02*
X18036444Y-11192674D01*
X18036444Y-11192674D02*
X18045968Y-11211722D01*
X18045968Y-11211722D02*
X18045968Y-11230769D01*
X18045968Y-11230769D02*
X17950730Y-11249817D01*
X18122158Y-11306960D02*
X18141206Y-11316484D01*
X18141206Y-11316484D02*
X18179301Y-11316484D01*
X18179301Y-11316484D02*
X18198349Y-11306960D01*
X18198349Y-11306960D02*
X18207873Y-11287912D01*
X18207873Y-11287912D02*
X18207873Y-11278388D01*
X18207873Y-11278388D02*
X18198349Y-11259341D01*
X18198349Y-11259341D02*
X18179301Y-11249817D01*
X18179301Y-11249817D02*
X18150730Y-11249817D01*
X18150730Y-11249817D02*
X18131682Y-11240293D01*
X18131682Y-11240293D02*
X18122158Y-11221246D01*
X18122158Y-11221246D02*
X18122158Y-11211722D01*
X18122158Y-11211722D02*
X18131682Y-11192674D01*
X18131682Y-11192674D02*
X18150730Y-11183150D01*
X18150730Y-11183150D02*
X18179301Y-11183150D01*
X18179301Y-11183150D02*
X18198349Y-11192674D01*
X18274539Y-11392674D02*
X18284063Y-11383150D01*
X18284063Y-11383150D02*
X18303111Y-11354579D01*
X18303111Y-11354579D02*
X18312634Y-11335531D01*
X18312634Y-11335531D02*
X18322158Y-11306960D01*
X18322158Y-11306960D02*
X18331682Y-11259341D01*
X18331682Y-11259341D02*
X18331682Y-11221246D01*
X18331682Y-11221246D02*
X18322158Y-11173627D01*
X18322158Y-11173627D02*
X18312634Y-11145055D01*
X18312634Y-11145055D02*
X18303111Y-11126008D01*
X18303111Y-11126008D02*
X18284063Y-11097436D01*
X18284063Y-11097436D02*
X18274539Y-11087912D01*
D10*
X13309000Y-11489000D02*
G75*
G02*
X13259000Y-11489000I-25000J0D01*
G01*
X13259000Y-11489000D02*
G75*
G02*
X13309000Y-11489000I25000J0D01*
G01*
D11*
X13607872Y-11380484D02*
X13626920Y-11380484D01*
X13626920Y-11380484D02*
X13645967Y-11390007D01*
X13645967Y-11390007D02*
X13655491Y-11399531D01*
X13655491Y-11399531D02*
X13665015Y-11418579D01*
X13665015Y-11418579D02*
X13674539Y-11456674D01*
X13674539Y-11456674D02*
X13674539Y-11504293D01*
X13674539Y-11504293D02*
X13665015Y-11542388D01*
X13665015Y-11542388D02*
X13655491Y-11561436D01*
X13655491Y-11561436D02*
X13645967Y-11570960D01*
X13645967Y-11570960D02*
X13626920Y-11580484D01*
X13626920Y-11580484D02*
X13607872Y-11580484D01*
X13607872Y-11580484D02*
X13588824Y-11570960D01*
X13588824Y-11570960D02*
X13579301Y-11561436D01*
X13579301Y-11561436D02*
X13569777Y-11542388D01*
X13569777Y-11542388D02*
X13560253Y-11504293D01*
X13560253Y-11504293D02*
X13560253Y-11456674D01*
X13560253Y-11456674D02*
X13569777Y-11418579D01*
X13569777Y-11418579D02*
X13579301Y-11399531D01*
X13579301Y-11399531D02*
X13588824Y-11390007D01*
X13588824Y-11390007D02*
X13607872Y-11380484D01*
X13760253Y-11561436D02*
X13769777Y-11570960D01*
X13769777Y-11570960D02*
X13760253Y-11580484D01*
X13760253Y-11580484D02*
X13750729Y-11570960D01*
X13750729Y-11570960D02*
X13760253Y-11561436D01*
X13760253Y-11561436D02*
X13760253Y-11580484D01*
X13950729Y-11380484D02*
X13855491Y-11380484D01*
X13855491Y-11380484D02*
X13845967Y-11475722D01*
X13845967Y-11475722D02*
X13855491Y-11466198D01*
X13855491Y-11466198D02*
X13874539Y-11456674D01*
X13874539Y-11456674D02*
X13922158Y-11456674D01*
X13922158Y-11456674D02*
X13941205Y-11466198D01*
X13941205Y-11466198D02*
X13950729Y-11475722D01*
X13950729Y-11475722D02*
X13960253Y-11494769D01*
X13960253Y-11494769D02*
X13960253Y-11542388D01*
X13960253Y-11542388D02*
X13950729Y-11561436D01*
X13950729Y-11561436D02*
X13941205Y-11570960D01*
X13941205Y-11570960D02*
X13922158Y-11580484D01*
X13922158Y-11580484D02*
X13874539Y-11580484D01*
X13874539Y-11580484D02*
X13855491Y-11570960D01*
X13855491Y-11570960D02*
X13845967Y-11561436D01*
X14084062Y-11380484D02*
X14103110Y-11380484D01*
X14103110Y-11380484D02*
X14122158Y-11390007D01*
X14122158Y-11390007D02*
X14131682Y-11399531D01*
X14131682Y-11399531D02*
X14141205Y-11418579D01*
X14141205Y-11418579D02*
X14150729Y-11456674D01*
X14150729Y-11456674D02*
X14150729Y-11504293D01*
X14150729Y-11504293D02*
X14141205Y-11542388D01*
X14141205Y-11542388D02*
X14131682Y-11561436D01*
X14131682Y-11561436D02*
X14122158Y-11570960D01*
X14122158Y-11570960D02*
X14103110Y-11580484D01*
X14103110Y-11580484D02*
X14084062Y-11580484D01*
X14084062Y-11580484D02*
X14065015Y-11570960D01*
X14065015Y-11570960D02*
X14055491Y-11561436D01*
X14055491Y-11561436D02*
X14045967Y-11542388D01*
X14045967Y-11542388D02*
X14036443Y-11504293D01*
X14036443Y-11504293D02*
X14036443Y-11456674D01*
X14036443Y-11456674D02*
X14045967Y-11418579D01*
X14045967Y-11418579D02*
X14055491Y-11399531D01*
X14055491Y-11399531D02*
X14065015Y-11390007D01*
X14065015Y-11390007D02*
X14084062Y-11380484D01*
X14274539Y-11380484D02*
X14293586Y-11380484D01*
X14293586Y-11380484D02*
X14312634Y-11390007D01*
X14312634Y-11390007D02*
X14322158Y-11399531D01*
X14322158Y-11399531D02*
X14331682Y-11418579D01*
X14331682Y-11418579D02*
X14341205Y-11456674D01*
X14341205Y-11456674D02*
X14341205Y-11504293D01*
X14341205Y-11504293D02*
X14331682Y-11542388D01*
X14331682Y-11542388D02*
X14322158Y-11561436D01*
X14322158Y-11561436D02*
X14312634Y-11570960D01*
X14312634Y-11570960D02*
X14293586Y-11580484D01*
X14293586Y-11580484D02*
X14274539Y-11580484D01*
X14274539Y-11580484D02*
X14255491Y-11570960D01*
X14255491Y-11570960D02*
X14245967Y-11561436D01*
X14245967Y-11561436D02*
X14236443Y-11542388D01*
X14236443Y-11542388D02*
X14226920Y-11504293D01*
X14226920Y-11504293D02*
X14226920Y-11456674D01*
X14226920Y-11456674D02*
X14236443Y-11418579D01*
X14236443Y-11418579D02*
X14245967Y-11399531D01*
X14245967Y-11399531D02*
X14255491Y-11390007D01*
X14255491Y-11390007D02*
X14274539Y-11380484D01*
X14426920Y-11580484D02*
X14426920Y-11447150D01*
X14426920Y-11466198D02*
X14436443Y-11456674D01*
X14436443Y-11456674D02*
X14455491Y-11447150D01*
X14455491Y-11447150D02*
X14484063Y-11447150D01*
X14484063Y-11447150D02*
X14503110Y-11456674D01*
X14503110Y-11456674D02*
X14512634Y-11475722D01*
X14512634Y-11475722D02*
X14512634Y-11580484D01*
X14512634Y-11475722D02*
X14522158Y-11456674D01*
X14522158Y-11456674D02*
X14541205Y-11447150D01*
X14541205Y-11447150D02*
X14569777Y-11447150D01*
X14569777Y-11447150D02*
X14588824Y-11456674D01*
X14588824Y-11456674D02*
X14598348Y-11475722D01*
X14598348Y-11475722D02*
X14598348Y-11580484D01*
X14693586Y-11580484D02*
X14693586Y-11447150D01*
X14693586Y-11466198D02*
X14703110Y-11456674D01*
X14703110Y-11456674D02*
X14722158Y-11447150D01*
X14722158Y-11447150D02*
X14750729Y-11447150D01*
X14750729Y-11447150D02*
X14769777Y-11456674D01*
X14769777Y-11456674D02*
X14779301Y-11475722D01*
X14779301Y-11475722D02*
X14779301Y-11580484D01*
X14779301Y-11475722D02*
X14788824Y-11456674D01*
X14788824Y-11456674D02*
X14807872Y-11447150D01*
X14807872Y-11447150D02*
X14836443Y-11447150D01*
X14836443Y-11447150D02*
X14855491Y-11456674D01*
X14855491Y-11456674D02*
X14865015Y-11475722D01*
X14865015Y-11475722D02*
X14865015Y-11580484D01*
X15255491Y-11370960D02*
X15084063Y-11628103D01*
X15512634Y-11380484D02*
X15531682Y-11380484D01*
X15531682Y-11380484D02*
X15550729Y-11390007D01*
X15550729Y-11390007D02*
X15560253Y-11399531D01*
X15560253Y-11399531D02*
X15569777Y-11418579D01*
X15569777Y-11418579D02*
X15579301Y-11456674D01*
X15579301Y-11456674D02*
X15579301Y-11504293D01*
X15579301Y-11504293D02*
X15569777Y-11542388D01*
X15569777Y-11542388D02*
X15560253Y-11561436D01*
X15560253Y-11561436D02*
X15550729Y-11570960D01*
X15550729Y-11570960D02*
X15531682Y-11580484D01*
X15531682Y-11580484D02*
X15512634Y-11580484D01*
X15512634Y-11580484D02*
X15493586Y-11570960D01*
X15493586Y-11570960D02*
X15484063Y-11561436D01*
X15484063Y-11561436D02*
X15474539Y-11542388D01*
X15474539Y-11542388D02*
X15465015Y-11504293D01*
X15465015Y-11504293D02*
X15465015Y-11456674D01*
X15465015Y-11456674D02*
X15474539Y-11418579D01*
X15474539Y-11418579D02*
X15484063Y-11399531D01*
X15484063Y-11399531D02*
X15493586Y-11390007D01*
X15493586Y-11390007D02*
X15512634Y-11380484D01*
X15665015Y-11561436D02*
X15674539Y-11570960D01*
X15674539Y-11570960D02*
X15665015Y-11580484D01*
X15665015Y-11580484D02*
X15655491Y-11570960D01*
X15655491Y-11570960D02*
X15665015Y-11561436D01*
X15665015Y-11561436D02*
X15665015Y-11580484D01*
X15798348Y-11380484D02*
X15817396Y-11380484D01*
X15817396Y-11380484D02*
X15836444Y-11390007D01*
X15836444Y-11390007D02*
X15845967Y-11399531D01*
X15845967Y-11399531D02*
X15855491Y-11418579D01*
X15855491Y-11418579D02*
X15865015Y-11456674D01*
X15865015Y-11456674D02*
X15865015Y-11504293D01*
X15865015Y-11504293D02*
X15855491Y-11542388D01*
X15855491Y-11542388D02*
X15845967Y-11561436D01*
X15845967Y-11561436D02*
X15836444Y-11570960D01*
X15836444Y-11570960D02*
X15817396Y-11580484D01*
X15817396Y-11580484D02*
X15798348Y-11580484D01*
X15798348Y-11580484D02*
X15779301Y-11570960D01*
X15779301Y-11570960D02*
X15769777Y-11561436D01*
X15769777Y-11561436D02*
X15760253Y-11542388D01*
X15760253Y-11542388D02*
X15750729Y-11504293D01*
X15750729Y-11504293D02*
X15750729Y-11456674D01*
X15750729Y-11456674D02*
X15760253Y-11418579D01*
X15760253Y-11418579D02*
X15769777Y-11399531D01*
X15769777Y-11399531D02*
X15779301Y-11390007D01*
X15779301Y-11390007D02*
X15798348Y-11380484D01*
X16055491Y-11580484D02*
X15941206Y-11580484D01*
X15998348Y-11580484D02*
X15998348Y-11380484D01*
X15998348Y-11380484D02*
X15979301Y-11409055D01*
X15979301Y-11409055D02*
X15960253Y-11428103D01*
X15960253Y-11428103D02*
X15941206Y-11437626D01*
X16150729Y-11580484D02*
X16188825Y-11580484D01*
X16188825Y-11580484D02*
X16207872Y-11570960D01*
X16207872Y-11570960D02*
X16217396Y-11561436D01*
X16217396Y-11561436D02*
X16236444Y-11532865D01*
X16236444Y-11532865D02*
X16245967Y-11494769D01*
X16245967Y-11494769D02*
X16245967Y-11418579D01*
X16245967Y-11418579D02*
X16236444Y-11399531D01*
X16236444Y-11399531D02*
X16226920Y-11390007D01*
X16226920Y-11390007D02*
X16207872Y-11380484D01*
X16207872Y-11380484D02*
X16169777Y-11380484D01*
X16169777Y-11380484D02*
X16150729Y-11390007D01*
X16150729Y-11390007D02*
X16141206Y-11399531D01*
X16141206Y-11399531D02*
X16131682Y-11418579D01*
X16131682Y-11418579D02*
X16131682Y-11466198D01*
X16131682Y-11466198D02*
X16141206Y-11485246D01*
X16141206Y-11485246D02*
X16150729Y-11494769D01*
X16150729Y-11494769D02*
X16169777Y-11504293D01*
X16169777Y-11504293D02*
X16207872Y-11504293D01*
X16207872Y-11504293D02*
X16226920Y-11494769D01*
X16226920Y-11494769D02*
X16236444Y-11485246D01*
X16236444Y-11485246D02*
X16245967Y-11466198D01*
X16312634Y-11380484D02*
X16445967Y-11380484D01*
X16445967Y-11380484D02*
X16360253Y-11580484D01*
X16512634Y-11380484D02*
X16512634Y-11418579D01*
X16588825Y-11380484D02*
X16588825Y-11418579D01*
X16884063Y-11656674D02*
X16874539Y-11647150D01*
X16874539Y-11647150D02*
X16855491Y-11618579D01*
X16855491Y-11618579D02*
X16845968Y-11599531D01*
X16845968Y-11599531D02*
X16836444Y-11570960D01*
X16836444Y-11570960D02*
X16826920Y-11523341D01*
X16826920Y-11523341D02*
X16826920Y-11485246D01*
X16826920Y-11485246D02*
X16836444Y-11437626D01*
X16836444Y-11437626D02*
X16845968Y-11409055D01*
X16845968Y-11409055D02*
X16855491Y-11390007D01*
X16855491Y-11390007D02*
X16874539Y-11361436D01*
X16874539Y-11361436D02*
X16884063Y-11351912D01*
X16941206Y-11380484D02*
X17065015Y-11380484D01*
X17065015Y-11380484D02*
X16998349Y-11456674D01*
X16998349Y-11456674D02*
X17026920Y-11456674D01*
X17026920Y-11456674D02*
X17045968Y-11466198D01*
X17045968Y-11466198D02*
X17055491Y-11475722D01*
X17055491Y-11475722D02*
X17065015Y-11494769D01*
X17065015Y-11494769D02*
X17065015Y-11542388D01*
X17065015Y-11542388D02*
X17055491Y-11561436D01*
X17055491Y-11561436D02*
X17045968Y-11570960D01*
X17045968Y-11570960D02*
X17026920Y-11580484D01*
X17026920Y-11580484D02*
X16969777Y-11580484D01*
X16969777Y-11580484D02*
X16950730Y-11570960D01*
X16950730Y-11570960D02*
X16941206Y-11561436D01*
X17245968Y-11380484D02*
X17150730Y-11380484D01*
X17150730Y-11380484D02*
X17141206Y-11475722D01*
X17141206Y-11475722D02*
X17150730Y-11466198D01*
X17150730Y-11466198D02*
X17169777Y-11456674D01*
X17169777Y-11456674D02*
X17217396Y-11456674D01*
X17217396Y-11456674D02*
X17236444Y-11466198D01*
X17236444Y-11466198D02*
X17245968Y-11475722D01*
X17245968Y-11475722D02*
X17255491Y-11494769D01*
X17255491Y-11494769D02*
X17255491Y-11542388D01*
X17255491Y-11542388D02*
X17245968Y-11561436D01*
X17245968Y-11561436D02*
X17236444Y-11570960D01*
X17236444Y-11570960D02*
X17217396Y-11580484D01*
X17217396Y-11580484D02*
X17169777Y-11580484D01*
X17169777Y-11580484D02*
X17150730Y-11570960D01*
X17150730Y-11570960D02*
X17141206Y-11561436D01*
X17493587Y-11580484D02*
X17493587Y-11380484D01*
X17579301Y-11580484D02*
X17579301Y-11475722D01*
X17579301Y-11475722D02*
X17569777Y-11456674D01*
X17569777Y-11456674D02*
X17550730Y-11447150D01*
X17550730Y-11447150D02*
X17522158Y-11447150D01*
X17522158Y-11447150D02*
X17503111Y-11456674D01*
X17503111Y-11456674D02*
X17493587Y-11466198D01*
X17703111Y-11580484D02*
X17684063Y-11570960D01*
X17684063Y-11570960D02*
X17674539Y-11561436D01*
X17674539Y-11561436D02*
X17665015Y-11542388D01*
X17665015Y-11542388D02*
X17665015Y-11485246D01*
X17665015Y-11485246D02*
X17674539Y-11466198D01*
X17674539Y-11466198D02*
X17684063Y-11456674D01*
X17684063Y-11456674D02*
X17703111Y-11447150D01*
X17703111Y-11447150D02*
X17731682Y-11447150D01*
X17731682Y-11447150D02*
X17750730Y-11456674D01*
X17750730Y-11456674D02*
X17760253Y-11466198D01*
X17760253Y-11466198D02*
X17769777Y-11485246D01*
X17769777Y-11485246D02*
X17769777Y-11542388D01*
X17769777Y-11542388D02*
X17760253Y-11561436D01*
X17760253Y-11561436D02*
X17750730Y-11570960D01*
X17750730Y-11570960D02*
X17731682Y-11580484D01*
X17731682Y-11580484D02*
X17703111Y-11580484D01*
X17884063Y-11580484D02*
X17865015Y-11570960D01*
X17865015Y-11570960D02*
X17855492Y-11551912D01*
X17855492Y-11551912D02*
X17855492Y-11380484D01*
X18036444Y-11570960D02*
X18017396Y-11580484D01*
X18017396Y-11580484D02*
X17979301Y-11580484D01*
X17979301Y-11580484D02*
X17960253Y-11570960D01*
X17960253Y-11570960D02*
X17950730Y-11551912D01*
X17950730Y-11551912D02*
X17950730Y-11475722D01*
X17950730Y-11475722D02*
X17960253Y-11456674D01*
X17960253Y-11456674D02*
X17979301Y-11447150D01*
X17979301Y-11447150D02*
X18017396Y-11447150D01*
X18017396Y-11447150D02*
X18036444Y-11456674D01*
X18036444Y-11456674D02*
X18045968Y-11475722D01*
X18045968Y-11475722D02*
X18045968Y-11494769D01*
X18045968Y-11494769D02*
X17950730Y-11513817D01*
X18122158Y-11570960D02*
X18141206Y-11580484D01*
X18141206Y-11580484D02*
X18179301Y-11580484D01*
X18179301Y-11580484D02*
X18198349Y-11570960D01*
X18198349Y-11570960D02*
X18207873Y-11551912D01*
X18207873Y-11551912D02*
X18207873Y-11542388D01*
X18207873Y-11542388D02*
X18198349Y-11523341D01*
X18198349Y-11523341D02*
X18179301Y-11513817D01*
X18179301Y-11513817D02*
X18150730Y-11513817D01*
X18150730Y-11513817D02*
X18131682Y-11504293D01*
X18131682Y-11504293D02*
X18122158Y-11485246D01*
X18122158Y-11485246D02*
X18122158Y-11475722D01*
X18122158Y-11475722D02*
X18131682Y-11456674D01*
X18131682Y-11456674D02*
X18150730Y-11447150D01*
X18150730Y-11447150D02*
X18179301Y-11447150D01*
X18179301Y-11447150D02*
X18198349Y-11456674D01*
X18274539Y-11656674D02*
X18284063Y-11647150D01*
X18284063Y-11647150D02*
X18303111Y-11618579D01*
X18303111Y-11618579D02*
X18312634Y-11599531D01*
X18312634Y-11599531D02*
X18322158Y-11570960D01*
X18322158Y-11570960D02*
X18331682Y-11523341D01*
X18331682Y-11523341D02*
X18331682Y-11485246D01*
X18331682Y-11485246D02*
X18322158Y-11437626D01*
X18322158Y-11437626D02*
X18312634Y-11409055D01*
X18312634Y-11409055D02*
X18303111Y-11390007D01*
X18303111Y-11390007D02*
X18284063Y-11361436D01*
X18284063Y-11361436D02*
X18274539Y-11351912D01*
D10*
X13272000Y-11716000D02*
X13272000Y-11790000D01*
X13235000Y-11753000D02*
X13309000Y-11753000D01*
D11*
X13607872Y-11644484D02*
X13626920Y-11644484D01*
X13626920Y-11644484D02*
X13645967Y-11654007D01*
X13645967Y-11654007D02*
X13655491Y-11663531D01*
X13655491Y-11663531D02*
X13665015Y-11682579D01*
X13665015Y-11682579D02*
X13674539Y-11720674D01*
X13674539Y-11720674D02*
X13674539Y-11768293D01*
X13674539Y-11768293D02*
X13665015Y-11806388D01*
X13665015Y-11806388D02*
X13655491Y-11825436D01*
X13655491Y-11825436D02*
X13645967Y-11834960D01*
X13645967Y-11834960D02*
X13626920Y-11844484D01*
X13626920Y-11844484D02*
X13607872Y-11844484D01*
X13607872Y-11844484D02*
X13588824Y-11834960D01*
X13588824Y-11834960D02*
X13579301Y-11825436D01*
X13579301Y-11825436D02*
X13569777Y-11806388D01*
X13569777Y-11806388D02*
X13560253Y-11768293D01*
X13560253Y-11768293D02*
X13560253Y-11720674D01*
X13560253Y-11720674D02*
X13569777Y-11682579D01*
X13569777Y-11682579D02*
X13579301Y-11663531D01*
X13579301Y-11663531D02*
X13588824Y-11654007D01*
X13588824Y-11654007D02*
X13607872Y-11644484D01*
X13760253Y-11825436D02*
X13769777Y-11834960D01*
X13769777Y-11834960D02*
X13760253Y-11844484D01*
X13760253Y-11844484D02*
X13750729Y-11834960D01*
X13750729Y-11834960D02*
X13760253Y-11825436D01*
X13760253Y-11825436D02*
X13760253Y-11844484D01*
X13836443Y-11644484D02*
X13969777Y-11644484D01*
X13969777Y-11644484D02*
X13884062Y-11844484D01*
X14131682Y-11711150D02*
X14131682Y-11844484D01*
X14084062Y-11634960D02*
X14036443Y-11777817D01*
X14036443Y-11777817D02*
X14160253Y-11777817D01*
X14274539Y-11644484D02*
X14293586Y-11644484D01*
X14293586Y-11644484D02*
X14312634Y-11654007D01*
X14312634Y-11654007D02*
X14322158Y-11663531D01*
X14322158Y-11663531D02*
X14331682Y-11682579D01*
X14331682Y-11682579D02*
X14341205Y-11720674D01*
X14341205Y-11720674D02*
X14341205Y-11768293D01*
X14341205Y-11768293D02*
X14331682Y-11806388D01*
X14331682Y-11806388D02*
X14322158Y-11825436D01*
X14322158Y-11825436D02*
X14312634Y-11834960D01*
X14312634Y-11834960D02*
X14293586Y-11844484D01*
X14293586Y-11844484D02*
X14274539Y-11844484D01*
X14274539Y-11844484D02*
X14255491Y-11834960D01*
X14255491Y-11834960D02*
X14245967Y-11825436D01*
X14245967Y-11825436D02*
X14236443Y-11806388D01*
X14236443Y-11806388D02*
X14226920Y-11768293D01*
X14226920Y-11768293D02*
X14226920Y-11720674D01*
X14226920Y-11720674D02*
X14236443Y-11682579D01*
X14236443Y-11682579D02*
X14245967Y-11663531D01*
X14245967Y-11663531D02*
X14255491Y-11654007D01*
X14255491Y-11654007D02*
X14274539Y-11644484D01*
X14426920Y-11844484D02*
X14426920Y-11711150D01*
X14426920Y-11730198D02*
X14436443Y-11720674D01*
X14436443Y-11720674D02*
X14455491Y-11711150D01*
X14455491Y-11711150D02*
X14484063Y-11711150D01*
X14484063Y-11711150D02*
X14503110Y-11720674D01*
X14503110Y-11720674D02*
X14512634Y-11739722D01*
X14512634Y-11739722D02*
X14512634Y-11844484D01*
X14512634Y-11739722D02*
X14522158Y-11720674D01*
X14522158Y-11720674D02*
X14541205Y-11711150D01*
X14541205Y-11711150D02*
X14569777Y-11711150D01*
X14569777Y-11711150D02*
X14588824Y-11720674D01*
X14588824Y-11720674D02*
X14598348Y-11739722D01*
X14598348Y-11739722D02*
X14598348Y-11844484D01*
X14693586Y-11844484D02*
X14693586Y-11711150D01*
X14693586Y-11730198D02*
X14703110Y-11720674D01*
X14703110Y-11720674D02*
X14722158Y-11711150D01*
X14722158Y-11711150D02*
X14750729Y-11711150D01*
X14750729Y-11711150D02*
X14769777Y-11720674D01*
X14769777Y-11720674D02*
X14779301Y-11739722D01*
X14779301Y-11739722D02*
X14779301Y-11844484D01*
X14779301Y-11739722D02*
X14788824Y-11720674D01*
X14788824Y-11720674D02*
X14807872Y-11711150D01*
X14807872Y-11711150D02*
X14836443Y-11711150D01*
X14836443Y-11711150D02*
X14855491Y-11720674D01*
X14855491Y-11720674D02*
X14865015Y-11739722D01*
X14865015Y-11739722D02*
X14865015Y-11844484D01*
X15255491Y-11634960D02*
X15084063Y-11892103D01*
X15512634Y-11644484D02*
X15531682Y-11644484D01*
X15531682Y-11644484D02*
X15550729Y-11654007D01*
X15550729Y-11654007D02*
X15560253Y-11663531D01*
X15560253Y-11663531D02*
X15569777Y-11682579D01*
X15569777Y-11682579D02*
X15579301Y-11720674D01*
X15579301Y-11720674D02*
X15579301Y-11768293D01*
X15579301Y-11768293D02*
X15569777Y-11806388D01*
X15569777Y-11806388D02*
X15560253Y-11825436D01*
X15560253Y-11825436D02*
X15550729Y-11834960D01*
X15550729Y-11834960D02*
X15531682Y-11844484D01*
X15531682Y-11844484D02*
X15512634Y-11844484D01*
X15512634Y-11844484D02*
X15493586Y-11834960D01*
X15493586Y-11834960D02*
X15484063Y-11825436D01*
X15484063Y-11825436D02*
X15474539Y-11806388D01*
X15474539Y-11806388D02*
X15465015Y-11768293D01*
X15465015Y-11768293D02*
X15465015Y-11720674D01*
X15465015Y-11720674D02*
X15474539Y-11682579D01*
X15474539Y-11682579D02*
X15484063Y-11663531D01*
X15484063Y-11663531D02*
X15493586Y-11654007D01*
X15493586Y-11654007D02*
X15512634Y-11644484D01*
X15665015Y-11825436D02*
X15674539Y-11834960D01*
X15674539Y-11834960D02*
X15665015Y-11844484D01*
X15665015Y-11844484D02*
X15655491Y-11834960D01*
X15655491Y-11834960D02*
X15665015Y-11825436D01*
X15665015Y-11825436D02*
X15665015Y-11844484D01*
X15798348Y-11644484D02*
X15817396Y-11644484D01*
X15817396Y-11644484D02*
X15836444Y-11654007D01*
X15836444Y-11654007D02*
X15845967Y-11663531D01*
X15845967Y-11663531D02*
X15855491Y-11682579D01*
X15855491Y-11682579D02*
X15865015Y-11720674D01*
X15865015Y-11720674D02*
X15865015Y-11768293D01*
X15865015Y-11768293D02*
X15855491Y-11806388D01*
X15855491Y-11806388D02*
X15845967Y-11825436D01*
X15845967Y-11825436D02*
X15836444Y-11834960D01*
X15836444Y-11834960D02*
X15817396Y-11844484D01*
X15817396Y-11844484D02*
X15798348Y-11844484D01*
X15798348Y-11844484D02*
X15779301Y-11834960D01*
X15779301Y-11834960D02*
X15769777Y-11825436D01*
X15769777Y-11825436D02*
X15760253Y-11806388D01*
X15760253Y-11806388D02*
X15750729Y-11768293D01*
X15750729Y-11768293D02*
X15750729Y-11720674D01*
X15750729Y-11720674D02*
X15760253Y-11682579D01*
X15760253Y-11682579D02*
X15769777Y-11663531D01*
X15769777Y-11663531D02*
X15779301Y-11654007D01*
X15779301Y-11654007D02*
X15798348Y-11644484D01*
X15941206Y-11663531D02*
X15950729Y-11654007D01*
X15950729Y-11654007D02*
X15969777Y-11644484D01*
X15969777Y-11644484D02*
X16017396Y-11644484D01*
X16017396Y-11644484D02*
X16036444Y-11654007D01*
X16036444Y-11654007D02*
X16045967Y-11663531D01*
X16045967Y-11663531D02*
X16055491Y-11682579D01*
X16055491Y-11682579D02*
X16055491Y-11701626D01*
X16055491Y-11701626D02*
X16045967Y-11730198D01*
X16045967Y-11730198D02*
X15931682Y-11844484D01*
X15931682Y-11844484D02*
X16055491Y-11844484D01*
X16150729Y-11844484D02*
X16188825Y-11844484D01*
X16188825Y-11844484D02*
X16207872Y-11834960D01*
X16207872Y-11834960D02*
X16217396Y-11825436D01*
X16217396Y-11825436D02*
X16236444Y-11796865D01*
X16236444Y-11796865D02*
X16245967Y-11758769D01*
X16245967Y-11758769D02*
X16245967Y-11682579D01*
X16245967Y-11682579D02*
X16236444Y-11663531D01*
X16236444Y-11663531D02*
X16226920Y-11654007D01*
X16226920Y-11654007D02*
X16207872Y-11644484D01*
X16207872Y-11644484D02*
X16169777Y-11644484D01*
X16169777Y-11644484D02*
X16150729Y-11654007D01*
X16150729Y-11654007D02*
X16141206Y-11663531D01*
X16141206Y-11663531D02*
X16131682Y-11682579D01*
X16131682Y-11682579D02*
X16131682Y-11730198D01*
X16131682Y-11730198D02*
X16141206Y-11749246D01*
X16141206Y-11749246D02*
X16150729Y-11758769D01*
X16150729Y-11758769D02*
X16169777Y-11768293D01*
X16169777Y-11768293D02*
X16207872Y-11768293D01*
X16207872Y-11768293D02*
X16226920Y-11758769D01*
X16226920Y-11758769D02*
X16236444Y-11749246D01*
X16236444Y-11749246D02*
X16245967Y-11730198D01*
X16436444Y-11844484D02*
X16322158Y-11844484D01*
X16379301Y-11844484D02*
X16379301Y-11644484D01*
X16379301Y-11644484D02*
X16360253Y-11673055D01*
X16360253Y-11673055D02*
X16341206Y-11692103D01*
X16341206Y-11692103D02*
X16322158Y-11701626D01*
X16512634Y-11644484D02*
X16512634Y-11682579D01*
X16588825Y-11644484D02*
X16588825Y-11682579D01*
X16884063Y-11920674D02*
X16874539Y-11911150D01*
X16874539Y-11911150D02*
X16855491Y-11882579D01*
X16855491Y-11882579D02*
X16845968Y-11863531D01*
X16845968Y-11863531D02*
X16836444Y-11834960D01*
X16836444Y-11834960D02*
X16826920Y-11787341D01*
X16826920Y-11787341D02*
X16826920Y-11749246D01*
X16826920Y-11749246D02*
X16836444Y-11701626D01*
X16836444Y-11701626D02*
X16845968Y-11673055D01*
X16845968Y-11673055D02*
X16855491Y-11654007D01*
X16855491Y-11654007D02*
X16874539Y-11625436D01*
X16874539Y-11625436D02*
X16884063Y-11615912D01*
X16941206Y-11644484D02*
X17065015Y-11644484D01*
X17065015Y-11644484D02*
X16998349Y-11720674D01*
X16998349Y-11720674D02*
X17026920Y-11720674D01*
X17026920Y-11720674D02*
X17045968Y-11730198D01*
X17045968Y-11730198D02*
X17055491Y-11739722D01*
X17055491Y-11739722D02*
X17065015Y-11758769D01*
X17065015Y-11758769D02*
X17065015Y-11806388D01*
X17065015Y-11806388D02*
X17055491Y-11825436D01*
X17055491Y-11825436D02*
X17045968Y-11834960D01*
X17045968Y-11834960D02*
X17026920Y-11844484D01*
X17026920Y-11844484D02*
X16969777Y-11844484D01*
X16969777Y-11844484D02*
X16950730Y-11834960D01*
X16950730Y-11834960D02*
X16941206Y-11825436D01*
X17303111Y-11844484D02*
X17303111Y-11644484D01*
X17388825Y-11844484D02*
X17388825Y-11739722D01*
X17388825Y-11739722D02*
X17379301Y-11720674D01*
X17379301Y-11720674D02*
X17360253Y-11711150D01*
X17360253Y-11711150D02*
X17331682Y-11711150D01*
X17331682Y-11711150D02*
X17312634Y-11720674D01*
X17312634Y-11720674D02*
X17303111Y-11730198D01*
X17512634Y-11844484D02*
X17493587Y-11834960D01*
X17493587Y-11834960D02*
X17484063Y-11825436D01*
X17484063Y-11825436D02*
X17474539Y-11806388D01*
X17474539Y-11806388D02*
X17474539Y-11749246D01*
X17474539Y-11749246D02*
X17484063Y-11730198D01*
X17484063Y-11730198D02*
X17493587Y-11720674D01*
X17493587Y-11720674D02*
X17512634Y-11711150D01*
X17512634Y-11711150D02*
X17541206Y-11711150D01*
X17541206Y-11711150D02*
X17560253Y-11720674D01*
X17560253Y-11720674D02*
X17569777Y-11730198D01*
X17569777Y-11730198D02*
X17579301Y-11749246D01*
X17579301Y-11749246D02*
X17579301Y-11806388D01*
X17579301Y-11806388D02*
X17569777Y-11825436D01*
X17569777Y-11825436D02*
X17560253Y-11834960D01*
X17560253Y-11834960D02*
X17541206Y-11844484D01*
X17541206Y-11844484D02*
X17512634Y-11844484D01*
X17693587Y-11844484D02*
X17674539Y-11834960D01*
X17674539Y-11834960D02*
X17665015Y-11815912D01*
X17665015Y-11815912D02*
X17665015Y-11644484D01*
X17845968Y-11834960D02*
X17826920Y-11844484D01*
X17826920Y-11844484D02*
X17788825Y-11844484D01*
X17788825Y-11844484D02*
X17769777Y-11834960D01*
X17769777Y-11834960D02*
X17760253Y-11815912D01*
X17760253Y-11815912D02*
X17760253Y-11739722D01*
X17760253Y-11739722D02*
X17769777Y-11720674D01*
X17769777Y-11720674D02*
X17788825Y-11711150D01*
X17788825Y-11711150D02*
X17826920Y-11711150D01*
X17826920Y-11711150D02*
X17845968Y-11720674D01*
X17845968Y-11720674D02*
X17855492Y-11739722D01*
X17855492Y-11739722D02*
X17855492Y-11758769D01*
X17855492Y-11758769D02*
X17760253Y-11777817D01*
X17931682Y-11834960D02*
X17950730Y-11844484D01*
X17950730Y-11844484D02*
X17988825Y-11844484D01*
X17988825Y-11844484D02*
X18007873Y-11834960D01*
X18007873Y-11834960D02*
X18017396Y-11815912D01*
X18017396Y-11815912D02*
X18017396Y-11806388D01*
X18017396Y-11806388D02*
X18007873Y-11787341D01*
X18007873Y-11787341D02*
X17988825Y-11777817D01*
X17988825Y-11777817D02*
X17960253Y-11777817D01*
X17960253Y-11777817D02*
X17941206Y-11768293D01*
X17941206Y-11768293D02*
X17931682Y-11749246D01*
X17931682Y-11749246D02*
X17931682Y-11739722D01*
X17931682Y-11739722D02*
X17941206Y-11720674D01*
X17941206Y-11720674D02*
X17960253Y-11711150D01*
X17960253Y-11711150D02*
X17988825Y-11711150D01*
X17988825Y-11711150D02*
X18007873Y-11720674D01*
X18084063Y-11920674D02*
X18093587Y-11911150D01*
X18093587Y-11911150D02*
X18112634Y-11882579D01*
X18112634Y-11882579D02*
X18122158Y-11863531D01*
X18122158Y-11863531D02*
X18131682Y-11834960D01*
X18131682Y-11834960D02*
X18141206Y-11787341D01*
X18141206Y-11787341D02*
X18141206Y-11749246D01*
X18141206Y-11749246D02*
X18131682Y-11701626D01*
X18131682Y-11701626D02*
X18122158Y-11673055D01*
X18122158Y-11673055D02*
X18112634Y-11654007D01*
X18112634Y-11654007D02*
X18093587Y-11625436D01*
X18093587Y-11625436D02*
X18084063Y-11615912D01*
D10*
X13294356Y-12052356D02*
X13294356Y-11981644D01*
X13223644Y-11981644D01*
X13223644Y-12052356D01*
X13294356Y-12052356D01*
D11*
X13674539Y-12108484D02*
X13560253Y-12108484D01*
X13617396Y-12108484D02*
X13617396Y-11908484D01*
X13617396Y-11908484D02*
X13598348Y-11937055D01*
X13598348Y-11937055D02*
X13579301Y-11956103D01*
X13579301Y-11956103D02*
X13560253Y-11965626D01*
X13760253Y-12089436D02*
X13769777Y-12098960D01*
X13769777Y-12098960D02*
X13760253Y-12108484D01*
X13760253Y-12108484D02*
X13750729Y-12098960D01*
X13750729Y-12098960D02*
X13760253Y-12089436D01*
X13760253Y-12089436D02*
X13760253Y-12108484D01*
X13893586Y-11908484D02*
X13912634Y-11908484D01*
X13912634Y-11908484D02*
X13931682Y-11918007D01*
X13931682Y-11918007D02*
X13941205Y-11927531D01*
X13941205Y-11927531D02*
X13950729Y-11946579D01*
X13950729Y-11946579D02*
X13960253Y-11984674D01*
X13960253Y-11984674D02*
X13960253Y-12032293D01*
X13960253Y-12032293D02*
X13950729Y-12070388D01*
X13950729Y-12070388D02*
X13941205Y-12089436D01*
X13941205Y-12089436D02*
X13931682Y-12098960D01*
X13931682Y-12098960D02*
X13912634Y-12108484D01*
X13912634Y-12108484D02*
X13893586Y-12108484D01*
X13893586Y-12108484D02*
X13874539Y-12098960D01*
X13874539Y-12098960D02*
X13865015Y-12089436D01*
X13865015Y-12089436D02*
X13855491Y-12070388D01*
X13855491Y-12070388D02*
X13845967Y-12032293D01*
X13845967Y-12032293D02*
X13845967Y-11984674D01*
X13845967Y-11984674D02*
X13855491Y-11946579D01*
X13855491Y-11946579D02*
X13865015Y-11927531D01*
X13865015Y-11927531D02*
X13874539Y-11918007D01*
X13874539Y-11918007D02*
X13893586Y-11908484D01*
X14084062Y-11908484D02*
X14103110Y-11908484D01*
X14103110Y-11908484D02*
X14122158Y-11918007D01*
X14122158Y-11918007D02*
X14131682Y-11927531D01*
X14131682Y-11927531D02*
X14141205Y-11946579D01*
X14141205Y-11946579D02*
X14150729Y-11984674D01*
X14150729Y-11984674D02*
X14150729Y-12032293D01*
X14150729Y-12032293D02*
X14141205Y-12070388D01*
X14141205Y-12070388D02*
X14131682Y-12089436D01*
X14131682Y-12089436D02*
X14122158Y-12098960D01*
X14122158Y-12098960D02*
X14103110Y-12108484D01*
X14103110Y-12108484D02*
X14084062Y-12108484D01*
X14084062Y-12108484D02*
X14065015Y-12098960D01*
X14065015Y-12098960D02*
X14055491Y-12089436D01*
X14055491Y-12089436D02*
X14045967Y-12070388D01*
X14045967Y-12070388D02*
X14036443Y-12032293D01*
X14036443Y-12032293D02*
X14036443Y-11984674D01*
X14036443Y-11984674D02*
X14045967Y-11946579D01*
X14045967Y-11946579D02*
X14055491Y-11927531D01*
X14055491Y-11927531D02*
X14065015Y-11918007D01*
X14065015Y-11918007D02*
X14084062Y-11908484D01*
X14274539Y-11908484D02*
X14293586Y-11908484D01*
X14293586Y-11908484D02*
X14312634Y-11918007D01*
X14312634Y-11918007D02*
X14322158Y-11927531D01*
X14322158Y-11927531D02*
X14331682Y-11946579D01*
X14331682Y-11946579D02*
X14341205Y-11984674D01*
X14341205Y-11984674D02*
X14341205Y-12032293D01*
X14341205Y-12032293D02*
X14331682Y-12070388D01*
X14331682Y-12070388D02*
X14322158Y-12089436D01*
X14322158Y-12089436D02*
X14312634Y-12098960D01*
X14312634Y-12098960D02*
X14293586Y-12108484D01*
X14293586Y-12108484D02*
X14274539Y-12108484D01*
X14274539Y-12108484D02*
X14255491Y-12098960D01*
X14255491Y-12098960D02*
X14245967Y-12089436D01*
X14245967Y-12089436D02*
X14236443Y-12070388D01*
X14236443Y-12070388D02*
X14226920Y-12032293D01*
X14226920Y-12032293D02*
X14226920Y-11984674D01*
X14226920Y-11984674D02*
X14236443Y-11946579D01*
X14236443Y-11946579D02*
X14245967Y-11927531D01*
X14245967Y-11927531D02*
X14255491Y-11918007D01*
X14255491Y-11918007D02*
X14274539Y-11908484D01*
X14426920Y-12108484D02*
X14426920Y-11975150D01*
X14426920Y-11994198D02*
X14436443Y-11984674D01*
X14436443Y-11984674D02*
X14455491Y-11975150D01*
X14455491Y-11975150D02*
X14484063Y-11975150D01*
X14484063Y-11975150D02*
X14503110Y-11984674D01*
X14503110Y-11984674D02*
X14512634Y-12003722D01*
X14512634Y-12003722D02*
X14512634Y-12108484D01*
X14512634Y-12003722D02*
X14522158Y-11984674D01*
X14522158Y-11984674D02*
X14541205Y-11975150D01*
X14541205Y-11975150D02*
X14569777Y-11975150D01*
X14569777Y-11975150D02*
X14588824Y-11984674D01*
X14588824Y-11984674D02*
X14598348Y-12003722D01*
X14598348Y-12003722D02*
X14598348Y-12108484D01*
X14693586Y-12108484D02*
X14693586Y-11975150D01*
X14693586Y-11994198D02*
X14703110Y-11984674D01*
X14703110Y-11984674D02*
X14722158Y-11975150D01*
X14722158Y-11975150D02*
X14750729Y-11975150D01*
X14750729Y-11975150D02*
X14769777Y-11984674D01*
X14769777Y-11984674D02*
X14779301Y-12003722D01*
X14779301Y-12003722D02*
X14779301Y-12108484D01*
X14779301Y-12003722D02*
X14788824Y-11984674D01*
X14788824Y-11984674D02*
X14807872Y-11975150D01*
X14807872Y-11975150D02*
X14836443Y-11975150D01*
X14836443Y-11975150D02*
X14855491Y-11984674D01*
X14855491Y-11984674D02*
X14865015Y-12003722D01*
X14865015Y-12003722D02*
X14865015Y-12108484D01*
X15255491Y-11898960D02*
X15084063Y-12156103D01*
X15512634Y-11908484D02*
X15531682Y-11908484D01*
X15531682Y-11908484D02*
X15550729Y-11918007D01*
X15550729Y-11918007D02*
X15560253Y-11927531D01*
X15560253Y-11927531D02*
X15569777Y-11946579D01*
X15569777Y-11946579D02*
X15579301Y-11984674D01*
X15579301Y-11984674D02*
X15579301Y-12032293D01*
X15579301Y-12032293D02*
X15569777Y-12070388D01*
X15569777Y-12070388D02*
X15560253Y-12089436D01*
X15560253Y-12089436D02*
X15550729Y-12098960D01*
X15550729Y-12098960D02*
X15531682Y-12108484D01*
X15531682Y-12108484D02*
X15512634Y-12108484D01*
X15512634Y-12108484D02*
X15493586Y-12098960D01*
X15493586Y-12098960D02*
X15484063Y-12089436D01*
X15484063Y-12089436D02*
X15474539Y-12070388D01*
X15474539Y-12070388D02*
X15465015Y-12032293D01*
X15465015Y-12032293D02*
X15465015Y-11984674D01*
X15465015Y-11984674D02*
X15474539Y-11946579D01*
X15474539Y-11946579D02*
X15484063Y-11927531D01*
X15484063Y-11927531D02*
X15493586Y-11918007D01*
X15493586Y-11918007D02*
X15512634Y-11908484D01*
X15665015Y-12089436D02*
X15674539Y-12098960D01*
X15674539Y-12098960D02*
X15665015Y-12108484D01*
X15665015Y-12108484D02*
X15655491Y-12098960D01*
X15655491Y-12098960D02*
X15665015Y-12089436D01*
X15665015Y-12089436D02*
X15665015Y-12108484D01*
X15798348Y-11908484D02*
X15817396Y-11908484D01*
X15817396Y-11908484D02*
X15836444Y-11918007D01*
X15836444Y-11918007D02*
X15845967Y-11927531D01*
X15845967Y-11927531D02*
X15855491Y-11946579D01*
X15855491Y-11946579D02*
X15865015Y-11984674D01*
X15865015Y-11984674D02*
X15865015Y-12032293D01*
X15865015Y-12032293D02*
X15855491Y-12070388D01*
X15855491Y-12070388D02*
X15845967Y-12089436D01*
X15845967Y-12089436D02*
X15836444Y-12098960D01*
X15836444Y-12098960D02*
X15817396Y-12108484D01*
X15817396Y-12108484D02*
X15798348Y-12108484D01*
X15798348Y-12108484D02*
X15779301Y-12098960D01*
X15779301Y-12098960D02*
X15769777Y-12089436D01*
X15769777Y-12089436D02*
X15760253Y-12070388D01*
X15760253Y-12070388D02*
X15750729Y-12032293D01*
X15750729Y-12032293D02*
X15750729Y-11984674D01*
X15750729Y-11984674D02*
X15760253Y-11946579D01*
X15760253Y-11946579D02*
X15769777Y-11927531D01*
X15769777Y-11927531D02*
X15779301Y-11918007D01*
X15779301Y-11918007D02*
X15798348Y-11908484D01*
X15931682Y-11908484D02*
X16055491Y-11908484D01*
X16055491Y-11908484D02*
X15988825Y-11984674D01*
X15988825Y-11984674D02*
X16017396Y-11984674D01*
X16017396Y-11984674D02*
X16036444Y-11994198D01*
X16036444Y-11994198D02*
X16045967Y-12003722D01*
X16045967Y-12003722D02*
X16055491Y-12022769D01*
X16055491Y-12022769D02*
X16055491Y-12070388D01*
X16055491Y-12070388D02*
X16045967Y-12089436D01*
X16045967Y-12089436D02*
X16036444Y-12098960D01*
X16036444Y-12098960D02*
X16017396Y-12108484D01*
X16017396Y-12108484D02*
X15960253Y-12108484D01*
X15960253Y-12108484D02*
X15941206Y-12098960D01*
X15941206Y-12098960D02*
X15931682Y-12089436D01*
X16150729Y-12108484D02*
X16188825Y-12108484D01*
X16188825Y-12108484D02*
X16207872Y-12098960D01*
X16207872Y-12098960D02*
X16217396Y-12089436D01*
X16217396Y-12089436D02*
X16236444Y-12060865D01*
X16236444Y-12060865D02*
X16245967Y-12022769D01*
X16245967Y-12022769D02*
X16245967Y-11946579D01*
X16245967Y-11946579D02*
X16236444Y-11927531D01*
X16236444Y-11927531D02*
X16226920Y-11918007D01*
X16226920Y-11918007D02*
X16207872Y-11908484D01*
X16207872Y-11908484D02*
X16169777Y-11908484D01*
X16169777Y-11908484D02*
X16150729Y-11918007D01*
X16150729Y-11918007D02*
X16141206Y-11927531D01*
X16141206Y-11927531D02*
X16131682Y-11946579D01*
X16131682Y-11946579D02*
X16131682Y-11994198D01*
X16131682Y-11994198D02*
X16141206Y-12013246D01*
X16141206Y-12013246D02*
X16150729Y-12022769D01*
X16150729Y-12022769D02*
X16169777Y-12032293D01*
X16169777Y-12032293D02*
X16207872Y-12032293D01*
X16207872Y-12032293D02*
X16226920Y-12022769D01*
X16226920Y-12022769D02*
X16236444Y-12013246D01*
X16236444Y-12013246D02*
X16245967Y-11994198D01*
X16417396Y-11975150D02*
X16417396Y-12108484D01*
X16369777Y-11898960D02*
X16322158Y-12041817D01*
X16322158Y-12041817D02*
X16445967Y-12041817D01*
X16512634Y-11908484D02*
X16512634Y-11946579D01*
X16588825Y-11908484D02*
X16588825Y-11946579D01*
X16884063Y-12184674D02*
X16874539Y-12175150D01*
X16874539Y-12175150D02*
X16855491Y-12146579D01*
X16855491Y-12146579D02*
X16845968Y-12127531D01*
X16845968Y-12127531D02*
X16836444Y-12098960D01*
X16836444Y-12098960D02*
X16826920Y-12051341D01*
X16826920Y-12051341D02*
X16826920Y-12013246D01*
X16826920Y-12013246D02*
X16836444Y-11965626D01*
X16836444Y-11965626D02*
X16845968Y-11937055D01*
X16845968Y-11937055D02*
X16855491Y-11918007D01*
X16855491Y-11918007D02*
X16874539Y-11889436D01*
X16874539Y-11889436D02*
X16884063Y-11879912D01*
X17045968Y-11908484D02*
X17007872Y-11908484D01*
X17007872Y-11908484D02*
X16988825Y-11918007D01*
X16988825Y-11918007D02*
X16979301Y-11927531D01*
X16979301Y-11927531D02*
X16960253Y-11956103D01*
X16960253Y-11956103D02*
X16950730Y-11994198D01*
X16950730Y-11994198D02*
X16950730Y-12070388D01*
X16950730Y-12070388D02*
X16960253Y-12089436D01*
X16960253Y-12089436D02*
X16969777Y-12098960D01*
X16969777Y-12098960D02*
X16988825Y-12108484D01*
X16988825Y-12108484D02*
X17026920Y-12108484D01*
X17026920Y-12108484D02*
X17045968Y-12098960D01*
X17045968Y-12098960D02*
X17055491Y-12089436D01*
X17055491Y-12089436D02*
X17065015Y-12070388D01*
X17065015Y-12070388D02*
X17065015Y-12022769D01*
X17065015Y-12022769D02*
X17055491Y-12003722D01*
X17055491Y-12003722D02*
X17045968Y-11994198D01*
X17045968Y-11994198D02*
X17026920Y-11984674D01*
X17026920Y-11984674D02*
X16988825Y-11984674D01*
X16988825Y-11984674D02*
X16969777Y-11994198D01*
X16969777Y-11994198D02*
X16960253Y-12003722D01*
X16960253Y-12003722D02*
X16950730Y-12022769D01*
X17303111Y-12108484D02*
X17303111Y-11908484D01*
X17388825Y-12108484D02*
X17388825Y-12003722D01*
X17388825Y-12003722D02*
X17379301Y-11984674D01*
X17379301Y-11984674D02*
X17360253Y-11975150D01*
X17360253Y-11975150D02*
X17331682Y-11975150D01*
X17331682Y-11975150D02*
X17312634Y-11984674D01*
X17312634Y-11984674D02*
X17303111Y-11994198D01*
X17512634Y-12108484D02*
X17493587Y-12098960D01*
X17493587Y-12098960D02*
X17484063Y-12089436D01*
X17484063Y-12089436D02*
X17474539Y-12070388D01*
X17474539Y-12070388D02*
X17474539Y-12013246D01*
X17474539Y-12013246D02*
X17484063Y-11994198D01*
X17484063Y-11994198D02*
X17493587Y-11984674D01*
X17493587Y-11984674D02*
X17512634Y-11975150D01*
X17512634Y-11975150D02*
X17541206Y-11975150D01*
X17541206Y-11975150D02*
X17560253Y-11984674D01*
X17560253Y-11984674D02*
X17569777Y-11994198D01*
X17569777Y-11994198D02*
X17579301Y-12013246D01*
X17579301Y-12013246D02*
X17579301Y-12070388D01*
X17579301Y-12070388D02*
X17569777Y-12089436D01*
X17569777Y-12089436D02*
X17560253Y-12098960D01*
X17560253Y-12098960D02*
X17541206Y-12108484D01*
X17541206Y-12108484D02*
X17512634Y-12108484D01*
X17693587Y-12108484D02*
X17674539Y-12098960D01*
X17674539Y-12098960D02*
X17665015Y-12079912D01*
X17665015Y-12079912D02*
X17665015Y-11908484D01*
X17845968Y-12098960D02*
X17826920Y-12108484D01*
X17826920Y-12108484D02*
X17788825Y-12108484D01*
X17788825Y-12108484D02*
X17769777Y-12098960D01*
X17769777Y-12098960D02*
X17760253Y-12079912D01*
X17760253Y-12079912D02*
X17760253Y-12003722D01*
X17760253Y-12003722D02*
X17769777Y-11984674D01*
X17769777Y-11984674D02*
X17788825Y-11975150D01*
X17788825Y-11975150D02*
X17826920Y-11975150D01*
X17826920Y-11975150D02*
X17845968Y-11984674D01*
X17845968Y-11984674D02*
X17855492Y-12003722D01*
X17855492Y-12003722D02*
X17855492Y-12022769D01*
X17855492Y-12022769D02*
X17760253Y-12041817D01*
X17931682Y-12098960D02*
X17950730Y-12108484D01*
X17950730Y-12108484D02*
X17988825Y-12108484D01*
X17988825Y-12108484D02*
X18007873Y-12098960D01*
X18007873Y-12098960D02*
X18017396Y-12079912D01*
X18017396Y-12079912D02*
X18017396Y-12070388D01*
X18017396Y-12070388D02*
X18007873Y-12051341D01*
X18007873Y-12051341D02*
X17988825Y-12041817D01*
X17988825Y-12041817D02*
X17960253Y-12041817D01*
X17960253Y-12041817D02*
X17941206Y-12032293D01*
X17941206Y-12032293D02*
X17931682Y-12013246D01*
X17931682Y-12013246D02*
X17931682Y-12003722D01*
X17931682Y-12003722D02*
X17941206Y-11984674D01*
X17941206Y-11984674D02*
X17960253Y-11975150D01*
X17960253Y-11975150D02*
X17988825Y-11975150D01*
X17988825Y-11975150D02*
X18007873Y-11984674D01*
X18084063Y-12184674D02*
X18093587Y-12175150D01*
X18093587Y-12175150D02*
X18112634Y-12146579D01*
X18112634Y-12146579D02*
X18122158Y-12127531D01*
X18122158Y-12127531D02*
X18131682Y-12098960D01*
X18131682Y-12098960D02*
X18141206Y-12051341D01*
X18141206Y-12051341D02*
X18141206Y-12013246D01*
X18141206Y-12013246D02*
X18131682Y-11965626D01*
X18131682Y-11965626D02*
X18122158Y-11937055D01*
X18122158Y-11937055D02*
X18112634Y-11918007D01*
X18112634Y-11918007D02*
X18093587Y-11889436D01*
X18093587Y-11889436D02*
X18084063Y-11879912D01*
D12*
X13258000Y-12332000D02*
X13309000Y-12281000D01*
X13258000Y-12230000D01*
X13207000Y-12281000D01*
X13258000Y-12332000D01*
D11*
X13674539Y-12372484D02*
X13560253Y-12372484D01*
X13617396Y-12372484D02*
X13617396Y-12172484D01*
X13617396Y-12172484D02*
X13598348Y-12201055D01*
X13598348Y-12201055D02*
X13579301Y-12220103D01*
X13579301Y-12220103D02*
X13560253Y-12229626D01*
X13760253Y-12353436D02*
X13769777Y-12362960D01*
X13769777Y-12362960D02*
X13760253Y-12372484D01*
X13760253Y-12372484D02*
X13750729Y-12362960D01*
X13750729Y-12362960D02*
X13760253Y-12353436D01*
X13760253Y-12353436D02*
X13760253Y-12372484D01*
X13893586Y-12172484D02*
X13912634Y-12172484D01*
X13912634Y-12172484D02*
X13931682Y-12182007D01*
X13931682Y-12182007D02*
X13941205Y-12191531D01*
X13941205Y-12191531D02*
X13950729Y-12210579D01*
X13950729Y-12210579D02*
X13960253Y-12248674D01*
X13960253Y-12248674D02*
X13960253Y-12296293D01*
X13960253Y-12296293D02*
X13950729Y-12334388D01*
X13950729Y-12334388D02*
X13941205Y-12353436D01*
X13941205Y-12353436D02*
X13931682Y-12362960D01*
X13931682Y-12362960D02*
X13912634Y-12372484D01*
X13912634Y-12372484D02*
X13893586Y-12372484D01*
X13893586Y-12372484D02*
X13874539Y-12362960D01*
X13874539Y-12362960D02*
X13865015Y-12353436D01*
X13865015Y-12353436D02*
X13855491Y-12334388D01*
X13855491Y-12334388D02*
X13845967Y-12296293D01*
X13845967Y-12296293D02*
X13845967Y-12248674D01*
X13845967Y-12248674D02*
X13855491Y-12210579D01*
X13855491Y-12210579D02*
X13865015Y-12191531D01*
X13865015Y-12191531D02*
X13874539Y-12182007D01*
X13874539Y-12182007D02*
X13893586Y-12172484D01*
X14036443Y-12191531D02*
X14045967Y-12182007D01*
X14045967Y-12182007D02*
X14065015Y-12172484D01*
X14065015Y-12172484D02*
X14112634Y-12172484D01*
X14112634Y-12172484D02*
X14131682Y-12182007D01*
X14131682Y-12182007D02*
X14141205Y-12191531D01*
X14141205Y-12191531D02*
X14150729Y-12210579D01*
X14150729Y-12210579D02*
X14150729Y-12229626D01*
X14150729Y-12229626D02*
X14141205Y-12258198D01*
X14141205Y-12258198D02*
X14026920Y-12372484D01*
X14026920Y-12372484D02*
X14150729Y-12372484D01*
X14274539Y-12172484D02*
X14293586Y-12172484D01*
X14293586Y-12172484D02*
X14312634Y-12182007D01*
X14312634Y-12182007D02*
X14322158Y-12191531D01*
X14322158Y-12191531D02*
X14331682Y-12210579D01*
X14331682Y-12210579D02*
X14341205Y-12248674D01*
X14341205Y-12248674D02*
X14341205Y-12296293D01*
X14341205Y-12296293D02*
X14331682Y-12334388D01*
X14331682Y-12334388D02*
X14322158Y-12353436D01*
X14322158Y-12353436D02*
X14312634Y-12362960D01*
X14312634Y-12362960D02*
X14293586Y-12372484D01*
X14293586Y-12372484D02*
X14274539Y-12372484D01*
X14274539Y-12372484D02*
X14255491Y-12362960D01*
X14255491Y-12362960D02*
X14245967Y-12353436D01*
X14245967Y-12353436D02*
X14236443Y-12334388D01*
X14236443Y-12334388D02*
X14226920Y-12296293D01*
X14226920Y-12296293D02*
X14226920Y-12248674D01*
X14226920Y-12248674D02*
X14236443Y-12210579D01*
X14236443Y-12210579D02*
X14245967Y-12191531D01*
X14245967Y-12191531D02*
X14255491Y-12182007D01*
X14255491Y-12182007D02*
X14274539Y-12172484D01*
X14426920Y-12372484D02*
X14426920Y-12239150D01*
X14426920Y-12258198D02*
X14436443Y-12248674D01*
X14436443Y-12248674D02*
X14455491Y-12239150D01*
X14455491Y-12239150D02*
X14484063Y-12239150D01*
X14484063Y-12239150D02*
X14503110Y-12248674D01*
X14503110Y-12248674D02*
X14512634Y-12267722D01*
X14512634Y-12267722D02*
X14512634Y-12372484D01*
X14512634Y-12267722D02*
X14522158Y-12248674D01*
X14522158Y-12248674D02*
X14541205Y-12239150D01*
X14541205Y-12239150D02*
X14569777Y-12239150D01*
X14569777Y-12239150D02*
X14588824Y-12248674D01*
X14588824Y-12248674D02*
X14598348Y-12267722D01*
X14598348Y-12267722D02*
X14598348Y-12372484D01*
X14693586Y-12372484D02*
X14693586Y-12239150D01*
X14693586Y-12258198D02*
X14703110Y-12248674D01*
X14703110Y-12248674D02*
X14722158Y-12239150D01*
X14722158Y-12239150D02*
X14750729Y-12239150D01*
X14750729Y-12239150D02*
X14769777Y-12248674D01*
X14769777Y-12248674D02*
X14779301Y-12267722D01*
X14779301Y-12267722D02*
X14779301Y-12372484D01*
X14779301Y-12267722D02*
X14788824Y-12248674D01*
X14788824Y-12248674D02*
X14807872Y-12239150D01*
X14807872Y-12239150D02*
X14836443Y-12239150D01*
X14836443Y-12239150D02*
X14855491Y-12248674D01*
X14855491Y-12248674D02*
X14865015Y-12267722D01*
X14865015Y-12267722D02*
X14865015Y-12372484D01*
X15255491Y-12162960D02*
X15084063Y-12420103D01*
X15512634Y-12172484D02*
X15531682Y-12172484D01*
X15531682Y-12172484D02*
X15550729Y-12182007D01*
X15550729Y-12182007D02*
X15560253Y-12191531D01*
X15560253Y-12191531D02*
X15569777Y-12210579D01*
X15569777Y-12210579D02*
X15579301Y-12248674D01*
X15579301Y-12248674D02*
X15579301Y-12296293D01*
X15579301Y-12296293D02*
X15569777Y-12334388D01*
X15569777Y-12334388D02*
X15560253Y-12353436D01*
X15560253Y-12353436D02*
X15550729Y-12362960D01*
X15550729Y-12362960D02*
X15531682Y-12372484D01*
X15531682Y-12372484D02*
X15512634Y-12372484D01*
X15512634Y-12372484D02*
X15493586Y-12362960D01*
X15493586Y-12362960D02*
X15484063Y-12353436D01*
X15484063Y-12353436D02*
X15474539Y-12334388D01*
X15474539Y-12334388D02*
X15465015Y-12296293D01*
X15465015Y-12296293D02*
X15465015Y-12248674D01*
X15465015Y-12248674D02*
X15474539Y-12210579D01*
X15474539Y-12210579D02*
X15484063Y-12191531D01*
X15484063Y-12191531D02*
X15493586Y-12182007D01*
X15493586Y-12182007D02*
X15512634Y-12172484D01*
X15665015Y-12353436D02*
X15674539Y-12362960D01*
X15674539Y-12362960D02*
X15665015Y-12372484D01*
X15665015Y-12372484D02*
X15655491Y-12362960D01*
X15655491Y-12362960D02*
X15665015Y-12353436D01*
X15665015Y-12353436D02*
X15665015Y-12372484D01*
X15798348Y-12172484D02*
X15817396Y-12172484D01*
X15817396Y-12172484D02*
X15836444Y-12182007D01*
X15836444Y-12182007D02*
X15845967Y-12191531D01*
X15845967Y-12191531D02*
X15855491Y-12210579D01*
X15855491Y-12210579D02*
X15865015Y-12248674D01*
X15865015Y-12248674D02*
X15865015Y-12296293D01*
X15865015Y-12296293D02*
X15855491Y-12334388D01*
X15855491Y-12334388D02*
X15845967Y-12353436D01*
X15845967Y-12353436D02*
X15836444Y-12362960D01*
X15836444Y-12362960D02*
X15817396Y-12372484D01*
X15817396Y-12372484D02*
X15798348Y-12372484D01*
X15798348Y-12372484D02*
X15779301Y-12362960D01*
X15779301Y-12362960D02*
X15769777Y-12353436D01*
X15769777Y-12353436D02*
X15760253Y-12334388D01*
X15760253Y-12334388D02*
X15750729Y-12296293D01*
X15750729Y-12296293D02*
X15750729Y-12248674D01*
X15750729Y-12248674D02*
X15760253Y-12210579D01*
X15760253Y-12210579D02*
X15769777Y-12191531D01*
X15769777Y-12191531D02*
X15779301Y-12182007D01*
X15779301Y-12182007D02*
X15798348Y-12172484D01*
X16036444Y-12239150D02*
X16036444Y-12372484D01*
X15988825Y-12162960D02*
X15941206Y-12305817D01*
X15941206Y-12305817D02*
X16065015Y-12305817D01*
X16179301Y-12172484D02*
X16198348Y-12172484D01*
X16198348Y-12172484D02*
X16217396Y-12182007D01*
X16217396Y-12182007D02*
X16226920Y-12191531D01*
X16226920Y-12191531D02*
X16236444Y-12210579D01*
X16236444Y-12210579D02*
X16245967Y-12248674D01*
X16245967Y-12248674D02*
X16245967Y-12296293D01*
X16245967Y-12296293D02*
X16236444Y-12334388D01*
X16236444Y-12334388D02*
X16226920Y-12353436D01*
X16226920Y-12353436D02*
X16217396Y-12362960D01*
X16217396Y-12362960D02*
X16198348Y-12372484D01*
X16198348Y-12372484D02*
X16179301Y-12372484D01*
X16179301Y-12372484D02*
X16160253Y-12362960D01*
X16160253Y-12362960D02*
X16150729Y-12353436D01*
X16150729Y-12353436D02*
X16141206Y-12334388D01*
X16141206Y-12334388D02*
X16131682Y-12296293D01*
X16131682Y-12296293D02*
X16131682Y-12248674D01*
X16131682Y-12248674D02*
X16141206Y-12210579D01*
X16141206Y-12210579D02*
X16150729Y-12191531D01*
X16150729Y-12191531D02*
X16160253Y-12182007D01*
X16160253Y-12182007D02*
X16179301Y-12172484D01*
X16322158Y-12191531D02*
X16331682Y-12182007D01*
X16331682Y-12182007D02*
X16350729Y-12172484D01*
X16350729Y-12172484D02*
X16398348Y-12172484D01*
X16398348Y-12172484D02*
X16417396Y-12182007D01*
X16417396Y-12182007D02*
X16426920Y-12191531D01*
X16426920Y-12191531D02*
X16436444Y-12210579D01*
X16436444Y-12210579D02*
X16436444Y-12229626D01*
X16436444Y-12229626D02*
X16426920Y-12258198D01*
X16426920Y-12258198D02*
X16312634Y-12372484D01*
X16312634Y-12372484D02*
X16436444Y-12372484D01*
X16512634Y-12172484D02*
X16512634Y-12210579D01*
X16588825Y-12172484D02*
X16588825Y-12210579D01*
X16884063Y-12448674D02*
X16874539Y-12439150D01*
X16874539Y-12439150D02*
X16855491Y-12410579D01*
X16855491Y-12410579D02*
X16845968Y-12391531D01*
X16845968Y-12391531D02*
X16836444Y-12362960D01*
X16836444Y-12362960D02*
X16826920Y-12315341D01*
X16826920Y-12315341D02*
X16826920Y-12277246D01*
X16826920Y-12277246D02*
X16836444Y-12229626D01*
X16836444Y-12229626D02*
X16845968Y-12201055D01*
X16845968Y-12201055D02*
X16855491Y-12182007D01*
X16855491Y-12182007D02*
X16874539Y-12153436D01*
X16874539Y-12153436D02*
X16884063Y-12143912D01*
X17045968Y-12239150D02*
X17045968Y-12372484D01*
X16998349Y-12162960D02*
X16950730Y-12305817D01*
X16950730Y-12305817D02*
X17074539Y-12305817D01*
X17303111Y-12372484D02*
X17303111Y-12172484D01*
X17388825Y-12372484D02*
X17388825Y-12267722D01*
X17388825Y-12267722D02*
X17379301Y-12248674D01*
X17379301Y-12248674D02*
X17360253Y-12239150D01*
X17360253Y-12239150D02*
X17331682Y-12239150D01*
X17331682Y-12239150D02*
X17312634Y-12248674D01*
X17312634Y-12248674D02*
X17303111Y-12258198D01*
X17512634Y-12372484D02*
X17493587Y-12362960D01*
X17493587Y-12362960D02*
X17484063Y-12353436D01*
X17484063Y-12353436D02*
X17474539Y-12334388D01*
X17474539Y-12334388D02*
X17474539Y-12277246D01*
X17474539Y-12277246D02*
X17484063Y-12258198D01*
X17484063Y-12258198D02*
X17493587Y-12248674D01*
X17493587Y-12248674D02*
X17512634Y-12239150D01*
X17512634Y-12239150D02*
X17541206Y-12239150D01*
X17541206Y-12239150D02*
X17560253Y-12248674D01*
X17560253Y-12248674D02*
X17569777Y-12258198D01*
X17569777Y-12258198D02*
X17579301Y-12277246D01*
X17579301Y-12277246D02*
X17579301Y-12334388D01*
X17579301Y-12334388D02*
X17569777Y-12353436D01*
X17569777Y-12353436D02*
X17560253Y-12362960D01*
X17560253Y-12362960D02*
X17541206Y-12372484D01*
X17541206Y-12372484D02*
X17512634Y-12372484D01*
X17693587Y-12372484D02*
X17674539Y-12362960D01*
X17674539Y-12362960D02*
X17665015Y-12343912D01*
X17665015Y-12343912D02*
X17665015Y-12172484D01*
X17845968Y-12362960D02*
X17826920Y-12372484D01*
X17826920Y-12372484D02*
X17788825Y-12372484D01*
X17788825Y-12372484D02*
X17769777Y-12362960D01*
X17769777Y-12362960D02*
X17760253Y-12343912D01*
X17760253Y-12343912D02*
X17760253Y-12267722D01*
X17760253Y-12267722D02*
X17769777Y-12248674D01*
X17769777Y-12248674D02*
X17788825Y-12239150D01*
X17788825Y-12239150D02*
X17826920Y-12239150D01*
X17826920Y-12239150D02*
X17845968Y-12248674D01*
X17845968Y-12248674D02*
X17855492Y-12267722D01*
X17855492Y-12267722D02*
X17855492Y-12286769D01*
X17855492Y-12286769D02*
X17760253Y-12305817D01*
X17931682Y-12362960D02*
X17950730Y-12372484D01*
X17950730Y-12372484D02*
X17988825Y-12372484D01*
X17988825Y-12372484D02*
X18007873Y-12362960D01*
X18007873Y-12362960D02*
X18017396Y-12343912D01*
X18017396Y-12343912D02*
X18017396Y-12334388D01*
X18017396Y-12334388D02*
X18007873Y-12315341D01*
X18007873Y-12315341D02*
X17988825Y-12305817D01*
X17988825Y-12305817D02*
X17960253Y-12305817D01*
X17960253Y-12305817D02*
X17941206Y-12296293D01*
X17941206Y-12296293D02*
X17931682Y-12277246D01*
X17931682Y-12277246D02*
X17931682Y-12267722D01*
X17931682Y-12267722D02*
X17941206Y-12248674D01*
X17941206Y-12248674D02*
X17960253Y-12239150D01*
X17960253Y-12239150D02*
X17988825Y-12239150D01*
X17988825Y-12239150D02*
X18007873Y-12248674D01*
X18084063Y-12448674D02*
X18093587Y-12439150D01*
X18093587Y-12439150D02*
X18112634Y-12410579D01*
X18112634Y-12410579D02*
X18122158Y-12391531D01*
X18122158Y-12391531D02*
X18131682Y-12362960D01*
X18131682Y-12362960D02*
X18141206Y-12315341D01*
X18141206Y-12315341D02*
X18141206Y-12277246D01*
X18141206Y-12277246D02*
X18131682Y-12229626D01*
X18131682Y-12229626D02*
X18122158Y-12201055D01*
X18122158Y-12201055D02*
X18112634Y-12182007D01*
X18112634Y-12182007D02*
X18093587Y-12153436D01*
X18093587Y-12153436D02*
X18084063Y-12143912D01*
D13*
X13196700Y-12488850D02*
X13309000Y-12601150D01*
X13309000Y-12488850D02*
X13196700Y-12601150D01*
X13309000Y-12545000D02*
G75*
G02*
X13196700Y-12545000I-56150J0D01*
G01*
X13196700Y-12545000D02*
G75*
G02*
X13309000Y-12545000I56150J0D01*
G01*
D11*
X13674539Y-12636484D02*
X13560253Y-12636484D01*
X13617396Y-12636484D02*
X13617396Y-12436484D01*
X13617396Y-12436484D02*
X13598348Y-12465055D01*
X13598348Y-12465055D02*
X13579301Y-12484103D01*
X13579301Y-12484103D02*
X13560253Y-12493626D01*
X13760253Y-12617436D02*
X13769777Y-12626960D01*
X13769777Y-12626960D02*
X13760253Y-12636484D01*
X13760253Y-12636484D02*
X13750729Y-12626960D01*
X13750729Y-12626960D02*
X13760253Y-12617436D01*
X13760253Y-12617436D02*
X13760253Y-12636484D01*
X13960253Y-12636484D02*
X13845967Y-12636484D01*
X13903110Y-12636484D02*
X13903110Y-12436484D01*
X13903110Y-12436484D02*
X13884062Y-12465055D01*
X13884062Y-12465055D02*
X13865015Y-12484103D01*
X13865015Y-12484103D02*
X13845967Y-12493626D01*
X14036443Y-12455531D02*
X14045967Y-12446007D01*
X14045967Y-12446007D02*
X14065015Y-12436484D01*
X14065015Y-12436484D02*
X14112634Y-12436484D01*
X14112634Y-12436484D02*
X14131682Y-12446007D01*
X14131682Y-12446007D02*
X14141205Y-12455531D01*
X14141205Y-12455531D02*
X14150729Y-12474579D01*
X14150729Y-12474579D02*
X14150729Y-12493626D01*
X14150729Y-12493626D02*
X14141205Y-12522198D01*
X14141205Y-12522198D02*
X14026920Y-12636484D01*
X14026920Y-12636484D02*
X14150729Y-12636484D01*
X14217396Y-12436484D02*
X14341205Y-12436484D01*
X14341205Y-12436484D02*
X14274539Y-12512674D01*
X14274539Y-12512674D02*
X14303110Y-12512674D01*
X14303110Y-12512674D02*
X14322158Y-12522198D01*
X14322158Y-12522198D02*
X14331682Y-12531722D01*
X14331682Y-12531722D02*
X14341205Y-12550769D01*
X14341205Y-12550769D02*
X14341205Y-12598388D01*
X14341205Y-12598388D02*
X14331682Y-12617436D01*
X14331682Y-12617436D02*
X14322158Y-12626960D01*
X14322158Y-12626960D02*
X14303110Y-12636484D01*
X14303110Y-12636484D02*
X14245967Y-12636484D01*
X14245967Y-12636484D02*
X14226920Y-12626960D01*
X14226920Y-12626960D02*
X14217396Y-12617436D01*
X14426920Y-12636484D02*
X14426920Y-12503150D01*
X14426920Y-12522198D02*
X14436443Y-12512674D01*
X14436443Y-12512674D02*
X14455491Y-12503150D01*
X14455491Y-12503150D02*
X14484063Y-12503150D01*
X14484063Y-12503150D02*
X14503110Y-12512674D01*
X14503110Y-12512674D02*
X14512634Y-12531722D01*
X14512634Y-12531722D02*
X14512634Y-12636484D01*
X14512634Y-12531722D02*
X14522158Y-12512674D01*
X14522158Y-12512674D02*
X14541205Y-12503150D01*
X14541205Y-12503150D02*
X14569777Y-12503150D01*
X14569777Y-12503150D02*
X14588824Y-12512674D01*
X14588824Y-12512674D02*
X14598348Y-12531722D01*
X14598348Y-12531722D02*
X14598348Y-12636484D01*
X14693586Y-12636484D02*
X14693586Y-12503150D01*
X14693586Y-12522198D02*
X14703110Y-12512674D01*
X14703110Y-12512674D02*
X14722158Y-12503150D01*
X14722158Y-12503150D02*
X14750729Y-12503150D01*
X14750729Y-12503150D02*
X14769777Y-12512674D01*
X14769777Y-12512674D02*
X14779301Y-12531722D01*
X14779301Y-12531722D02*
X14779301Y-12636484D01*
X14779301Y-12531722D02*
X14788824Y-12512674D01*
X14788824Y-12512674D02*
X14807872Y-12503150D01*
X14807872Y-12503150D02*
X14836443Y-12503150D01*
X14836443Y-12503150D02*
X14855491Y-12512674D01*
X14855491Y-12512674D02*
X14865015Y-12531722D01*
X14865015Y-12531722D02*
X14865015Y-12636484D01*
X15255491Y-12426960D02*
X15084063Y-12684103D01*
X15512634Y-12436484D02*
X15531682Y-12436484D01*
X15531682Y-12436484D02*
X15550729Y-12446007D01*
X15550729Y-12446007D02*
X15560253Y-12455531D01*
X15560253Y-12455531D02*
X15569777Y-12474579D01*
X15569777Y-12474579D02*
X15579301Y-12512674D01*
X15579301Y-12512674D02*
X15579301Y-12560293D01*
X15579301Y-12560293D02*
X15569777Y-12598388D01*
X15569777Y-12598388D02*
X15560253Y-12617436D01*
X15560253Y-12617436D02*
X15550729Y-12626960D01*
X15550729Y-12626960D02*
X15531682Y-12636484D01*
X15531682Y-12636484D02*
X15512634Y-12636484D01*
X15512634Y-12636484D02*
X15493586Y-12626960D01*
X15493586Y-12626960D02*
X15484063Y-12617436D01*
X15484063Y-12617436D02*
X15474539Y-12598388D01*
X15474539Y-12598388D02*
X15465015Y-12560293D01*
X15465015Y-12560293D02*
X15465015Y-12512674D01*
X15465015Y-12512674D02*
X15474539Y-12474579D01*
X15474539Y-12474579D02*
X15484063Y-12455531D01*
X15484063Y-12455531D02*
X15493586Y-12446007D01*
X15493586Y-12446007D02*
X15512634Y-12436484D01*
X15665015Y-12617436D02*
X15674539Y-12626960D01*
X15674539Y-12626960D02*
X15665015Y-12636484D01*
X15665015Y-12636484D02*
X15655491Y-12626960D01*
X15655491Y-12626960D02*
X15665015Y-12617436D01*
X15665015Y-12617436D02*
X15665015Y-12636484D01*
X15798348Y-12436484D02*
X15817396Y-12436484D01*
X15817396Y-12436484D02*
X15836444Y-12446007D01*
X15836444Y-12446007D02*
X15845967Y-12455531D01*
X15845967Y-12455531D02*
X15855491Y-12474579D01*
X15855491Y-12474579D02*
X15865015Y-12512674D01*
X15865015Y-12512674D02*
X15865015Y-12560293D01*
X15865015Y-12560293D02*
X15855491Y-12598388D01*
X15855491Y-12598388D02*
X15845967Y-12617436D01*
X15845967Y-12617436D02*
X15836444Y-12626960D01*
X15836444Y-12626960D02*
X15817396Y-12636484D01*
X15817396Y-12636484D02*
X15798348Y-12636484D01*
X15798348Y-12636484D02*
X15779301Y-12626960D01*
X15779301Y-12626960D02*
X15769777Y-12617436D01*
X15769777Y-12617436D02*
X15760253Y-12598388D01*
X15760253Y-12598388D02*
X15750729Y-12560293D01*
X15750729Y-12560293D02*
X15750729Y-12512674D01*
X15750729Y-12512674D02*
X15760253Y-12474579D01*
X15760253Y-12474579D02*
X15769777Y-12455531D01*
X15769777Y-12455531D02*
X15779301Y-12446007D01*
X15779301Y-12446007D02*
X15798348Y-12436484D01*
X16036444Y-12503150D02*
X16036444Y-12636484D01*
X15988825Y-12426960D02*
X15941206Y-12569817D01*
X15941206Y-12569817D02*
X16065015Y-12569817D01*
X16226920Y-12503150D02*
X16226920Y-12636484D01*
X16179301Y-12426960D02*
X16131682Y-12569817D01*
X16131682Y-12569817D02*
X16255491Y-12569817D01*
X16322158Y-12455531D02*
X16331682Y-12446007D01*
X16331682Y-12446007D02*
X16350729Y-12436484D01*
X16350729Y-12436484D02*
X16398348Y-12436484D01*
X16398348Y-12436484D02*
X16417396Y-12446007D01*
X16417396Y-12446007D02*
X16426920Y-12455531D01*
X16426920Y-12455531D02*
X16436444Y-12474579D01*
X16436444Y-12474579D02*
X16436444Y-12493626D01*
X16436444Y-12493626D02*
X16426920Y-12522198D01*
X16426920Y-12522198D02*
X16312634Y-12636484D01*
X16312634Y-12636484D02*
X16436444Y-12636484D01*
X16512634Y-12436484D02*
X16512634Y-12474579D01*
X16588825Y-12436484D02*
X16588825Y-12474579D01*
X16884063Y-12712674D02*
X16874539Y-12703150D01*
X16874539Y-12703150D02*
X16855491Y-12674579D01*
X16855491Y-12674579D02*
X16845968Y-12655531D01*
X16845968Y-12655531D02*
X16836444Y-12626960D01*
X16836444Y-12626960D02*
X16826920Y-12579341D01*
X16826920Y-12579341D02*
X16826920Y-12541246D01*
X16826920Y-12541246D02*
X16836444Y-12493626D01*
X16836444Y-12493626D02*
X16845968Y-12465055D01*
X16845968Y-12465055D02*
X16855491Y-12446007D01*
X16855491Y-12446007D02*
X16874539Y-12417436D01*
X16874539Y-12417436D02*
X16884063Y-12407912D01*
X17045968Y-12503150D02*
X17045968Y-12636484D01*
X16998349Y-12426960D02*
X16950730Y-12569817D01*
X16950730Y-12569817D02*
X17074539Y-12569817D01*
X17303111Y-12636484D02*
X17303111Y-12436484D01*
X17388825Y-12636484D02*
X17388825Y-12531722D01*
X17388825Y-12531722D02*
X17379301Y-12512674D01*
X17379301Y-12512674D02*
X17360253Y-12503150D01*
X17360253Y-12503150D02*
X17331682Y-12503150D01*
X17331682Y-12503150D02*
X17312634Y-12512674D01*
X17312634Y-12512674D02*
X17303111Y-12522198D01*
X17512634Y-12636484D02*
X17493587Y-12626960D01*
X17493587Y-12626960D02*
X17484063Y-12617436D01*
X17484063Y-12617436D02*
X17474539Y-12598388D01*
X17474539Y-12598388D02*
X17474539Y-12541246D01*
X17474539Y-12541246D02*
X17484063Y-12522198D01*
X17484063Y-12522198D02*
X17493587Y-12512674D01*
X17493587Y-12512674D02*
X17512634Y-12503150D01*
X17512634Y-12503150D02*
X17541206Y-12503150D01*
X17541206Y-12503150D02*
X17560253Y-12512674D01*
X17560253Y-12512674D02*
X17569777Y-12522198D01*
X17569777Y-12522198D02*
X17579301Y-12541246D01*
X17579301Y-12541246D02*
X17579301Y-12598388D01*
X17579301Y-12598388D02*
X17569777Y-12617436D01*
X17569777Y-12617436D02*
X17560253Y-12626960D01*
X17560253Y-12626960D02*
X17541206Y-12636484D01*
X17541206Y-12636484D02*
X17512634Y-12636484D01*
X17693587Y-12636484D02*
X17674539Y-12626960D01*
X17674539Y-12626960D02*
X17665015Y-12607912D01*
X17665015Y-12607912D02*
X17665015Y-12436484D01*
X17845968Y-12626960D02*
X17826920Y-12636484D01*
X17826920Y-12636484D02*
X17788825Y-12636484D01*
X17788825Y-12636484D02*
X17769777Y-12626960D01*
X17769777Y-12626960D02*
X17760253Y-12607912D01*
X17760253Y-12607912D02*
X17760253Y-12531722D01*
X17760253Y-12531722D02*
X17769777Y-12512674D01*
X17769777Y-12512674D02*
X17788825Y-12503150D01*
X17788825Y-12503150D02*
X17826920Y-12503150D01*
X17826920Y-12503150D02*
X17845968Y-12512674D01*
X17845968Y-12512674D02*
X17855492Y-12531722D01*
X17855492Y-12531722D02*
X17855492Y-12550769D01*
X17855492Y-12550769D02*
X17760253Y-12569817D01*
X17931682Y-12626960D02*
X17950730Y-12636484D01*
X17950730Y-12636484D02*
X17988825Y-12636484D01*
X17988825Y-12636484D02*
X18007873Y-12626960D01*
X18007873Y-12626960D02*
X18017396Y-12607912D01*
X18017396Y-12607912D02*
X18017396Y-12598388D01*
X18017396Y-12598388D02*
X18007873Y-12579341D01*
X18007873Y-12579341D02*
X17988825Y-12569817D01*
X17988825Y-12569817D02*
X17960253Y-12569817D01*
X17960253Y-12569817D02*
X17941206Y-12560293D01*
X17941206Y-12560293D02*
X17931682Y-12541246D01*
X17931682Y-12541246D02*
X17931682Y-12531722D01*
X17931682Y-12531722D02*
X17941206Y-12512674D01*
X17941206Y-12512674D02*
X17960253Y-12503150D01*
X17960253Y-12503150D02*
X17988825Y-12503150D01*
X17988825Y-12503150D02*
X18007873Y-12512674D01*
X18084063Y-12712674D02*
X18093587Y-12703150D01*
X18093587Y-12703150D02*
X18112634Y-12674579D01*
X18112634Y-12674579D02*
X18122158Y-12655531D01*
X18122158Y-12655531D02*
X18131682Y-12626960D01*
X18131682Y-12626960D02*
X18141206Y-12579341D01*
X18141206Y-12579341D02*
X18141206Y-12541246D01*
X18141206Y-12541246D02*
X18131682Y-12493626D01*
X18131682Y-12493626D02*
X18122158Y-12465055D01*
X18122158Y-12465055D02*
X18112634Y-12446007D01*
X18112634Y-12446007D02*
X18093587Y-12417436D01*
X18093587Y-12417436D02*
X18084063Y-12407912D01*
D14*
X13179460Y-12744230D02*
X13309000Y-12873770D01*
X13309000Y-12744230D02*
X13179460Y-12873770D01*
X13244230Y-12744230D02*
X13244230Y-12873770D01*
X13179460Y-12809000D02*
X13309000Y-12809000D01*
D11*
X13674539Y-12900484D02*
X13560253Y-12900484D01*
X13617396Y-12900484D02*
X13617396Y-12700484D01*
X13617396Y-12700484D02*
X13598348Y-12729055D01*
X13598348Y-12729055D02*
X13579301Y-12748103D01*
X13579301Y-12748103D02*
X13560253Y-12757626D01*
X13760253Y-12881436D02*
X13769777Y-12890960D01*
X13769777Y-12890960D02*
X13760253Y-12900484D01*
X13760253Y-12900484D02*
X13750729Y-12890960D01*
X13750729Y-12890960D02*
X13760253Y-12881436D01*
X13760253Y-12881436D02*
X13760253Y-12900484D01*
X13845967Y-12719531D02*
X13855491Y-12710007D01*
X13855491Y-12710007D02*
X13874539Y-12700484D01*
X13874539Y-12700484D02*
X13922158Y-12700484D01*
X13922158Y-12700484D02*
X13941205Y-12710007D01*
X13941205Y-12710007D02*
X13950729Y-12719531D01*
X13950729Y-12719531D02*
X13960253Y-12738579D01*
X13960253Y-12738579D02*
X13960253Y-12757626D01*
X13960253Y-12757626D02*
X13950729Y-12786198D01*
X13950729Y-12786198D02*
X13836443Y-12900484D01*
X13836443Y-12900484D02*
X13960253Y-12900484D01*
X14055491Y-12900484D02*
X14093586Y-12900484D01*
X14093586Y-12900484D02*
X14112634Y-12890960D01*
X14112634Y-12890960D02*
X14122158Y-12881436D01*
X14122158Y-12881436D02*
X14141205Y-12852865D01*
X14141205Y-12852865D02*
X14150729Y-12814769D01*
X14150729Y-12814769D02*
X14150729Y-12738579D01*
X14150729Y-12738579D02*
X14141205Y-12719531D01*
X14141205Y-12719531D02*
X14131682Y-12710007D01*
X14131682Y-12710007D02*
X14112634Y-12700484D01*
X14112634Y-12700484D02*
X14074539Y-12700484D01*
X14074539Y-12700484D02*
X14055491Y-12710007D01*
X14055491Y-12710007D02*
X14045967Y-12719531D01*
X14045967Y-12719531D02*
X14036443Y-12738579D01*
X14036443Y-12738579D02*
X14036443Y-12786198D01*
X14036443Y-12786198D02*
X14045967Y-12805246D01*
X14045967Y-12805246D02*
X14055491Y-12814769D01*
X14055491Y-12814769D02*
X14074539Y-12824293D01*
X14074539Y-12824293D02*
X14112634Y-12824293D01*
X14112634Y-12824293D02*
X14131682Y-12814769D01*
X14131682Y-12814769D02*
X14141205Y-12805246D01*
X14141205Y-12805246D02*
X14150729Y-12786198D01*
X14331682Y-12700484D02*
X14236443Y-12700484D01*
X14236443Y-12700484D02*
X14226920Y-12795722D01*
X14226920Y-12795722D02*
X14236443Y-12786198D01*
X14236443Y-12786198D02*
X14255491Y-12776674D01*
X14255491Y-12776674D02*
X14303110Y-12776674D01*
X14303110Y-12776674D02*
X14322158Y-12786198D01*
X14322158Y-12786198D02*
X14331682Y-12795722D01*
X14331682Y-12795722D02*
X14341205Y-12814769D01*
X14341205Y-12814769D02*
X14341205Y-12862388D01*
X14341205Y-12862388D02*
X14331682Y-12881436D01*
X14331682Y-12881436D02*
X14322158Y-12890960D01*
X14322158Y-12890960D02*
X14303110Y-12900484D01*
X14303110Y-12900484D02*
X14255491Y-12900484D01*
X14255491Y-12900484D02*
X14236443Y-12890960D01*
X14236443Y-12890960D02*
X14226920Y-12881436D01*
X14426920Y-12900484D02*
X14426920Y-12767150D01*
X14426920Y-12786198D02*
X14436443Y-12776674D01*
X14436443Y-12776674D02*
X14455491Y-12767150D01*
X14455491Y-12767150D02*
X14484063Y-12767150D01*
X14484063Y-12767150D02*
X14503110Y-12776674D01*
X14503110Y-12776674D02*
X14512634Y-12795722D01*
X14512634Y-12795722D02*
X14512634Y-12900484D01*
X14512634Y-12795722D02*
X14522158Y-12776674D01*
X14522158Y-12776674D02*
X14541205Y-12767150D01*
X14541205Y-12767150D02*
X14569777Y-12767150D01*
X14569777Y-12767150D02*
X14588824Y-12776674D01*
X14588824Y-12776674D02*
X14598348Y-12795722D01*
X14598348Y-12795722D02*
X14598348Y-12900484D01*
X14693586Y-12900484D02*
X14693586Y-12767150D01*
X14693586Y-12786198D02*
X14703110Y-12776674D01*
X14703110Y-12776674D02*
X14722158Y-12767150D01*
X14722158Y-12767150D02*
X14750729Y-12767150D01*
X14750729Y-12767150D02*
X14769777Y-12776674D01*
X14769777Y-12776674D02*
X14779301Y-12795722D01*
X14779301Y-12795722D02*
X14779301Y-12900484D01*
X14779301Y-12795722D02*
X14788824Y-12776674D01*
X14788824Y-12776674D02*
X14807872Y-12767150D01*
X14807872Y-12767150D02*
X14836443Y-12767150D01*
X14836443Y-12767150D02*
X14855491Y-12776674D01*
X14855491Y-12776674D02*
X14865015Y-12795722D01*
X14865015Y-12795722D02*
X14865015Y-12900484D01*
X15255491Y-12690960D02*
X15084063Y-12948103D01*
X15512634Y-12700484D02*
X15531682Y-12700484D01*
X15531682Y-12700484D02*
X15550729Y-12710007D01*
X15550729Y-12710007D02*
X15560253Y-12719531D01*
X15560253Y-12719531D02*
X15569777Y-12738579D01*
X15569777Y-12738579D02*
X15579301Y-12776674D01*
X15579301Y-12776674D02*
X15579301Y-12824293D01*
X15579301Y-12824293D02*
X15569777Y-12862388D01*
X15569777Y-12862388D02*
X15560253Y-12881436D01*
X15560253Y-12881436D02*
X15550729Y-12890960D01*
X15550729Y-12890960D02*
X15531682Y-12900484D01*
X15531682Y-12900484D02*
X15512634Y-12900484D01*
X15512634Y-12900484D02*
X15493586Y-12890960D01*
X15493586Y-12890960D02*
X15484063Y-12881436D01*
X15484063Y-12881436D02*
X15474539Y-12862388D01*
X15474539Y-12862388D02*
X15465015Y-12824293D01*
X15465015Y-12824293D02*
X15465015Y-12776674D01*
X15465015Y-12776674D02*
X15474539Y-12738579D01*
X15474539Y-12738579D02*
X15484063Y-12719531D01*
X15484063Y-12719531D02*
X15493586Y-12710007D01*
X15493586Y-12710007D02*
X15512634Y-12700484D01*
X15665015Y-12881436D02*
X15674539Y-12890960D01*
X15674539Y-12890960D02*
X15665015Y-12900484D01*
X15665015Y-12900484D02*
X15655491Y-12890960D01*
X15655491Y-12890960D02*
X15665015Y-12881436D01*
X15665015Y-12881436D02*
X15665015Y-12900484D01*
X15798348Y-12700484D02*
X15817396Y-12700484D01*
X15817396Y-12700484D02*
X15836444Y-12710007D01*
X15836444Y-12710007D02*
X15845967Y-12719531D01*
X15845967Y-12719531D02*
X15855491Y-12738579D01*
X15855491Y-12738579D02*
X15865015Y-12776674D01*
X15865015Y-12776674D02*
X15865015Y-12824293D01*
X15865015Y-12824293D02*
X15855491Y-12862388D01*
X15855491Y-12862388D02*
X15845967Y-12881436D01*
X15845967Y-12881436D02*
X15836444Y-12890960D01*
X15836444Y-12890960D02*
X15817396Y-12900484D01*
X15817396Y-12900484D02*
X15798348Y-12900484D01*
X15798348Y-12900484D02*
X15779301Y-12890960D01*
X15779301Y-12890960D02*
X15769777Y-12881436D01*
X15769777Y-12881436D02*
X15760253Y-12862388D01*
X15760253Y-12862388D02*
X15750729Y-12824293D01*
X15750729Y-12824293D02*
X15750729Y-12776674D01*
X15750729Y-12776674D02*
X15760253Y-12738579D01*
X15760253Y-12738579D02*
X15769777Y-12719531D01*
X15769777Y-12719531D02*
X15779301Y-12710007D01*
X15779301Y-12710007D02*
X15798348Y-12700484D01*
X16045967Y-12700484D02*
X15950729Y-12700484D01*
X15950729Y-12700484D02*
X15941206Y-12795722D01*
X15941206Y-12795722D02*
X15950729Y-12786198D01*
X15950729Y-12786198D02*
X15969777Y-12776674D01*
X15969777Y-12776674D02*
X16017396Y-12776674D01*
X16017396Y-12776674D02*
X16036444Y-12786198D01*
X16036444Y-12786198D02*
X16045967Y-12795722D01*
X16045967Y-12795722D02*
X16055491Y-12814769D01*
X16055491Y-12814769D02*
X16055491Y-12862388D01*
X16055491Y-12862388D02*
X16045967Y-12881436D01*
X16045967Y-12881436D02*
X16036444Y-12890960D01*
X16036444Y-12890960D02*
X16017396Y-12900484D01*
X16017396Y-12900484D02*
X15969777Y-12900484D01*
X15969777Y-12900484D02*
X15950729Y-12890960D01*
X15950729Y-12890960D02*
X15941206Y-12881436D01*
X16245967Y-12900484D02*
X16131682Y-12900484D01*
X16188825Y-12900484D02*
X16188825Y-12700484D01*
X16188825Y-12700484D02*
X16169777Y-12729055D01*
X16169777Y-12729055D02*
X16150729Y-12748103D01*
X16150729Y-12748103D02*
X16131682Y-12757626D01*
X16369777Y-12700484D02*
X16388825Y-12700484D01*
X16388825Y-12700484D02*
X16407872Y-12710007D01*
X16407872Y-12710007D02*
X16417396Y-12719531D01*
X16417396Y-12719531D02*
X16426920Y-12738579D01*
X16426920Y-12738579D02*
X16436444Y-12776674D01*
X16436444Y-12776674D02*
X16436444Y-12824293D01*
X16436444Y-12824293D02*
X16426920Y-12862388D01*
X16426920Y-12862388D02*
X16417396Y-12881436D01*
X16417396Y-12881436D02*
X16407872Y-12890960D01*
X16407872Y-12890960D02*
X16388825Y-12900484D01*
X16388825Y-12900484D02*
X16369777Y-12900484D01*
X16369777Y-12900484D02*
X16350729Y-12890960D01*
X16350729Y-12890960D02*
X16341206Y-12881436D01*
X16341206Y-12881436D02*
X16331682Y-12862388D01*
X16331682Y-12862388D02*
X16322158Y-12824293D01*
X16322158Y-12824293D02*
X16322158Y-12776674D01*
X16322158Y-12776674D02*
X16331682Y-12738579D01*
X16331682Y-12738579D02*
X16341206Y-12719531D01*
X16341206Y-12719531D02*
X16350729Y-12710007D01*
X16350729Y-12710007D02*
X16369777Y-12700484D01*
X16512634Y-12700484D02*
X16512634Y-12738579D01*
X16588825Y-12700484D02*
X16588825Y-12738579D01*
X16884063Y-12976674D02*
X16874539Y-12967150D01*
X16874539Y-12967150D02*
X16855491Y-12938579D01*
X16855491Y-12938579D02*
X16845968Y-12919531D01*
X16845968Y-12919531D02*
X16836444Y-12890960D01*
X16836444Y-12890960D02*
X16826920Y-12843341D01*
X16826920Y-12843341D02*
X16826920Y-12805246D01*
X16826920Y-12805246D02*
X16836444Y-12757626D01*
X16836444Y-12757626D02*
X16845968Y-12729055D01*
X16845968Y-12729055D02*
X16855491Y-12710007D01*
X16855491Y-12710007D02*
X16874539Y-12681436D01*
X16874539Y-12681436D02*
X16884063Y-12671912D01*
X16950730Y-12719531D02*
X16960253Y-12710007D01*
X16960253Y-12710007D02*
X16979301Y-12700484D01*
X16979301Y-12700484D02*
X17026920Y-12700484D01*
X17026920Y-12700484D02*
X17045968Y-12710007D01*
X17045968Y-12710007D02*
X17055491Y-12719531D01*
X17055491Y-12719531D02*
X17065015Y-12738579D01*
X17065015Y-12738579D02*
X17065015Y-12757626D01*
X17065015Y-12757626D02*
X17055491Y-12786198D01*
X17055491Y-12786198D02*
X16941206Y-12900484D01*
X16941206Y-12900484D02*
X17065015Y-12900484D01*
X17303111Y-12900484D02*
X17303111Y-12700484D01*
X17388825Y-12900484D02*
X17388825Y-12795722D01*
X17388825Y-12795722D02*
X17379301Y-12776674D01*
X17379301Y-12776674D02*
X17360253Y-12767150D01*
X17360253Y-12767150D02*
X17331682Y-12767150D01*
X17331682Y-12767150D02*
X17312634Y-12776674D01*
X17312634Y-12776674D02*
X17303111Y-12786198D01*
X17512634Y-12900484D02*
X17493587Y-12890960D01*
X17493587Y-12890960D02*
X17484063Y-12881436D01*
X17484063Y-12881436D02*
X17474539Y-12862388D01*
X17474539Y-12862388D02*
X17474539Y-12805246D01*
X17474539Y-12805246D02*
X17484063Y-12786198D01*
X17484063Y-12786198D02*
X17493587Y-12776674D01*
X17493587Y-12776674D02*
X17512634Y-12767150D01*
X17512634Y-12767150D02*
X17541206Y-12767150D01*
X17541206Y-12767150D02*
X17560253Y-12776674D01*
X17560253Y-12776674D02*
X17569777Y-12786198D01*
X17569777Y-12786198D02*
X17579301Y-12805246D01*
X17579301Y-12805246D02*
X17579301Y-12862388D01*
X17579301Y-12862388D02*
X17569777Y-12881436D01*
X17569777Y-12881436D02*
X17560253Y-12890960D01*
X17560253Y-12890960D02*
X17541206Y-12900484D01*
X17541206Y-12900484D02*
X17512634Y-12900484D01*
X17693587Y-12900484D02*
X17674539Y-12890960D01*
X17674539Y-12890960D02*
X17665015Y-12871912D01*
X17665015Y-12871912D02*
X17665015Y-12700484D01*
X17845968Y-12890960D02*
X17826920Y-12900484D01*
X17826920Y-12900484D02*
X17788825Y-12900484D01*
X17788825Y-12900484D02*
X17769777Y-12890960D01*
X17769777Y-12890960D02*
X17760253Y-12871912D01*
X17760253Y-12871912D02*
X17760253Y-12795722D01*
X17760253Y-12795722D02*
X17769777Y-12776674D01*
X17769777Y-12776674D02*
X17788825Y-12767150D01*
X17788825Y-12767150D02*
X17826920Y-12767150D01*
X17826920Y-12767150D02*
X17845968Y-12776674D01*
X17845968Y-12776674D02*
X17855492Y-12795722D01*
X17855492Y-12795722D02*
X17855492Y-12814769D01*
X17855492Y-12814769D02*
X17760253Y-12833817D01*
X17931682Y-12890960D02*
X17950730Y-12900484D01*
X17950730Y-12900484D02*
X17988825Y-12900484D01*
X17988825Y-12900484D02*
X18007873Y-12890960D01*
X18007873Y-12890960D02*
X18017396Y-12871912D01*
X18017396Y-12871912D02*
X18017396Y-12862388D01*
X18017396Y-12862388D02*
X18007873Y-12843341D01*
X18007873Y-12843341D02*
X17988825Y-12833817D01*
X17988825Y-12833817D02*
X17960253Y-12833817D01*
X17960253Y-12833817D02*
X17941206Y-12824293D01*
X17941206Y-12824293D02*
X17931682Y-12805246D01*
X17931682Y-12805246D02*
X17931682Y-12795722D01*
X17931682Y-12795722D02*
X17941206Y-12776674D01*
X17941206Y-12776674D02*
X17960253Y-12767150D01*
X17960253Y-12767150D02*
X17988825Y-12767150D01*
X17988825Y-12767150D02*
X18007873Y-12776674D01*
X18084063Y-12976674D02*
X18093587Y-12967150D01*
X18093587Y-12967150D02*
X18112634Y-12938579D01*
X18112634Y-12938579D02*
X18122158Y-12919531D01*
X18122158Y-12919531D02*
X18131682Y-12890960D01*
X18131682Y-12890960D02*
X18141206Y-12843341D01*
X18141206Y-12843341D02*
X18141206Y-12805246D01*
X18141206Y-12805246D02*
X18131682Y-12757626D01*
X18131682Y-12757626D02*
X18122158Y-12729055D01*
X18122158Y-12729055D02*
X18112634Y-12710007D01*
X18112634Y-12710007D02*
X18093587Y-12681436D01*
X18093587Y-12681436D02*
X18084063Y-12671912D01*
D15*
X13151520Y-12994260D02*
X13309000Y-13151740D01*
X13309000Y-12994260D02*
X13151520Y-13151740D01*
X13285938Y-13128678D02*
X13285938Y-13017322D01*
X13174582Y-13017322D01*
X13174582Y-13128678D01*
X13285938Y-13128678D01*
D11*
X13674539Y-13164484D02*
X13560253Y-13164484D01*
X13617396Y-13164484D02*
X13617396Y-12964484D01*
X13617396Y-12964484D02*
X13598348Y-12993055D01*
X13598348Y-12993055D02*
X13579301Y-13012103D01*
X13579301Y-13012103D02*
X13560253Y-13021626D01*
X13760253Y-13145436D02*
X13769777Y-13154960D01*
X13769777Y-13154960D02*
X13760253Y-13164484D01*
X13760253Y-13164484D02*
X13750729Y-13154960D01*
X13750729Y-13154960D02*
X13760253Y-13145436D01*
X13760253Y-13145436D02*
X13760253Y-13164484D01*
X13950729Y-12964484D02*
X13855491Y-12964484D01*
X13855491Y-12964484D02*
X13845967Y-13059722D01*
X13845967Y-13059722D02*
X13855491Y-13050198D01*
X13855491Y-13050198D02*
X13874539Y-13040674D01*
X13874539Y-13040674D02*
X13922158Y-13040674D01*
X13922158Y-13040674D02*
X13941205Y-13050198D01*
X13941205Y-13050198D02*
X13950729Y-13059722D01*
X13950729Y-13059722D02*
X13960253Y-13078769D01*
X13960253Y-13078769D02*
X13960253Y-13126388D01*
X13960253Y-13126388D02*
X13950729Y-13145436D01*
X13950729Y-13145436D02*
X13941205Y-13154960D01*
X13941205Y-13154960D02*
X13922158Y-13164484D01*
X13922158Y-13164484D02*
X13874539Y-13164484D01*
X13874539Y-13164484D02*
X13855491Y-13154960D01*
X13855491Y-13154960D02*
X13845967Y-13145436D01*
X14026920Y-12964484D02*
X14160253Y-12964484D01*
X14160253Y-12964484D02*
X14074539Y-13164484D01*
X14331682Y-12964484D02*
X14236443Y-12964484D01*
X14236443Y-12964484D02*
X14226920Y-13059722D01*
X14226920Y-13059722D02*
X14236443Y-13050198D01*
X14236443Y-13050198D02*
X14255491Y-13040674D01*
X14255491Y-13040674D02*
X14303110Y-13040674D01*
X14303110Y-13040674D02*
X14322158Y-13050198D01*
X14322158Y-13050198D02*
X14331682Y-13059722D01*
X14331682Y-13059722D02*
X14341205Y-13078769D01*
X14341205Y-13078769D02*
X14341205Y-13126388D01*
X14341205Y-13126388D02*
X14331682Y-13145436D01*
X14331682Y-13145436D02*
X14322158Y-13154960D01*
X14322158Y-13154960D02*
X14303110Y-13164484D01*
X14303110Y-13164484D02*
X14255491Y-13164484D01*
X14255491Y-13164484D02*
X14236443Y-13154960D01*
X14236443Y-13154960D02*
X14226920Y-13145436D01*
X14426920Y-13164484D02*
X14426920Y-13031150D01*
X14426920Y-13050198D02*
X14436443Y-13040674D01*
X14436443Y-13040674D02*
X14455491Y-13031150D01*
X14455491Y-13031150D02*
X14484063Y-13031150D01*
X14484063Y-13031150D02*
X14503110Y-13040674D01*
X14503110Y-13040674D02*
X14512634Y-13059722D01*
X14512634Y-13059722D02*
X14512634Y-13164484D01*
X14512634Y-13059722D02*
X14522158Y-13040674D01*
X14522158Y-13040674D02*
X14541205Y-13031150D01*
X14541205Y-13031150D02*
X14569777Y-13031150D01*
X14569777Y-13031150D02*
X14588824Y-13040674D01*
X14588824Y-13040674D02*
X14598348Y-13059722D01*
X14598348Y-13059722D02*
X14598348Y-13164484D01*
X14693586Y-13164484D02*
X14693586Y-13031150D01*
X14693586Y-13050198D02*
X14703110Y-13040674D01*
X14703110Y-13040674D02*
X14722158Y-13031150D01*
X14722158Y-13031150D02*
X14750729Y-13031150D01*
X14750729Y-13031150D02*
X14769777Y-13040674D01*
X14769777Y-13040674D02*
X14779301Y-13059722D01*
X14779301Y-13059722D02*
X14779301Y-13164484D01*
X14779301Y-13059722D02*
X14788824Y-13040674D01*
X14788824Y-13040674D02*
X14807872Y-13031150D01*
X14807872Y-13031150D02*
X14836443Y-13031150D01*
X14836443Y-13031150D02*
X14855491Y-13040674D01*
X14855491Y-13040674D02*
X14865015Y-13059722D01*
X14865015Y-13059722D02*
X14865015Y-13164484D01*
X15255491Y-12954960D02*
X15084063Y-13212103D01*
X15512634Y-12964484D02*
X15531682Y-12964484D01*
X15531682Y-12964484D02*
X15550729Y-12974007D01*
X15550729Y-12974007D02*
X15560253Y-12983531D01*
X15560253Y-12983531D02*
X15569777Y-13002579D01*
X15569777Y-13002579D02*
X15579301Y-13040674D01*
X15579301Y-13040674D02*
X15579301Y-13088293D01*
X15579301Y-13088293D02*
X15569777Y-13126388D01*
X15569777Y-13126388D02*
X15560253Y-13145436D01*
X15560253Y-13145436D02*
X15550729Y-13154960D01*
X15550729Y-13154960D02*
X15531682Y-13164484D01*
X15531682Y-13164484D02*
X15512634Y-13164484D01*
X15512634Y-13164484D02*
X15493586Y-13154960D01*
X15493586Y-13154960D02*
X15484063Y-13145436D01*
X15484063Y-13145436D02*
X15474539Y-13126388D01*
X15474539Y-13126388D02*
X15465015Y-13088293D01*
X15465015Y-13088293D02*
X15465015Y-13040674D01*
X15465015Y-13040674D02*
X15474539Y-13002579D01*
X15474539Y-13002579D02*
X15484063Y-12983531D01*
X15484063Y-12983531D02*
X15493586Y-12974007D01*
X15493586Y-12974007D02*
X15512634Y-12964484D01*
X15665015Y-13145436D02*
X15674539Y-13154960D01*
X15674539Y-13154960D02*
X15665015Y-13164484D01*
X15665015Y-13164484D02*
X15655491Y-13154960D01*
X15655491Y-13154960D02*
X15665015Y-13145436D01*
X15665015Y-13145436D02*
X15665015Y-13164484D01*
X15798348Y-12964484D02*
X15817396Y-12964484D01*
X15817396Y-12964484D02*
X15836444Y-12974007D01*
X15836444Y-12974007D02*
X15845967Y-12983531D01*
X15845967Y-12983531D02*
X15855491Y-13002579D01*
X15855491Y-13002579D02*
X15865015Y-13040674D01*
X15865015Y-13040674D02*
X15865015Y-13088293D01*
X15865015Y-13088293D02*
X15855491Y-13126388D01*
X15855491Y-13126388D02*
X15845967Y-13145436D01*
X15845967Y-13145436D02*
X15836444Y-13154960D01*
X15836444Y-13154960D02*
X15817396Y-13164484D01*
X15817396Y-13164484D02*
X15798348Y-13164484D01*
X15798348Y-13164484D02*
X15779301Y-13154960D01*
X15779301Y-13154960D02*
X15769777Y-13145436D01*
X15769777Y-13145436D02*
X15760253Y-13126388D01*
X15760253Y-13126388D02*
X15750729Y-13088293D01*
X15750729Y-13088293D02*
X15750729Y-13040674D01*
X15750729Y-13040674D02*
X15760253Y-13002579D01*
X15760253Y-13002579D02*
X15769777Y-12983531D01*
X15769777Y-12983531D02*
X15779301Y-12974007D01*
X15779301Y-12974007D02*
X15798348Y-12964484D01*
X16036444Y-12964484D02*
X15998348Y-12964484D01*
X15998348Y-12964484D02*
X15979301Y-12974007D01*
X15979301Y-12974007D02*
X15969777Y-12983531D01*
X15969777Y-12983531D02*
X15950729Y-13012103D01*
X15950729Y-13012103D02*
X15941206Y-13050198D01*
X15941206Y-13050198D02*
X15941206Y-13126388D01*
X15941206Y-13126388D02*
X15950729Y-13145436D01*
X15950729Y-13145436D02*
X15960253Y-13154960D01*
X15960253Y-13154960D02*
X15979301Y-13164484D01*
X15979301Y-13164484D02*
X16017396Y-13164484D01*
X16017396Y-13164484D02*
X16036444Y-13154960D01*
X16036444Y-13154960D02*
X16045967Y-13145436D01*
X16045967Y-13145436D02*
X16055491Y-13126388D01*
X16055491Y-13126388D02*
X16055491Y-13078769D01*
X16055491Y-13078769D02*
X16045967Y-13059722D01*
X16045967Y-13059722D02*
X16036444Y-13050198D01*
X16036444Y-13050198D02*
X16017396Y-13040674D01*
X16017396Y-13040674D02*
X15979301Y-13040674D01*
X15979301Y-13040674D02*
X15960253Y-13050198D01*
X15960253Y-13050198D02*
X15950729Y-13059722D01*
X15950729Y-13059722D02*
X15941206Y-13078769D01*
X16131682Y-12983531D02*
X16141206Y-12974007D01*
X16141206Y-12974007D02*
X16160253Y-12964484D01*
X16160253Y-12964484D02*
X16207872Y-12964484D01*
X16207872Y-12964484D02*
X16226920Y-12974007D01*
X16226920Y-12974007D02*
X16236444Y-12983531D01*
X16236444Y-12983531D02*
X16245967Y-13002579D01*
X16245967Y-13002579D02*
X16245967Y-13021626D01*
X16245967Y-13021626D02*
X16236444Y-13050198D01*
X16236444Y-13050198D02*
X16122158Y-13164484D01*
X16122158Y-13164484D02*
X16245967Y-13164484D01*
X16369777Y-12964484D02*
X16388825Y-12964484D01*
X16388825Y-12964484D02*
X16407872Y-12974007D01*
X16407872Y-12974007D02*
X16417396Y-12983531D01*
X16417396Y-12983531D02*
X16426920Y-13002579D01*
X16426920Y-13002579D02*
X16436444Y-13040674D01*
X16436444Y-13040674D02*
X16436444Y-13088293D01*
X16436444Y-13088293D02*
X16426920Y-13126388D01*
X16426920Y-13126388D02*
X16417396Y-13145436D01*
X16417396Y-13145436D02*
X16407872Y-13154960D01*
X16407872Y-13154960D02*
X16388825Y-13164484D01*
X16388825Y-13164484D02*
X16369777Y-13164484D01*
X16369777Y-13164484D02*
X16350729Y-13154960D01*
X16350729Y-13154960D02*
X16341206Y-13145436D01*
X16341206Y-13145436D02*
X16331682Y-13126388D01*
X16331682Y-13126388D02*
X16322158Y-13088293D01*
X16322158Y-13088293D02*
X16322158Y-13040674D01*
X16322158Y-13040674D02*
X16331682Y-13002579D01*
X16331682Y-13002579D02*
X16341206Y-12983531D01*
X16341206Y-12983531D02*
X16350729Y-12974007D01*
X16350729Y-12974007D02*
X16369777Y-12964484D01*
X16512634Y-12964484D02*
X16512634Y-13002579D01*
X16588825Y-12964484D02*
X16588825Y-13002579D01*
X16884063Y-13240674D02*
X16874539Y-13231150D01*
X16874539Y-13231150D02*
X16855491Y-13202579D01*
X16855491Y-13202579D02*
X16845968Y-13183531D01*
X16845968Y-13183531D02*
X16836444Y-13154960D01*
X16836444Y-13154960D02*
X16826920Y-13107341D01*
X16826920Y-13107341D02*
X16826920Y-13069246D01*
X16826920Y-13069246D02*
X16836444Y-13021626D01*
X16836444Y-13021626D02*
X16845968Y-12993055D01*
X16845968Y-12993055D02*
X16855491Y-12974007D01*
X16855491Y-12974007D02*
X16874539Y-12945436D01*
X16874539Y-12945436D02*
X16884063Y-12935912D01*
X16941206Y-12964484D02*
X17065015Y-12964484D01*
X17065015Y-12964484D02*
X16998349Y-13040674D01*
X16998349Y-13040674D02*
X17026920Y-13040674D01*
X17026920Y-13040674D02*
X17045968Y-13050198D01*
X17045968Y-13050198D02*
X17055491Y-13059722D01*
X17055491Y-13059722D02*
X17065015Y-13078769D01*
X17065015Y-13078769D02*
X17065015Y-13126388D01*
X17065015Y-13126388D02*
X17055491Y-13145436D01*
X17055491Y-13145436D02*
X17045968Y-13154960D01*
X17045968Y-13154960D02*
X17026920Y-13164484D01*
X17026920Y-13164484D02*
X16969777Y-13164484D01*
X16969777Y-13164484D02*
X16950730Y-13154960D01*
X16950730Y-13154960D02*
X16941206Y-13145436D01*
X17303111Y-13164484D02*
X17303111Y-12964484D01*
X17388825Y-13164484D02*
X17388825Y-13059722D01*
X17388825Y-13059722D02*
X17379301Y-13040674D01*
X17379301Y-13040674D02*
X17360253Y-13031150D01*
X17360253Y-13031150D02*
X17331682Y-13031150D01*
X17331682Y-13031150D02*
X17312634Y-13040674D01*
X17312634Y-13040674D02*
X17303111Y-13050198D01*
X17512634Y-13164484D02*
X17493587Y-13154960D01*
X17493587Y-13154960D02*
X17484063Y-13145436D01*
X17484063Y-13145436D02*
X17474539Y-13126388D01*
X17474539Y-13126388D02*
X17474539Y-13069246D01*
X17474539Y-13069246D02*
X17484063Y-13050198D01*
X17484063Y-13050198D02*
X17493587Y-13040674D01*
X17493587Y-13040674D02*
X17512634Y-13031150D01*
X17512634Y-13031150D02*
X17541206Y-13031150D01*
X17541206Y-13031150D02*
X17560253Y-13040674D01*
X17560253Y-13040674D02*
X17569777Y-13050198D01*
X17569777Y-13050198D02*
X17579301Y-13069246D01*
X17579301Y-13069246D02*
X17579301Y-13126388D01*
X17579301Y-13126388D02*
X17569777Y-13145436D01*
X17569777Y-13145436D02*
X17560253Y-13154960D01*
X17560253Y-13154960D02*
X17541206Y-13164484D01*
X17541206Y-13164484D02*
X17512634Y-13164484D01*
X17693587Y-13164484D02*
X17674539Y-13154960D01*
X17674539Y-13154960D02*
X17665015Y-13135912D01*
X17665015Y-13135912D02*
X17665015Y-12964484D01*
X17845968Y-13154960D02*
X17826920Y-13164484D01*
X17826920Y-13164484D02*
X17788825Y-13164484D01*
X17788825Y-13164484D02*
X17769777Y-13154960D01*
X17769777Y-13154960D02*
X17760253Y-13135912D01*
X17760253Y-13135912D02*
X17760253Y-13059722D01*
X17760253Y-13059722D02*
X17769777Y-13040674D01*
X17769777Y-13040674D02*
X17788825Y-13031150D01*
X17788825Y-13031150D02*
X17826920Y-13031150D01*
X17826920Y-13031150D02*
X17845968Y-13040674D01*
X17845968Y-13040674D02*
X17855492Y-13059722D01*
X17855492Y-13059722D02*
X17855492Y-13078769D01*
X17855492Y-13078769D02*
X17760253Y-13097817D01*
X17931682Y-13154960D02*
X17950730Y-13164484D01*
X17950730Y-13164484D02*
X17988825Y-13164484D01*
X17988825Y-13164484D02*
X18007873Y-13154960D01*
X18007873Y-13154960D02*
X18017396Y-13135912D01*
X18017396Y-13135912D02*
X18017396Y-13126388D01*
X18017396Y-13126388D02*
X18007873Y-13107341D01*
X18007873Y-13107341D02*
X17988825Y-13097817D01*
X17988825Y-13097817D02*
X17960253Y-13097817D01*
X17960253Y-13097817D02*
X17941206Y-13088293D01*
X17941206Y-13088293D02*
X17931682Y-13069246D01*
X17931682Y-13069246D02*
X17931682Y-13059722D01*
X17931682Y-13059722D02*
X17941206Y-13040674D01*
X17941206Y-13040674D02*
X17960253Y-13031150D01*
X17960253Y-13031150D02*
X17988825Y-13031150D01*
X17988825Y-13031150D02*
X18007873Y-13040674D01*
X18084063Y-13240674D02*
X18093587Y-13231150D01*
X18093587Y-13231150D02*
X18112634Y-13202579D01*
X18112634Y-13202579D02*
X18122158Y-13183531D01*
X18122158Y-13183531D02*
X18131682Y-13154960D01*
X18131682Y-13154960D02*
X18141206Y-13107341D01*
X18141206Y-13107341D02*
X18141206Y-13069246D01*
X18141206Y-13069246D02*
X18131682Y-13021626D01*
X18131682Y-13021626D02*
X18122158Y-12993055D01*
X18122158Y-12993055D02*
X18112634Y-12974007D01*
X18112634Y-12974007D02*
X18093587Y-12945436D01*
X18093587Y-12945436D02*
X18084063Y-12935912D01*
D16*
X13118500Y-13255230D02*
X13309000Y-13445730D01*
X13309000Y-13255230D02*
X13118500Y-13445730D01*
X13213750Y-13445730D02*
X13309000Y-13350480D01*
X13213750Y-13255230D01*
X13118500Y-13350480D01*
X13213750Y-13445730D01*
D11*
X13674539Y-13441964D02*
X13560253Y-13441964D01*
X13617396Y-13441964D02*
X13617396Y-13241964D01*
X13617396Y-13241964D02*
X13598348Y-13270535D01*
X13598348Y-13270535D02*
X13579301Y-13289583D01*
X13579301Y-13289583D02*
X13560253Y-13299106D01*
X13760253Y-13422916D02*
X13769777Y-13432440D01*
X13769777Y-13432440D02*
X13760253Y-13441964D01*
X13760253Y-13441964D02*
X13750729Y-13432440D01*
X13750729Y-13432440D02*
X13760253Y-13422916D01*
X13760253Y-13422916D02*
X13760253Y-13441964D01*
X13865015Y-13441964D02*
X13903110Y-13441964D01*
X13903110Y-13441964D02*
X13922158Y-13432440D01*
X13922158Y-13432440D02*
X13931682Y-13422916D01*
X13931682Y-13422916D02*
X13950729Y-13394345D01*
X13950729Y-13394345D02*
X13960253Y-13356249D01*
X13960253Y-13356249D02*
X13960253Y-13280059D01*
X13960253Y-13280059D02*
X13950729Y-13261011D01*
X13950729Y-13261011D02*
X13941205Y-13251487D01*
X13941205Y-13251487D02*
X13922158Y-13241964D01*
X13922158Y-13241964D02*
X13884062Y-13241964D01*
X13884062Y-13241964D02*
X13865015Y-13251487D01*
X13865015Y-13251487D02*
X13855491Y-13261011D01*
X13855491Y-13261011D02*
X13845967Y-13280059D01*
X13845967Y-13280059D02*
X13845967Y-13327678D01*
X13845967Y-13327678D02*
X13855491Y-13346726D01*
X13855491Y-13346726D02*
X13865015Y-13356249D01*
X13865015Y-13356249D02*
X13884062Y-13365773D01*
X13884062Y-13365773D02*
X13922158Y-13365773D01*
X13922158Y-13365773D02*
X13941205Y-13356249D01*
X13941205Y-13356249D02*
X13950729Y-13346726D01*
X13950729Y-13346726D02*
X13960253Y-13327678D01*
X14084062Y-13241964D02*
X14103110Y-13241964D01*
X14103110Y-13241964D02*
X14122158Y-13251487D01*
X14122158Y-13251487D02*
X14131682Y-13261011D01*
X14131682Y-13261011D02*
X14141205Y-13280059D01*
X14141205Y-13280059D02*
X14150729Y-13318154D01*
X14150729Y-13318154D02*
X14150729Y-13365773D01*
X14150729Y-13365773D02*
X14141205Y-13403868D01*
X14141205Y-13403868D02*
X14131682Y-13422916D01*
X14131682Y-13422916D02*
X14122158Y-13432440D01*
X14122158Y-13432440D02*
X14103110Y-13441964D01*
X14103110Y-13441964D02*
X14084062Y-13441964D01*
X14084062Y-13441964D02*
X14065015Y-13432440D01*
X14065015Y-13432440D02*
X14055491Y-13422916D01*
X14055491Y-13422916D02*
X14045967Y-13403868D01*
X14045967Y-13403868D02*
X14036443Y-13365773D01*
X14036443Y-13365773D02*
X14036443Y-13318154D01*
X14036443Y-13318154D02*
X14045967Y-13280059D01*
X14045967Y-13280059D02*
X14055491Y-13261011D01*
X14055491Y-13261011D02*
X14065015Y-13251487D01*
X14065015Y-13251487D02*
X14084062Y-13241964D01*
X14331682Y-13241964D02*
X14236443Y-13241964D01*
X14236443Y-13241964D02*
X14226920Y-13337202D01*
X14226920Y-13337202D02*
X14236443Y-13327678D01*
X14236443Y-13327678D02*
X14255491Y-13318154D01*
X14255491Y-13318154D02*
X14303110Y-13318154D01*
X14303110Y-13318154D02*
X14322158Y-13327678D01*
X14322158Y-13327678D02*
X14331682Y-13337202D01*
X14331682Y-13337202D02*
X14341205Y-13356249D01*
X14341205Y-13356249D02*
X14341205Y-13403868D01*
X14341205Y-13403868D02*
X14331682Y-13422916D01*
X14331682Y-13422916D02*
X14322158Y-13432440D01*
X14322158Y-13432440D02*
X14303110Y-13441964D01*
X14303110Y-13441964D02*
X14255491Y-13441964D01*
X14255491Y-13441964D02*
X14236443Y-13432440D01*
X14236443Y-13432440D02*
X14226920Y-13422916D01*
X14426920Y-13441964D02*
X14426920Y-13308630D01*
X14426920Y-13327678D02*
X14436443Y-13318154D01*
X14436443Y-13318154D02*
X14455491Y-13308630D01*
X14455491Y-13308630D02*
X14484063Y-13308630D01*
X14484063Y-13308630D02*
X14503110Y-13318154D01*
X14503110Y-13318154D02*
X14512634Y-13337202D01*
X14512634Y-13337202D02*
X14512634Y-13441964D01*
X14512634Y-13337202D02*
X14522158Y-13318154D01*
X14522158Y-13318154D02*
X14541205Y-13308630D01*
X14541205Y-13308630D02*
X14569777Y-13308630D01*
X14569777Y-13308630D02*
X14588824Y-13318154D01*
X14588824Y-13318154D02*
X14598348Y-13337202D01*
X14598348Y-13337202D02*
X14598348Y-13441964D01*
X14693586Y-13441964D02*
X14693586Y-13308630D01*
X14693586Y-13327678D02*
X14703110Y-13318154D01*
X14703110Y-13318154D02*
X14722158Y-13308630D01*
X14722158Y-13308630D02*
X14750729Y-13308630D01*
X14750729Y-13308630D02*
X14769777Y-13318154D01*
X14769777Y-13318154D02*
X14779301Y-13337202D01*
X14779301Y-13337202D02*
X14779301Y-13441964D01*
X14779301Y-13337202D02*
X14788824Y-13318154D01*
X14788824Y-13318154D02*
X14807872Y-13308630D01*
X14807872Y-13308630D02*
X14836443Y-13308630D01*
X14836443Y-13308630D02*
X14855491Y-13318154D01*
X14855491Y-13318154D02*
X14865015Y-13337202D01*
X14865015Y-13337202D02*
X14865015Y-13441964D01*
X15255491Y-13232440D02*
X15084063Y-13489583D01*
X15512634Y-13241964D02*
X15531682Y-13241964D01*
X15531682Y-13241964D02*
X15550729Y-13251487D01*
X15550729Y-13251487D02*
X15560253Y-13261011D01*
X15560253Y-13261011D02*
X15569777Y-13280059D01*
X15569777Y-13280059D02*
X15579301Y-13318154D01*
X15579301Y-13318154D02*
X15579301Y-13365773D01*
X15579301Y-13365773D02*
X15569777Y-13403868D01*
X15569777Y-13403868D02*
X15560253Y-13422916D01*
X15560253Y-13422916D02*
X15550729Y-13432440D01*
X15550729Y-13432440D02*
X15531682Y-13441964D01*
X15531682Y-13441964D02*
X15512634Y-13441964D01*
X15512634Y-13441964D02*
X15493586Y-13432440D01*
X15493586Y-13432440D02*
X15484063Y-13422916D01*
X15484063Y-13422916D02*
X15474539Y-13403868D01*
X15474539Y-13403868D02*
X15465015Y-13365773D01*
X15465015Y-13365773D02*
X15465015Y-13318154D01*
X15465015Y-13318154D02*
X15474539Y-13280059D01*
X15474539Y-13280059D02*
X15484063Y-13261011D01*
X15484063Y-13261011D02*
X15493586Y-13251487D01*
X15493586Y-13251487D02*
X15512634Y-13241964D01*
X15665015Y-13422916D02*
X15674539Y-13432440D01*
X15674539Y-13432440D02*
X15665015Y-13441964D01*
X15665015Y-13441964D02*
X15655491Y-13432440D01*
X15655491Y-13432440D02*
X15665015Y-13422916D01*
X15665015Y-13422916D02*
X15665015Y-13441964D01*
X15798348Y-13241964D02*
X15817396Y-13241964D01*
X15817396Y-13241964D02*
X15836444Y-13251487D01*
X15836444Y-13251487D02*
X15845967Y-13261011D01*
X15845967Y-13261011D02*
X15855491Y-13280059D01*
X15855491Y-13280059D02*
X15865015Y-13318154D01*
X15865015Y-13318154D02*
X15865015Y-13365773D01*
X15865015Y-13365773D02*
X15855491Y-13403868D01*
X15855491Y-13403868D02*
X15845967Y-13422916D01*
X15845967Y-13422916D02*
X15836444Y-13432440D01*
X15836444Y-13432440D02*
X15817396Y-13441964D01*
X15817396Y-13441964D02*
X15798348Y-13441964D01*
X15798348Y-13441964D02*
X15779301Y-13432440D01*
X15779301Y-13432440D02*
X15769777Y-13422916D01*
X15769777Y-13422916D02*
X15760253Y-13403868D01*
X15760253Y-13403868D02*
X15750729Y-13365773D01*
X15750729Y-13365773D02*
X15750729Y-13318154D01*
X15750729Y-13318154D02*
X15760253Y-13280059D01*
X15760253Y-13280059D02*
X15769777Y-13261011D01*
X15769777Y-13261011D02*
X15779301Y-13251487D01*
X15779301Y-13251487D02*
X15798348Y-13241964D01*
X15931682Y-13241964D02*
X16065015Y-13241964D01*
X16065015Y-13241964D02*
X15979301Y-13441964D01*
X16236444Y-13241964D02*
X16141206Y-13241964D01*
X16141206Y-13241964D02*
X16131682Y-13337202D01*
X16131682Y-13337202D02*
X16141206Y-13327678D01*
X16141206Y-13327678D02*
X16160253Y-13318154D01*
X16160253Y-13318154D02*
X16207872Y-13318154D01*
X16207872Y-13318154D02*
X16226920Y-13327678D01*
X16226920Y-13327678D02*
X16236444Y-13337202D01*
X16236444Y-13337202D02*
X16245967Y-13356249D01*
X16245967Y-13356249D02*
X16245967Y-13403868D01*
X16245967Y-13403868D02*
X16236444Y-13422916D01*
X16236444Y-13422916D02*
X16226920Y-13432440D01*
X16226920Y-13432440D02*
X16207872Y-13441964D01*
X16207872Y-13441964D02*
X16160253Y-13441964D01*
X16160253Y-13441964D02*
X16141206Y-13432440D01*
X16141206Y-13432440D02*
X16131682Y-13422916D01*
X16369777Y-13241964D02*
X16388825Y-13241964D01*
X16388825Y-13241964D02*
X16407872Y-13251487D01*
X16407872Y-13251487D02*
X16417396Y-13261011D01*
X16417396Y-13261011D02*
X16426920Y-13280059D01*
X16426920Y-13280059D02*
X16436444Y-13318154D01*
X16436444Y-13318154D02*
X16436444Y-13365773D01*
X16436444Y-13365773D02*
X16426920Y-13403868D01*
X16426920Y-13403868D02*
X16417396Y-13422916D01*
X16417396Y-13422916D02*
X16407872Y-13432440D01*
X16407872Y-13432440D02*
X16388825Y-13441964D01*
X16388825Y-13441964D02*
X16369777Y-13441964D01*
X16369777Y-13441964D02*
X16350729Y-13432440D01*
X16350729Y-13432440D02*
X16341206Y-13422916D01*
X16341206Y-13422916D02*
X16331682Y-13403868D01*
X16331682Y-13403868D02*
X16322158Y-13365773D01*
X16322158Y-13365773D02*
X16322158Y-13318154D01*
X16322158Y-13318154D02*
X16331682Y-13280059D01*
X16331682Y-13280059D02*
X16341206Y-13261011D01*
X16341206Y-13261011D02*
X16350729Y-13251487D01*
X16350729Y-13251487D02*
X16369777Y-13241964D01*
X16512634Y-13241964D02*
X16512634Y-13280059D01*
X16588825Y-13241964D02*
X16588825Y-13280059D01*
X16884063Y-13518154D02*
X16874539Y-13508630D01*
X16874539Y-13508630D02*
X16855491Y-13480059D01*
X16855491Y-13480059D02*
X16845968Y-13461011D01*
X16845968Y-13461011D02*
X16836444Y-13432440D01*
X16836444Y-13432440D02*
X16826920Y-13384821D01*
X16826920Y-13384821D02*
X16826920Y-13346726D01*
X16826920Y-13346726D02*
X16836444Y-13299106D01*
X16836444Y-13299106D02*
X16845968Y-13270535D01*
X16845968Y-13270535D02*
X16855491Y-13251487D01*
X16855491Y-13251487D02*
X16874539Y-13222916D01*
X16874539Y-13222916D02*
X16884063Y-13213392D01*
X17045968Y-13308630D02*
X17045968Y-13441964D01*
X16998349Y-13232440D02*
X16950730Y-13375297D01*
X16950730Y-13375297D02*
X17074539Y-13375297D01*
X17303111Y-13441964D02*
X17303111Y-13241964D01*
X17388825Y-13441964D02*
X17388825Y-13337202D01*
X17388825Y-13337202D02*
X17379301Y-13318154D01*
X17379301Y-13318154D02*
X17360253Y-13308630D01*
X17360253Y-13308630D02*
X17331682Y-13308630D01*
X17331682Y-13308630D02*
X17312634Y-13318154D01*
X17312634Y-13318154D02*
X17303111Y-13327678D01*
X17512634Y-13441964D02*
X17493587Y-13432440D01*
X17493587Y-13432440D02*
X17484063Y-13422916D01*
X17484063Y-13422916D02*
X17474539Y-13403868D01*
X17474539Y-13403868D02*
X17474539Y-13346726D01*
X17474539Y-13346726D02*
X17484063Y-13327678D01*
X17484063Y-13327678D02*
X17493587Y-13318154D01*
X17493587Y-13318154D02*
X17512634Y-13308630D01*
X17512634Y-13308630D02*
X17541206Y-13308630D01*
X17541206Y-13308630D02*
X17560253Y-13318154D01*
X17560253Y-13318154D02*
X17569777Y-13327678D01*
X17569777Y-13327678D02*
X17579301Y-13346726D01*
X17579301Y-13346726D02*
X17579301Y-13403868D01*
X17579301Y-13403868D02*
X17569777Y-13422916D01*
X17569777Y-13422916D02*
X17560253Y-13432440D01*
X17560253Y-13432440D02*
X17541206Y-13441964D01*
X17541206Y-13441964D02*
X17512634Y-13441964D01*
X17693587Y-13441964D02*
X17674539Y-13432440D01*
X17674539Y-13432440D02*
X17665015Y-13413392D01*
X17665015Y-13413392D02*
X17665015Y-13241964D01*
X17845968Y-13432440D02*
X17826920Y-13441964D01*
X17826920Y-13441964D02*
X17788825Y-13441964D01*
X17788825Y-13441964D02*
X17769777Y-13432440D01*
X17769777Y-13432440D02*
X17760253Y-13413392D01*
X17760253Y-13413392D02*
X17760253Y-13337202D01*
X17760253Y-13337202D02*
X17769777Y-13318154D01*
X17769777Y-13318154D02*
X17788825Y-13308630D01*
X17788825Y-13308630D02*
X17826920Y-13308630D01*
X17826920Y-13308630D02*
X17845968Y-13318154D01*
X17845968Y-13318154D02*
X17855492Y-13337202D01*
X17855492Y-13337202D02*
X17855492Y-13356249D01*
X17855492Y-13356249D02*
X17760253Y-13375297D01*
X17931682Y-13432440D02*
X17950730Y-13441964D01*
X17950730Y-13441964D02*
X17988825Y-13441964D01*
X17988825Y-13441964D02*
X18007873Y-13432440D01*
X18007873Y-13432440D02*
X18017396Y-13413392D01*
X18017396Y-13413392D02*
X18017396Y-13403868D01*
X18017396Y-13403868D02*
X18007873Y-13384821D01*
X18007873Y-13384821D02*
X17988825Y-13375297D01*
X17988825Y-13375297D02*
X17960253Y-13375297D01*
X17960253Y-13375297D02*
X17941206Y-13365773D01*
X17941206Y-13365773D02*
X17931682Y-13346726D01*
X17931682Y-13346726D02*
X17931682Y-13337202D01*
X17931682Y-13337202D02*
X17941206Y-13318154D01*
X17941206Y-13318154D02*
X17960253Y-13308630D01*
X17960253Y-13308630D02*
X17988825Y-13308630D01*
X17988825Y-13308630D02*
X18007873Y-13318154D01*
X18084063Y-13518154D02*
X18093587Y-13508630D01*
X18093587Y-13508630D02*
X18112634Y-13480059D01*
X18112634Y-13480059D02*
X18122158Y-13461011D01*
X18122158Y-13461011D02*
X18131682Y-13432440D01*
X18131682Y-13432440D02*
X18141206Y-13384821D01*
X18141206Y-13384821D02*
X18141206Y-13346726D01*
X18141206Y-13346726D02*
X18131682Y-13299106D01*
X18131682Y-13299106D02*
X18122158Y-13270535D01*
X18122158Y-13270535D02*
X18112634Y-13251487D01*
X18112634Y-13251487D02*
X18093587Y-13222916D01*
X18093587Y-13222916D02*
X18084063Y-13213392D01*
X13209000Y-13560980D02*
X13209000Y-13760980D01*
X13109000Y-13660980D02*
X13309000Y-13660980D01*
X13309000Y-13660980D02*
G75*
G02*
X13109000Y-13660980I-100000J0D01*
G01*
X13109000Y-13660980D02*
G75*
G02*
X13309000Y-13660980I100000J0D01*
G01*
X13560253Y-13571511D02*
X13569777Y-13561987D01*
X13569777Y-13561987D02*
X13588824Y-13552464D01*
X13588824Y-13552464D02*
X13636443Y-13552464D01*
X13636443Y-13552464D02*
X13655491Y-13561987D01*
X13655491Y-13561987D02*
X13665015Y-13571511D01*
X13665015Y-13571511D02*
X13674539Y-13590559D01*
X13674539Y-13590559D02*
X13674539Y-13609606D01*
X13674539Y-13609606D02*
X13665015Y-13638178D01*
X13665015Y-13638178D02*
X13550729Y-13752464D01*
X13550729Y-13752464D02*
X13674539Y-13752464D01*
X13760253Y-13733416D02*
X13769777Y-13742940D01*
X13769777Y-13742940D02*
X13760253Y-13752464D01*
X13760253Y-13752464D02*
X13750729Y-13742940D01*
X13750729Y-13742940D02*
X13760253Y-13733416D01*
X13760253Y-13733416D02*
X13760253Y-13752464D01*
X13941205Y-13619130D02*
X13941205Y-13752464D01*
X13893586Y-13542940D02*
X13845967Y-13685797D01*
X13845967Y-13685797D02*
X13969777Y-13685797D01*
X14150729Y-13752464D02*
X14036443Y-13752464D01*
X14093586Y-13752464D02*
X14093586Y-13552464D01*
X14093586Y-13552464D02*
X14074539Y-13581035D01*
X14074539Y-13581035D02*
X14055491Y-13600083D01*
X14055491Y-13600083D02*
X14036443Y-13609606D01*
X14274539Y-13552464D02*
X14293586Y-13552464D01*
X14293586Y-13552464D02*
X14312634Y-13561987D01*
X14312634Y-13561987D02*
X14322158Y-13571511D01*
X14322158Y-13571511D02*
X14331682Y-13590559D01*
X14331682Y-13590559D02*
X14341205Y-13628654D01*
X14341205Y-13628654D02*
X14341205Y-13676273D01*
X14341205Y-13676273D02*
X14331682Y-13714368D01*
X14331682Y-13714368D02*
X14322158Y-13733416D01*
X14322158Y-13733416D02*
X14312634Y-13742940D01*
X14312634Y-13742940D02*
X14293586Y-13752464D01*
X14293586Y-13752464D02*
X14274539Y-13752464D01*
X14274539Y-13752464D02*
X14255491Y-13742940D01*
X14255491Y-13742940D02*
X14245967Y-13733416D01*
X14245967Y-13733416D02*
X14236443Y-13714368D01*
X14236443Y-13714368D02*
X14226920Y-13676273D01*
X14226920Y-13676273D02*
X14226920Y-13628654D01*
X14226920Y-13628654D02*
X14236443Y-13590559D01*
X14236443Y-13590559D02*
X14245967Y-13571511D01*
X14245967Y-13571511D02*
X14255491Y-13561987D01*
X14255491Y-13561987D02*
X14274539Y-13552464D01*
X14426920Y-13752464D02*
X14426920Y-13619130D01*
X14426920Y-13638178D02*
X14436443Y-13628654D01*
X14436443Y-13628654D02*
X14455491Y-13619130D01*
X14455491Y-13619130D02*
X14484063Y-13619130D01*
X14484063Y-13619130D02*
X14503110Y-13628654D01*
X14503110Y-13628654D02*
X14512634Y-13647702D01*
X14512634Y-13647702D02*
X14512634Y-13752464D01*
X14512634Y-13647702D02*
X14522158Y-13628654D01*
X14522158Y-13628654D02*
X14541205Y-13619130D01*
X14541205Y-13619130D02*
X14569777Y-13619130D01*
X14569777Y-13619130D02*
X14588824Y-13628654D01*
X14588824Y-13628654D02*
X14598348Y-13647702D01*
X14598348Y-13647702D02*
X14598348Y-13752464D01*
X14693586Y-13752464D02*
X14693586Y-13619130D01*
X14693586Y-13638178D02*
X14703110Y-13628654D01*
X14703110Y-13628654D02*
X14722158Y-13619130D01*
X14722158Y-13619130D02*
X14750729Y-13619130D01*
X14750729Y-13619130D02*
X14769777Y-13628654D01*
X14769777Y-13628654D02*
X14779301Y-13647702D01*
X14779301Y-13647702D02*
X14779301Y-13752464D01*
X14779301Y-13647702D02*
X14788824Y-13628654D01*
X14788824Y-13628654D02*
X14807872Y-13619130D01*
X14807872Y-13619130D02*
X14836443Y-13619130D01*
X14836443Y-13619130D02*
X14855491Y-13628654D01*
X14855491Y-13628654D02*
X14865015Y-13647702D01*
X14865015Y-13647702D02*
X14865015Y-13752464D01*
X15255491Y-13542940D02*
X15084063Y-13800083D01*
X15512634Y-13552464D02*
X15531682Y-13552464D01*
X15531682Y-13552464D02*
X15550729Y-13561987D01*
X15550729Y-13561987D02*
X15560253Y-13571511D01*
X15560253Y-13571511D02*
X15569777Y-13590559D01*
X15569777Y-13590559D02*
X15579301Y-13628654D01*
X15579301Y-13628654D02*
X15579301Y-13676273D01*
X15579301Y-13676273D02*
X15569777Y-13714368D01*
X15569777Y-13714368D02*
X15560253Y-13733416D01*
X15560253Y-13733416D02*
X15550729Y-13742940D01*
X15550729Y-13742940D02*
X15531682Y-13752464D01*
X15531682Y-13752464D02*
X15512634Y-13752464D01*
X15512634Y-13752464D02*
X15493586Y-13742940D01*
X15493586Y-13742940D02*
X15484063Y-13733416D01*
X15484063Y-13733416D02*
X15474539Y-13714368D01*
X15474539Y-13714368D02*
X15465015Y-13676273D01*
X15465015Y-13676273D02*
X15465015Y-13628654D01*
X15465015Y-13628654D02*
X15474539Y-13590559D01*
X15474539Y-13590559D02*
X15484063Y-13571511D01*
X15484063Y-13571511D02*
X15493586Y-13561987D01*
X15493586Y-13561987D02*
X15512634Y-13552464D01*
X15665015Y-13733416D02*
X15674539Y-13742940D01*
X15674539Y-13742940D02*
X15665015Y-13752464D01*
X15665015Y-13752464D02*
X15655491Y-13742940D01*
X15655491Y-13742940D02*
X15665015Y-13733416D01*
X15665015Y-13733416D02*
X15665015Y-13752464D01*
X15798348Y-13552464D02*
X15817396Y-13552464D01*
X15817396Y-13552464D02*
X15836444Y-13561987D01*
X15836444Y-13561987D02*
X15845967Y-13571511D01*
X15845967Y-13571511D02*
X15855491Y-13590559D01*
X15855491Y-13590559D02*
X15865015Y-13628654D01*
X15865015Y-13628654D02*
X15865015Y-13676273D01*
X15865015Y-13676273D02*
X15855491Y-13714368D01*
X15855491Y-13714368D02*
X15845967Y-13733416D01*
X15845967Y-13733416D02*
X15836444Y-13742940D01*
X15836444Y-13742940D02*
X15817396Y-13752464D01*
X15817396Y-13752464D02*
X15798348Y-13752464D01*
X15798348Y-13752464D02*
X15779301Y-13742940D01*
X15779301Y-13742940D02*
X15769777Y-13733416D01*
X15769777Y-13733416D02*
X15760253Y-13714368D01*
X15760253Y-13714368D02*
X15750729Y-13676273D01*
X15750729Y-13676273D02*
X15750729Y-13628654D01*
X15750729Y-13628654D02*
X15760253Y-13590559D01*
X15760253Y-13590559D02*
X15769777Y-13571511D01*
X15769777Y-13571511D02*
X15779301Y-13561987D01*
X15779301Y-13561987D02*
X15798348Y-13552464D01*
X15960253Y-13752464D02*
X15998348Y-13752464D01*
X15998348Y-13752464D02*
X16017396Y-13742940D01*
X16017396Y-13742940D02*
X16026920Y-13733416D01*
X16026920Y-13733416D02*
X16045967Y-13704845D01*
X16045967Y-13704845D02*
X16055491Y-13666749D01*
X16055491Y-13666749D02*
X16055491Y-13590559D01*
X16055491Y-13590559D02*
X16045967Y-13571511D01*
X16045967Y-13571511D02*
X16036444Y-13561987D01*
X16036444Y-13561987D02*
X16017396Y-13552464D01*
X16017396Y-13552464D02*
X15979301Y-13552464D01*
X15979301Y-13552464D02*
X15960253Y-13561987D01*
X15960253Y-13561987D02*
X15950729Y-13571511D01*
X15950729Y-13571511D02*
X15941206Y-13590559D01*
X15941206Y-13590559D02*
X15941206Y-13638178D01*
X15941206Y-13638178D02*
X15950729Y-13657226D01*
X15950729Y-13657226D02*
X15960253Y-13666749D01*
X15960253Y-13666749D02*
X15979301Y-13676273D01*
X15979301Y-13676273D02*
X16017396Y-13676273D01*
X16017396Y-13676273D02*
X16036444Y-13666749D01*
X16036444Y-13666749D02*
X16045967Y-13657226D01*
X16045967Y-13657226D02*
X16055491Y-13638178D01*
X16226920Y-13619130D02*
X16226920Y-13752464D01*
X16179301Y-13542940D02*
X16131682Y-13685797D01*
X16131682Y-13685797D02*
X16255491Y-13685797D01*
X16341206Y-13752464D02*
X16379301Y-13752464D01*
X16379301Y-13752464D02*
X16398348Y-13742940D01*
X16398348Y-13742940D02*
X16407872Y-13733416D01*
X16407872Y-13733416D02*
X16426920Y-13704845D01*
X16426920Y-13704845D02*
X16436444Y-13666749D01*
X16436444Y-13666749D02*
X16436444Y-13590559D01*
X16436444Y-13590559D02*
X16426920Y-13571511D01*
X16426920Y-13571511D02*
X16417396Y-13561987D01*
X16417396Y-13561987D02*
X16398348Y-13552464D01*
X16398348Y-13552464D02*
X16360253Y-13552464D01*
X16360253Y-13552464D02*
X16341206Y-13561987D01*
X16341206Y-13561987D02*
X16331682Y-13571511D01*
X16331682Y-13571511D02*
X16322158Y-13590559D01*
X16322158Y-13590559D02*
X16322158Y-13638178D01*
X16322158Y-13638178D02*
X16331682Y-13657226D01*
X16331682Y-13657226D02*
X16341206Y-13666749D01*
X16341206Y-13666749D02*
X16360253Y-13676273D01*
X16360253Y-13676273D02*
X16398348Y-13676273D01*
X16398348Y-13676273D02*
X16417396Y-13666749D01*
X16417396Y-13666749D02*
X16426920Y-13657226D01*
X16426920Y-13657226D02*
X16436444Y-13638178D01*
X16512634Y-13552464D02*
X16512634Y-13590559D01*
X16588825Y-13552464D02*
X16588825Y-13590559D01*
X16884063Y-13828654D02*
X16874539Y-13819130D01*
X16874539Y-13819130D02*
X16855491Y-13790559D01*
X16855491Y-13790559D02*
X16845968Y-13771511D01*
X16845968Y-13771511D02*
X16836444Y-13742940D01*
X16836444Y-13742940D02*
X16826920Y-13695321D01*
X16826920Y-13695321D02*
X16826920Y-13657226D01*
X16826920Y-13657226D02*
X16836444Y-13609606D01*
X16836444Y-13609606D02*
X16845968Y-13581035D01*
X16845968Y-13581035D02*
X16855491Y-13561987D01*
X16855491Y-13561987D02*
X16874539Y-13533416D01*
X16874539Y-13533416D02*
X16884063Y-13523892D01*
X16950730Y-13571511D02*
X16960253Y-13561987D01*
X16960253Y-13561987D02*
X16979301Y-13552464D01*
X16979301Y-13552464D02*
X17026920Y-13552464D01*
X17026920Y-13552464D02*
X17045968Y-13561987D01*
X17045968Y-13561987D02*
X17055491Y-13571511D01*
X17055491Y-13571511D02*
X17065015Y-13590559D01*
X17065015Y-13590559D02*
X17065015Y-13609606D01*
X17065015Y-13609606D02*
X17055491Y-13638178D01*
X17055491Y-13638178D02*
X16941206Y-13752464D01*
X16941206Y-13752464D02*
X17065015Y-13752464D01*
X17303111Y-13752464D02*
X17303111Y-13552464D01*
X17388825Y-13752464D02*
X17388825Y-13647702D01*
X17388825Y-13647702D02*
X17379301Y-13628654D01*
X17379301Y-13628654D02*
X17360253Y-13619130D01*
X17360253Y-13619130D02*
X17331682Y-13619130D01*
X17331682Y-13619130D02*
X17312634Y-13628654D01*
X17312634Y-13628654D02*
X17303111Y-13638178D01*
X17512634Y-13752464D02*
X17493587Y-13742940D01*
X17493587Y-13742940D02*
X17484063Y-13733416D01*
X17484063Y-13733416D02*
X17474539Y-13714368D01*
X17474539Y-13714368D02*
X17474539Y-13657226D01*
X17474539Y-13657226D02*
X17484063Y-13638178D01*
X17484063Y-13638178D02*
X17493587Y-13628654D01*
X17493587Y-13628654D02*
X17512634Y-13619130D01*
X17512634Y-13619130D02*
X17541206Y-13619130D01*
X17541206Y-13619130D02*
X17560253Y-13628654D01*
X17560253Y-13628654D02*
X17569777Y-13638178D01*
X17569777Y-13638178D02*
X17579301Y-13657226D01*
X17579301Y-13657226D02*
X17579301Y-13714368D01*
X17579301Y-13714368D02*
X17569777Y-13733416D01*
X17569777Y-13733416D02*
X17560253Y-13742940D01*
X17560253Y-13742940D02*
X17541206Y-13752464D01*
X17541206Y-13752464D02*
X17512634Y-13752464D01*
X17693587Y-13752464D02*
X17674539Y-13742940D01*
X17674539Y-13742940D02*
X17665015Y-13723892D01*
X17665015Y-13723892D02*
X17665015Y-13552464D01*
X17845968Y-13742940D02*
X17826920Y-13752464D01*
X17826920Y-13752464D02*
X17788825Y-13752464D01*
X17788825Y-13752464D02*
X17769777Y-13742940D01*
X17769777Y-13742940D02*
X17760253Y-13723892D01*
X17760253Y-13723892D02*
X17760253Y-13647702D01*
X17760253Y-13647702D02*
X17769777Y-13628654D01*
X17769777Y-13628654D02*
X17788825Y-13619130D01*
X17788825Y-13619130D02*
X17826920Y-13619130D01*
X17826920Y-13619130D02*
X17845968Y-13628654D01*
X17845968Y-13628654D02*
X17855492Y-13647702D01*
X17855492Y-13647702D02*
X17855492Y-13666749D01*
X17855492Y-13666749D02*
X17760253Y-13685797D01*
X17931682Y-13742940D02*
X17950730Y-13752464D01*
X17950730Y-13752464D02*
X17988825Y-13752464D01*
X17988825Y-13752464D02*
X18007873Y-13742940D01*
X18007873Y-13742940D02*
X18017396Y-13723892D01*
X18017396Y-13723892D02*
X18017396Y-13714368D01*
X18017396Y-13714368D02*
X18007873Y-13695321D01*
X18007873Y-13695321D02*
X17988825Y-13685797D01*
X17988825Y-13685797D02*
X17960253Y-13685797D01*
X17960253Y-13685797D02*
X17941206Y-13676273D01*
X17941206Y-13676273D02*
X17931682Y-13657226D01*
X17931682Y-13657226D02*
X17931682Y-13647702D01*
X17931682Y-13647702D02*
X17941206Y-13628654D01*
X17941206Y-13628654D02*
X17960253Y-13619130D01*
X17960253Y-13619130D02*
X17988825Y-13619130D01*
X17988825Y-13619130D02*
X18007873Y-13628654D01*
X18084063Y-13828654D02*
X18093587Y-13819130D01*
X18093587Y-13819130D02*
X18112634Y-13790559D01*
X18112634Y-13790559D02*
X18122158Y-13771511D01*
X18122158Y-13771511D02*
X18131682Y-13742940D01*
X18131682Y-13742940D02*
X18141206Y-13695321D01*
X18141206Y-13695321D02*
X18141206Y-13657226D01*
X18141206Y-13657226D02*
X18131682Y-13609606D01*
X18131682Y-13609606D02*
X18122158Y-13581035D01*
X18122158Y-13581035D02*
X18112634Y-13561987D01*
X18112634Y-13561987D02*
X18093587Y-13533416D01*
X18093587Y-13533416D02*
X18084063Y-13523892D01*
X13279711Y-14051691D02*
X13279711Y-13910268D01*
X13138289Y-13910268D01*
X13138289Y-14051691D01*
X13279711Y-14051691D01*
X13309000Y-13980980D02*
G75*
G02*
X13109000Y-13980980I-100000J0D01*
G01*
X13109000Y-13980980D02*
G75*
G02*
X13309000Y-13980980I100000J0D01*
G01*
X13560253Y-13891511D02*
X13569777Y-13881987D01*
X13569777Y-13881987D02*
X13588824Y-13872464D01*
X13588824Y-13872464D02*
X13636443Y-13872464D01*
X13636443Y-13872464D02*
X13655491Y-13881987D01*
X13655491Y-13881987D02*
X13665015Y-13891511D01*
X13665015Y-13891511D02*
X13674539Y-13910559D01*
X13674539Y-13910559D02*
X13674539Y-13929606D01*
X13674539Y-13929606D02*
X13665015Y-13958178D01*
X13665015Y-13958178D02*
X13550729Y-14072464D01*
X13550729Y-14072464D02*
X13674539Y-14072464D01*
X13760253Y-14053416D02*
X13769777Y-14062940D01*
X13769777Y-14062940D02*
X13760253Y-14072464D01*
X13760253Y-14072464D02*
X13750729Y-14062940D01*
X13750729Y-14062940D02*
X13760253Y-14053416D01*
X13760253Y-14053416D02*
X13760253Y-14072464D01*
X13950729Y-13872464D02*
X13855491Y-13872464D01*
X13855491Y-13872464D02*
X13845967Y-13967702D01*
X13845967Y-13967702D02*
X13855491Y-13958178D01*
X13855491Y-13958178D02*
X13874539Y-13948654D01*
X13874539Y-13948654D02*
X13922158Y-13948654D01*
X13922158Y-13948654D02*
X13941205Y-13958178D01*
X13941205Y-13958178D02*
X13950729Y-13967702D01*
X13950729Y-13967702D02*
X13960253Y-13986749D01*
X13960253Y-13986749D02*
X13960253Y-14034368D01*
X13960253Y-14034368D02*
X13950729Y-14053416D01*
X13950729Y-14053416D02*
X13941205Y-14062940D01*
X13941205Y-14062940D02*
X13922158Y-14072464D01*
X13922158Y-14072464D02*
X13874539Y-14072464D01*
X13874539Y-14072464D02*
X13855491Y-14062940D01*
X13855491Y-14062940D02*
X13845967Y-14053416D01*
X14084062Y-13872464D02*
X14103110Y-13872464D01*
X14103110Y-13872464D02*
X14122158Y-13881987D01*
X14122158Y-13881987D02*
X14131682Y-13891511D01*
X14131682Y-13891511D02*
X14141205Y-13910559D01*
X14141205Y-13910559D02*
X14150729Y-13948654D01*
X14150729Y-13948654D02*
X14150729Y-13996273D01*
X14150729Y-13996273D02*
X14141205Y-14034368D01*
X14141205Y-14034368D02*
X14131682Y-14053416D01*
X14131682Y-14053416D02*
X14122158Y-14062940D01*
X14122158Y-14062940D02*
X14103110Y-14072464D01*
X14103110Y-14072464D02*
X14084062Y-14072464D01*
X14084062Y-14072464D02*
X14065015Y-14062940D01*
X14065015Y-14062940D02*
X14055491Y-14053416D01*
X14055491Y-14053416D02*
X14045967Y-14034368D01*
X14045967Y-14034368D02*
X14036443Y-13996273D01*
X14036443Y-13996273D02*
X14036443Y-13948654D01*
X14036443Y-13948654D02*
X14045967Y-13910559D01*
X14045967Y-13910559D02*
X14055491Y-13891511D01*
X14055491Y-13891511D02*
X14065015Y-13881987D01*
X14065015Y-13881987D02*
X14084062Y-13872464D01*
X14274539Y-13872464D02*
X14293586Y-13872464D01*
X14293586Y-13872464D02*
X14312634Y-13881987D01*
X14312634Y-13881987D02*
X14322158Y-13891511D01*
X14322158Y-13891511D02*
X14331682Y-13910559D01*
X14331682Y-13910559D02*
X14341205Y-13948654D01*
X14341205Y-13948654D02*
X14341205Y-13996273D01*
X14341205Y-13996273D02*
X14331682Y-14034368D01*
X14331682Y-14034368D02*
X14322158Y-14053416D01*
X14322158Y-14053416D02*
X14312634Y-14062940D01*
X14312634Y-14062940D02*
X14293586Y-14072464D01*
X14293586Y-14072464D02*
X14274539Y-14072464D01*
X14274539Y-14072464D02*
X14255491Y-14062940D01*
X14255491Y-14062940D02*
X14245967Y-14053416D01*
X14245967Y-14053416D02*
X14236443Y-14034368D01*
X14236443Y-14034368D02*
X14226920Y-13996273D01*
X14226920Y-13996273D02*
X14226920Y-13948654D01*
X14226920Y-13948654D02*
X14236443Y-13910559D01*
X14236443Y-13910559D02*
X14245967Y-13891511D01*
X14245967Y-13891511D02*
X14255491Y-13881987D01*
X14255491Y-13881987D02*
X14274539Y-13872464D01*
X14426920Y-14072464D02*
X14426920Y-13939130D01*
X14426920Y-13958178D02*
X14436443Y-13948654D01*
X14436443Y-13948654D02*
X14455491Y-13939130D01*
X14455491Y-13939130D02*
X14484063Y-13939130D01*
X14484063Y-13939130D02*
X14503110Y-13948654D01*
X14503110Y-13948654D02*
X14512634Y-13967702D01*
X14512634Y-13967702D02*
X14512634Y-14072464D01*
X14512634Y-13967702D02*
X14522158Y-13948654D01*
X14522158Y-13948654D02*
X14541205Y-13939130D01*
X14541205Y-13939130D02*
X14569777Y-13939130D01*
X14569777Y-13939130D02*
X14588824Y-13948654D01*
X14588824Y-13948654D02*
X14598348Y-13967702D01*
X14598348Y-13967702D02*
X14598348Y-14072464D01*
X14693586Y-14072464D02*
X14693586Y-13939130D01*
X14693586Y-13958178D02*
X14703110Y-13948654D01*
X14703110Y-13948654D02*
X14722158Y-13939130D01*
X14722158Y-13939130D02*
X14750729Y-13939130D01*
X14750729Y-13939130D02*
X14769777Y-13948654D01*
X14769777Y-13948654D02*
X14779301Y-13967702D01*
X14779301Y-13967702D02*
X14779301Y-14072464D01*
X14779301Y-13967702D02*
X14788824Y-13948654D01*
X14788824Y-13948654D02*
X14807872Y-13939130D01*
X14807872Y-13939130D02*
X14836443Y-13939130D01*
X14836443Y-13939130D02*
X14855491Y-13948654D01*
X14855491Y-13948654D02*
X14865015Y-13967702D01*
X14865015Y-13967702D02*
X14865015Y-14072464D01*
X15255491Y-13862940D02*
X15084063Y-14120083D01*
X15512634Y-13872464D02*
X15531682Y-13872464D01*
X15531682Y-13872464D02*
X15550729Y-13881987D01*
X15550729Y-13881987D02*
X15560253Y-13891511D01*
X15560253Y-13891511D02*
X15569777Y-13910559D01*
X15569777Y-13910559D02*
X15579301Y-13948654D01*
X15579301Y-13948654D02*
X15579301Y-13996273D01*
X15579301Y-13996273D02*
X15569777Y-14034368D01*
X15569777Y-14034368D02*
X15560253Y-14053416D01*
X15560253Y-14053416D02*
X15550729Y-14062940D01*
X15550729Y-14062940D02*
X15531682Y-14072464D01*
X15531682Y-14072464D02*
X15512634Y-14072464D01*
X15512634Y-14072464D02*
X15493586Y-14062940D01*
X15493586Y-14062940D02*
X15484063Y-14053416D01*
X15484063Y-14053416D02*
X15474539Y-14034368D01*
X15474539Y-14034368D02*
X15465015Y-13996273D01*
X15465015Y-13996273D02*
X15465015Y-13948654D01*
X15465015Y-13948654D02*
X15474539Y-13910559D01*
X15474539Y-13910559D02*
X15484063Y-13891511D01*
X15484063Y-13891511D02*
X15493586Y-13881987D01*
X15493586Y-13881987D02*
X15512634Y-13872464D01*
X15665015Y-14053416D02*
X15674539Y-14062940D01*
X15674539Y-14062940D02*
X15665015Y-14072464D01*
X15665015Y-14072464D02*
X15655491Y-14062940D01*
X15655491Y-14062940D02*
X15665015Y-14053416D01*
X15665015Y-14053416D02*
X15665015Y-14072464D01*
X15798348Y-13872464D02*
X15817396Y-13872464D01*
X15817396Y-13872464D02*
X15836444Y-13881987D01*
X15836444Y-13881987D02*
X15845967Y-13891511D01*
X15845967Y-13891511D02*
X15855491Y-13910559D01*
X15855491Y-13910559D02*
X15865015Y-13948654D01*
X15865015Y-13948654D02*
X15865015Y-13996273D01*
X15865015Y-13996273D02*
X15855491Y-14034368D01*
X15855491Y-14034368D02*
X15845967Y-14053416D01*
X15845967Y-14053416D02*
X15836444Y-14062940D01*
X15836444Y-14062940D02*
X15817396Y-14072464D01*
X15817396Y-14072464D02*
X15798348Y-14072464D01*
X15798348Y-14072464D02*
X15779301Y-14062940D01*
X15779301Y-14062940D02*
X15769777Y-14053416D01*
X15769777Y-14053416D02*
X15760253Y-14034368D01*
X15760253Y-14034368D02*
X15750729Y-13996273D01*
X15750729Y-13996273D02*
X15750729Y-13948654D01*
X15750729Y-13948654D02*
X15760253Y-13910559D01*
X15760253Y-13910559D02*
X15769777Y-13891511D01*
X15769777Y-13891511D02*
X15779301Y-13881987D01*
X15779301Y-13881987D02*
X15798348Y-13872464D01*
X15960253Y-14072464D02*
X15998348Y-14072464D01*
X15998348Y-14072464D02*
X16017396Y-14062940D01*
X16017396Y-14062940D02*
X16026920Y-14053416D01*
X16026920Y-14053416D02*
X16045967Y-14024845D01*
X16045967Y-14024845D02*
X16055491Y-13986749D01*
X16055491Y-13986749D02*
X16055491Y-13910559D01*
X16055491Y-13910559D02*
X16045967Y-13891511D01*
X16045967Y-13891511D02*
X16036444Y-13881987D01*
X16036444Y-13881987D02*
X16017396Y-13872464D01*
X16017396Y-13872464D02*
X15979301Y-13872464D01*
X15979301Y-13872464D02*
X15960253Y-13881987D01*
X15960253Y-13881987D02*
X15950729Y-13891511D01*
X15950729Y-13891511D02*
X15941206Y-13910559D01*
X15941206Y-13910559D02*
X15941206Y-13958178D01*
X15941206Y-13958178D02*
X15950729Y-13977226D01*
X15950729Y-13977226D02*
X15960253Y-13986749D01*
X15960253Y-13986749D02*
X15979301Y-13996273D01*
X15979301Y-13996273D02*
X16017396Y-13996273D01*
X16017396Y-13996273D02*
X16036444Y-13986749D01*
X16036444Y-13986749D02*
X16045967Y-13977226D01*
X16045967Y-13977226D02*
X16055491Y-13958178D01*
X16169777Y-13958178D02*
X16150729Y-13948654D01*
X16150729Y-13948654D02*
X16141206Y-13939130D01*
X16141206Y-13939130D02*
X16131682Y-13920083D01*
X16131682Y-13920083D02*
X16131682Y-13910559D01*
X16131682Y-13910559D02*
X16141206Y-13891511D01*
X16141206Y-13891511D02*
X16150729Y-13881987D01*
X16150729Y-13881987D02*
X16169777Y-13872464D01*
X16169777Y-13872464D02*
X16207872Y-13872464D01*
X16207872Y-13872464D02*
X16226920Y-13881987D01*
X16226920Y-13881987D02*
X16236444Y-13891511D01*
X16236444Y-13891511D02*
X16245967Y-13910559D01*
X16245967Y-13910559D02*
X16245967Y-13920083D01*
X16245967Y-13920083D02*
X16236444Y-13939130D01*
X16236444Y-13939130D02*
X16226920Y-13948654D01*
X16226920Y-13948654D02*
X16207872Y-13958178D01*
X16207872Y-13958178D02*
X16169777Y-13958178D01*
X16169777Y-13958178D02*
X16150729Y-13967702D01*
X16150729Y-13967702D02*
X16141206Y-13977226D01*
X16141206Y-13977226D02*
X16131682Y-13996273D01*
X16131682Y-13996273D02*
X16131682Y-14034368D01*
X16131682Y-14034368D02*
X16141206Y-14053416D01*
X16141206Y-14053416D02*
X16150729Y-14062940D01*
X16150729Y-14062940D02*
X16169777Y-14072464D01*
X16169777Y-14072464D02*
X16207872Y-14072464D01*
X16207872Y-14072464D02*
X16226920Y-14062940D01*
X16226920Y-14062940D02*
X16236444Y-14053416D01*
X16236444Y-14053416D02*
X16245967Y-14034368D01*
X16245967Y-14034368D02*
X16245967Y-13996273D01*
X16245967Y-13996273D02*
X16236444Y-13977226D01*
X16236444Y-13977226D02*
X16226920Y-13967702D01*
X16226920Y-13967702D02*
X16207872Y-13958178D01*
X16417396Y-13939130D02*
X16417396Y-14072464D01*
X16369777Y-13862940D02*
X16322158Y-14005797D01*
X16322158Y-14005797D02*
X16445967Y-14005797D01*
X16512634Y-13872464D02*
X16512634Y-13910559D01*
X16588825Y-13872464D02*
X16588825Y-13910559D01*
X16884063Y-14148654D02*
X16874539Y-14139130D01*
X16874539Y-14139130D02*
X16855491Y-14110559D01*
X16855491Y-14110559D02*
X16845968Y-14091511D01*
X16845968Y-14091511D02*
X16836444Y-14062940D01*
X16836444Y-14062940D02*
X16826920Y-14015321D01*
X16826920Y-14015321D02*
X16826920Y-13977226D01*
X16826920Y-13977226D02*
X16836444Y-13929606D01*
X16836444Y-13929606D02*
X16845968Y-13901035D01*
X16845968Y-13901035D02*
X16855491Y-13881987D01*
X16855491Y-13881987D02*
X16874539Y-13853416D01*
X16874539Y-13853416D02*
X16884063Y-13843892D01*
X17045968Y-13939130D02*
X17045968Y-14072464D01*
X16998349Y-13862940D02*
X16950730Y-14005797D01*
X16950730Y-14005797D02*
X17074539Y-14005797D01*
X17303111Y-14072464D02*
X17303111Y-13872464D01*
X17388825Y-14072464D02*
X17388825Y-13967702D01*
X17388825Y-13967702D02*
X17379301Y-13948654D01*
X17379301Y-13948654D02*
X17360253Y-13939130D01*
X17360253Y-13939130D02*
X17331682Y-13939130D01*
X17331682Y-13939130D02*
X17312634Y-13948654D01*
X17312634Y-13948654D02*
X17303111Y-13958178D01*
X17512634Y-14072464D02*
X17493587Y-14062940D01*
X17493587Y-14062940D02*
X17484063Y-14053416D01*
X17484063Y-14053416D02*
X17474539Y-14034368D01*
X17474539Y-14034368D02*
X17474539Y-13977226D01*
X17474539Y-13977226D02*
X17484063Y-13958178D01*
X17484063Y-13958178D02*
X17493587Y-13948654D01*
X17493587Y-13948654D02*
X17512634Y-13939130D01*
X17512634Y-13939130D02*
X17541206Y-13939130D01*
X17541206Y-13939130D02*
X17560253Y-13948654D01*
X17560253Y-13948654D02*
X17569777Y-13958178D01*
X17569777Y-13958178D02*
X17579301Y-13977226D01*
X17579301Y-13977226D02*
X17579301Y-14034368D01*
X17579301Y-14034368D02*
X17569777Y-14053416D01*
X17569777Y-14053416D02*
X17560253Y-14062940D01*
X17560253Y-14062940D02*
X17541206Y-14072464D01*
X17541206Y-14072464D02*
X17512634Y-14072464D01*
X17693587Y-14072464D02*
X17674539Y-14062940D01*
X17674539Y-14062940D02*
X17665015Y-14043892D01*
X17665015Y-14043892D02*
X17665015Y-13872464D01*
X17845968Y-14062940D02*
X17826920Y-14072464D01*
X17826920Y-14072464D02*
X17788825Y-14072464D01*
X17788825Y-14072464D02*
X17769777Y-14062940D01*
X17769777Y-14062940D02*
X17760253Y-14043892D01*
X17760253Y-14043892D02*
X17760253Y-13967702D01*
X17760253Y-13967702D02*
X17769777Y-13948654D01*
X17769777Y-13948654D02*
X17788825Y-13939130D01*
X17788825Y-13939130D02*
X17826920Y-13939130D01*
X17826920Y-13939130D02*
X17845968Y-13948654D01*
X17845968Y-13948654D02*
X17855492Y-13967702D01*
X17855492Y-13967702D02*
X17855492Y-13986749D01*
X17855492Y-13986749D02*
X17760253Y-14005797D01*
X17931682Y-14062940D02*
X17950730Y-14072464D01*
X17950730Y-14072464D02*
X17988825Y-14072464D01*
X17988825Y-14072464D02*
X18007873Y-14062940D01*
X18007873Y-14062940D02*
X18017396Y-14043892D01*
X18017396Y-14043892D02*
X18017396Y-14034368D01*
X18017396Y-14034368D02*
X18007873Y-14015321D01*
X18007873Y-14015321D02*
X17988825Y-14005797D01*
X17988825Y-14005797D02*
X17960253Y-14005797D01*
X17960253Y-14005797D02*
X17941206Y-13996273D01*
X17941206Y-13996273D02*
X17931682Y-13977226D01*
X17931682Y-13977226D02*
X17931682Y-13967702D01*
X17931682Y-13967702D02*
X17941206Y-13948654D01*
X17941206Y-13948654D02*
X17960253Y-13939130D01*
X17960253Y-13939130D02*
X17988825Y-13939130D01*
X17988825Y-13939130D02*
X18007873Y-13948654D01*
X18084063Y-14148654D02*
X18093587Y-14139130D01*
X18093587Y-14139130D02*
X18112634Y-14110559D01*
X18112634Y-14110559D02*
X18122158Y-14091511D01*
X18122158Y-14091511D02*
X18131682Y-14062940D01*
X18131682Y-14062940D02*
X18141206Y-14015321D01*
X18141206Y-14015321D02*
X18141206Y-13977226D01*
X18141206Y-13977226D02*
X18131682Y-13929606D01*
X18131682Y-13929606D02*
X18122158Y-13901035D01*
X18122158Y-13901035D02*
X18112634Y-13881987D01*
X18112634Y-13881987D02*
X18093587Y-13853416D01*
X18093587Y-13853416D02*
X18084063Y-13843892D01*
M02*
