M48
; DRILL file {KiCad 8.0.9} date 2025-04-23T02:47:10-0400
; FORMAT={-:-/ absolute / metric / decimal}
; #@! TF.CreationDate,2025-04-23T02:47:10-04:00
; #@! TF.GenerationSoftware,Kicad,Pcbnew,8.0.9
; #@! TF.FileFunction,Plated,1,2,PTH
FMAT,2
METRIC
; #@! TA.AperFunction,Plated,PTH,ViaDrill
T1C0.300
; #@! TA.AperFunction,Plated,PTH,ComponentDrill
T2C0.500
; #@! TA.AperFunction,Plated,PTH,ComponentDrill
T3C0.740
; #@! TA.AperFunction,Plated,PTH,ComponentDrill
T4C1.000
; #@! TA.AperFunction,Plated,PTH,ComponentDrill
T5C1.020
; #@! TA.AperFunction,Plated,PTH,ComponentDrill
T6C1.123
; #@! TA.AperFunction,Plated,PTH,ComponentDrill
T7C1.295
; #@! TA.AperFunction,Plated,PTH,ComponentDrill
T8C1.575
; #@! TA.AperFunction,Plated,PTH,ComponentDrill
T9C1.905
; #@! TA.AperFunction,Plated,PTH,ComponentDrill
T10C2.410
; #@! TA.AperFunction,Plated,PTH,ComponentDrill
T11C2.500
%
G90
G05
T1
X143.7Y-86.1
X143.7Y-90.7
X144.7Y-88.1
X145.4Y-88.6
X145.4Y-90.8
X146.0Y-86.9
X147.678Y-80.4
X148.28Y-99.825
X148.928Y-79.0
X148.928Y-81.8
X150.0Y-80.4
X150.0Y-89.15
X152.304Y-98.0
X152.48Y-100.0
X154.141Y-97.376
X154.3Y-96.4
X154.48Y-101.4
X156.08Y-102.4
X157.88Y-96.4
X158.0Y-103.8
X158.8Y-103.8
X159.6Y-103.8
X160.0Y-102.0
X160.4Y-103.0
X161.28Y-103.6
X162.2Y-92.7
X163.2Y-104.8
X163.6Y-94.1
X164.0Y-104.8
X164.8Y-104.8
T2
X134.265Y-78.8
X134.265Y-102.8
X134.814Y-77.474
X134.814Y-80.126
X134.814Y-101.474
X134.814Y-104.126
X136.14Y-76.925
X136.14Y-80.675
X136.14Y-100.925
X136.14Y-104.675
X137.466Y-77.474
X137.466Y-80.126
X137.466Y-101.474
X137.466Y-104.126
X138.015Y-78.8
X138.015Y-102.8
X150.6Y-91.6
X157.5Y-81.3
X157.6Y-87.3
X172.265Y-78.8
X172.265Y-102.8
X172.814Y-77.474
X172.814Y-80.126
X172.814Y-101.474
X172.814Y-104.126
X174.14Y-76.925
X174.14Y-80.675
X174.14Y-100.925
X174.14Y-104.675
X175.466Y-77.474
X175.466Y-80.126
X175.466Y-101.474
X175.466Y-104.126
X176.015Y-78.8
X176.015Y-102.8
T3
X153.4Y-91.6
X155.94Y-91.6
X158.48Y-91.6
T4
X134.54Y-84.45
X134.54Y-86.99
X134.54Y-89.53
X134.54Y-92.07
X134.54Y-94.61
X134.54Y-97.15
T5
X174.0Y-86.3
X174.0Y-89.3
X174.0Y-92.3
X174.0Y-95.3
T6
X141.9Y-83.3
X141.9Y-103.3
X164.14Y-83.3
X164.14Y-103.3
T7
X154.422Y-80.751
X154.422Y-86.751
T8
X158.222Y-83.751
X160.5Y-81.251
X160.5Y-86.251
T9
X144.4Y-80.8
X144.4Y-100.8
X166.64Y-80.8
X166.64Y-100.8
T10
X174.0Y-84.15
X174.0Y-97.45
T11
X136.14Y-78.8
X136.14Y-102.8
X174.14Y-78.8
X174.14Y-102.8
M30
