G04 #@! TF.GenerationSoftware,KiCad,Pcbnew,8.0.9*
G04 #@! TF.CreationDate,2025-04-23T02:57:42-04:00*
G04 #@! TF.ProjectId,digital-gate-driver,64696769-7461-46c2-9d67-6174652d6472,rev?*
G04 #@! TF.SameCoordinates,Original*
G04 #@! TF.FileFunction,Soldermask,Top*
G04 #@! TF.FilePolarity,Negative*
%FSLAX46Y46*%
G04 Gerber Fmt 4.6, Leading zero omitted, Abs format (unit mm)*
G04 Created by KiCad (PCBNEW 8.0.9) date 2025-04-23 02:57:42*
%MOMM*%
%LPD*%
G01*
G04 APERTURE LIST*
G04 Aperture macros list*
%AMRoundRect*
0 Rectangle with rounded corners*
0 $1 Rounding radius*
0 $2 $3 $4 $5 $6 $7 $8 $9 X,Y pos of 4 corners*
0 Add a 4 corners polygon primitive as box body*
4,1,4,$2,$3,$4,$5,$6,$7,$8,$9,$2,$3,0*
0 Add four circle primitives for the rounded corners*
1,1,$1+$1,$2,$3*
1,1,$1+$1,$4,$5*
1,1,$1+$1,$6,$7*
1,1,$1+$1,$8,$9*
0 Add four rect primitives between the rounded corners*
20,1,$1+$1,$2,$3,$4,$5,0*
20,1,$1+$1,$4,$5,$6,$7,0*
20,1,$1+$1,$6,$7,$8,$9,0*
20,1,$1+$1,$8,$9,$2,$3,0*%
%AMFreePoly0*
4,1,17,0.198500,-0.320000,0.195000,-0.323500,-0.045000,-0.323500,-0.048500,-0.320000,-0.048500,-0.230000,-0.051166,-0.188780,-0.092386,-0.117386,-0.163780,-0.076166,-0.205000,-0.073500,-0.445000,-0.073500,-0.486220,-0.076166,-0.557614,-0.117386,-0.598834,-0.188780,-0.601500,-0.230000,-0.601500,0.125000,0.198500,0.125000,0.198500,-0.320000,0.198500,-0.320000,$1*%
%AMFreePoly1*
4,1,11,0.173500,-0.425000,-0.170000,-0.425000,-0.202297,-0.422973,-0.247973,-0.377297,-0.250000,-0.345000,-0.250000,0.295000,-0.247973,0.327297,-0.202297,0.372973,-0.170000,0.375000,0.173500,0.375000,0.173500,-0.425000,0.173500,-0.425000,$1*%
%AMFreePoly2*
4,1,11,0.201876,0.346955,0.246955,0.301876,0.250000,0.270000,0.250000,-0.370000,0.246955,-0.401876,0.201876,-0.446955,0.170000,-0.450000,-0.173500,-0.450000,-0.173500,0.350000,0.170000,0.350000,0.201876,0.346955,0.201876,0.346955,$1*%
%AMFreePoly3*
4,1,17,-0.001500,0.345000,-0.001500,0.255000,0.001166,0.213780,0.042386,0.142386,0.113780,0.101166,0.155000,0.098500,0.395000,0.098500,0.436220,0.101166,0.507614,0.142386,0.548834,0.213780,0.551500,0.255000,0.551500,-0.100000,-0.248500,-0.100000,-0.248500,0.345000,-0.245000,0.348500,-0.005000,0.348500,-0.001500,0.345000,-0.001500,0.345000,$1*%
G04 Aperture macros list end*
%ADD10C,1.356200*%
%ADD11C,0.661200*%
%ADD12C,0.836200*%
%ADD13C,0.010000*%
%ADD14C,2.905000*%
%ADD15C,1.623000*%
%ADD16C,1.000000*%
%ADD17RoundRect,0.050000X0.475000X0.175000X-0.475000X0.175000X-0.475000X-0.175000X0.475000X-0.175000X0*%
%ADD18C,0.800000*%
%ADD19C,5.000000*%
%ADD20R,0.400000X1.200000*%
%ADD21R,1.700000X1.700000*%
%ADD22O,1.700000X1.700000*%
%ADD23RoundRect,0.250000X-0.312500X-0.625000X0.312500X-0.625000X0.312500X0.625000X-0.312500X0.625000X0*%
%ADD24RoundRect,0.225000X-0.225000X-0.250000X0.225000X-0.250000X0.225000X0.250000X-0.225000X0.250000X0*%
%ADD25R,1.200000X0.600000*%
%ADD26RoundRect,0.200000X0.275000X-0.200000X0.275000X0.200000X-0.275000X0.200000X-0.275000X-0.200000X0*%
%ADD27RoundRect,0.200000X-0.200000X-0.275000X0.200000X-0.275000X0.200000X0.275000X-0.200000X0.275000X0*%
%ADD28RoundRect,0.225000X0.250000X-0.225000X0.250000X0.225000X-0.250000X0.225000X-0.250000X-0.225000X0*%
%ADD29FreePoly0,90.000000*%
%ADD30FreePoly1,90.000000*%
%ADD31FreePoly2,90.000000*%
%ADD32FreePoly3,90.000000*%
%ADD33C,2.295400*%
%ADD34C,1.200000*%
%ADD35C,2.574800*%
%ADD36FreePoly0,180.000000*%
%ADD37FreePoly1,180.000000*%
%ADD38FreePoly2,180.000000*%
%ADD39FreePoly3,180.000000*%
%ADD40RoundRect,0.250000X0.312500X0.625000X-0.312500X0.625000X-0.312500X-0.625000X0.312500X-0.625000X0*%
G04 APERTURE END LIST*
D10*
X174678100Y-84150000D02*
G75*
G02*
X173321900Y-84150000I-678100J0D01*
G01*
X173321900Y-84150000D02*
G75*
G02*
X174678100Y-84150000I678100J0D01*
G01*
D11*
X174330600Y-86300000D02*
G75*
G02*
X173669400Y-86300000I-330600J0D01*
G01*
X173669400Y-86300000D02*
G75*
G02*
X174330600Y-86300000I330600J0D01*
G01*
D12*
X174418100Y-89300000D02*
G75*
G02*
X173581900Y-89300000I-418100J0D01*
G01*
X173581900Y-89300000D02*
G75*
G02*
X174418100Y-89300000I418100J0D01*
G01*
X174418100Y-92300000D02*
G75*
G02*
X173581900Y-92300000I-418100J0D01*
G01*
X173581900Y-92300000D02*
G75*
G02*
X174418100Y-92300000I418100J0D01*
G01*
D10*
X174678100Y-97450000D02*
G75*
G02*
X173321900Y-97450000I-678100J0D01*
G01*
X173321900Y-97450000D02*
G75*
G02*
X174678100Y-97450000I678100J0D01*
G01*
D13*
X174661200Y-95961200D02*
X173338800Y-95961200D01*
X173338800Y-94638800D01*
X174661200Y-94638800D01*
X174661200Y-95961200D01*
G36*
X174661200Y-95961200D02*
G01*
X173338800Y-95961200D01*
X173338800Y-94638800D01*
X174661200Y-94638800D01*
X174661200Y-95961200D01*
G37*
D14*
X144400000Y-100799999D03*
D15*
X141900000Y-103299999D03*
D14*
X166640000Y-100799999D03*
D15*
X164140000Y-103299999D03*
D14*
X144400000Y-80799999D03*
D15*
X141900000Y-83299999D03*
D14*
X166640000Y-80799999D03*
D15*
X164140000Y-83299999D03*
D16*
X157600000Y-87300000D03*
X157500000Y-81300000D03*
X150600000Y-91600000D03*
D17*
X153780000Y-100025000D03*
X151180000Y-100025000D03*
X153780000Y-99375000D03*
X151180000Y-99375000D03*
X153780000Y-98725000D03*
X151180000Y-98725000D03*
X153780000Y-98075000D03*
X151180000Y-98075000D03*
D18*
X138015001Y-102799998D03*
X137465826Y-104125823D03*
X137465826Y-101474173D03*
X136140001Y-104674998D03*
D19*
X136140001Y-102799998D03*
D18*
X136140001Y-100924998D03*
X134814176Y-104125823D03*
X134814176Y-101474173D03*
X134265001Y-102799998D03*
D20*
X146050000Y-89850000D03*
X145400000Y-89850000D03*
X144750000Y-89850000D03*
X144750000Y-91750000D03*
X146050000Y-91750000D03*
D21*
X134540000Y-84450000D03*
D22*
X134540000Y-86990000D03*
X134540000Y-89530000D03*
X134540000Y-92070000D03*
X134540000Y-94610000D03*
X134540000Y-97150000D03*
D23*
X158367500Y-102000000D03*
X161292500Y-102000000D03*
D18*
X176015000Y-102799999D03*
X175465825Y-104125824D03*
X175465825Y-101474174D03*
X174140000Y-104674999D03*
D19*
X174140000Y-102799999D03*
D18*
X174140000Y-100924999D03*
X172814175Y-104125824D03*
X172814175Y-101474174D03*
X172265000Y-102799999D03*
D24*
X159055000Y-96400000D03*
X160605000Y-96400000D03*
D25*
X151071726Y-82800500D03*
X151071726Y-83750500D03*
X151071726Y-84700500D03*
X148571726Y-84700500D03*
X148571726Y-83750500D03*
X148571726Y-82800500D03*
D18*
X134265000Y-78799999D03*
X134814175Y-77474174D03*
X134814175Y-80125824D03*
X136140000Y-76924999D03*
D19*
X136140000Y-78799999D03*
D18*
X136140000Y-80674999D03*
X137465825Y-77474174D03*
X137465825Y-80125824D03*
X138015000Y-78799999D03*
D26*
X155280000Y-99875000D03*
X155280000Y-98225000D03*
D27*
X151655000Y-96800000D03*
X153305000Y-96800000D03*
D26*
X156880000Y-98225000D03*
X156880000Y-99875000D03*
D25*
X158580000Y-98100000D03*
X158580000Y-99050000D03*
X158580000Y-100000000D03*
X161080000Y-100000000D03*
X161080000Y-98100000D03*
D28*
X149480000Y-99825000D03*
X149480000Y-98275000D03*
D24*
X151705000Y-101400000D03*
X153255000Y-101400000D03*
D29*
X152396726Y-83075500D03*
D30*
X152646726Y-83850500D03*
D31*
X152621726Y-82550500D03*
D32*
X152971726Y-83275500D03*
D20*
X156730000Y-101450000D03*
X156080000Y-101450000D03*
X155430000Y-101450000D03*
X155430000Y-103350000D03*
X156730000Y-103350000D03*
D18*
X172265000Y-78799999D03*
X172814175Y-77474174D03*
X172814175Y-80125824D03*
X174140000Y-76924999D03*
D19*
X174140000Y-78799999D03*
D18*
X174140000Y-80674999D03*
X175465825Y-77474174D03*
X175465825Y-80125824D03*
X176015000Y-78799999D03*
D24*
X149996726Y-86350500D03*
X148446726Y-86350500D03*
D33*
X154421726Y-86750500D03*
X154421726Y-80750500D03*
D34*
X153400000Y-91600000D03*
X155940000Y-91600000D03*
X158480000Y-91600000D03*
D24*
X149996726Y-87950500D03*
X148446726Y-87950500D03*
D35*
X160500000Y-81250500D03*
X158221726Y-83750500D03*
X160500000Y-86250500D03*
D36*
X154296726Y-84025500D03*
D37*
X155071726Y-83775500D03*
D38*
X153771726Y-83800500D03*
D39*
X154496726Y-83450500D03*
D40*
X148937500Y-80400000D03*
X151862500Y-80400000D03*
M02*
