G04 #@! TF.GenerationSoftware,KiCad,Pcbnew,8.0.9*
G04 #@! TF.CreationDate,2025-04-23T02:57:42-04:00*
G04 #@! TF.ProjectId,digital-gate-driver,64696769-7461-46c2-9d67-6174652d6472,rev?*
G04 #@! TF.SameCoordinates,Original*
G04 #@! TF.FileFunction,Legend,Bot*
G04 #@! TF.FilePolarity,Positive*
%FSLAX46Y46*%
G04 Gerber Fmt 4.6, Leading zero omitted, Abs format (unit mm)*
G04 Created by KiCad (PCBNEW 8.0.9) date 2025-04-23 02:57:42*
%MOMM*%
%LPD*%
G01*
G04 APERTURE LIST*
%ADD10C,1.356200*%
%ADD11C,0.661200*%
%ADD12C,0.836200*%
%ADD13C,0.010000*%
%ADD14C,2.905000*%
%ADD15C,1.623000*%
%ADD16C,1.000000*%
%ADD17C,0.800000*%
%ADD18C,5.000000*%
%ADD19R,1.700000X1.700000*%
%ADD20O,1.700000X1.700000*%
%ADD21C,2.295400*%
%ADD22C,1.200000*%
%ADD23C,2.574800*%
G04 APERTURE END LIST*
G36*
X168100000Y-102800000D02*
G01*
X169100000Y-102800000D01*
X169100000Y-103800000D01*
X168100000Y-103800000D01*
X168100000Y-102800000D01*
G37*
G36*
X169100000Y-103800000D02*
G01*
X170100000Y-103800000D01*
X170100000Y-104800000D01*
X169100000Y-104800000D01*
X169100000Y-103800000D01*
G37*
%LPC*%
D10*
X174678100Y-84150000D02*
G75*
G02*
X173321900Y-84150000I-678100J0D01*
G01*
X173321900Y-84150000D02*
G75*
G02*
X174678100Y-84150000I678100J0D01*
G01*
D11*
X174330600Y-86300000D02*
G75*
G02*
X173669400Y-86300000I-330600J0D01*
G01*
X173669400Y-86300000D02*
G75*
G02*
X174330600Y-86300000I330600J0D01*
G01*
D12*
X174418100Y-89300000D02*
G75*
G02*
X173581900Y-89300000I-418100J0D01*
G01*
X173581900Y-89300000D02*
G75*
G02*
X174418100Y-89300000I418100J0D01*
G01*
X174418100Y-92300000D02*
G75*
G02*
X173581900Y-92300000I-418100J0D01*
G01*
X173581900Y-92300000D02*
G75*
G02*
X174418100Y-92300000I418100J0D01*
G01*
D10*
X174678100Y-97450000D02*
G75*
G02*
X173321900Y-97450000I-678100J0D01*
G01*
X173321900Y-97450000D02*
G75*
G02*
X174678100Y-97450000I678100J0D01*
G01*
D13*
X174661200Y-95961200D02*
X173338800Y-95961200D01*
X173338800Y-94638800D01*
X174661200Y-94638800D01*
X174661200Y-95961200D01*
G36*
X174661200Y-95961200D02*
G01*
X173338800Y-95961200D01*
X173338800Y-94638800D01*
X174661200Y-94638800D01*
X174661200Y-95961200D01*
G37*
D14*
X144400000Y-100799999D03*
D15*
X141900000Y-103299999D03*
D14*
X166640000Y-100799999D03*
D15*
X164140000Y-103299999D03*
D14*
X144400000Y-80799999D03*
D15*
X141900000Y-83299999D03*
D14*
X166640000Y-80799999D03*
D15*
X164140000Y-83299999D03*
D16*
X157600000Y-87300000D03*
X157500000Y-81300000D03*
X150600000Y-91600000D03*
D17*
X138015001Y-102799998D03*
X137465826Y-104125823D03*
X137465826Y-101474173D03*
X136140001Y-104674998D03*
D18*
X136140001Y-102799998D03*
D17*
X136140001Y-100924998D03*
X134814176Y-104125823D03*
X134814176Y-101474173D03*
X134265001Y-102799998D03*
D19*
X134540000Y-84450000D03*
D20*
X134540000Y-86990000D03*
X134540000Y-89530000D03*
X134540000Y-92070000D03*
X134540000Y-94610000D03*
X134540000Y-97150000D03*
D17*
X176015000Y-102799999D03*
X175465825Y-104125824D03*
X175465825Y-101474174D03*
X174140000Y-104674999D03*
D18*
X174140000Y-102799999D03*
D17*
X174140000Y-100924999D03*
X172814175Y-104125824D03*
X172814175Y-101474174D03*
X172265000Y-102799999D03*
X134265000Y-78799999D03*
X134814175Y-77474174D03*
X134814175Y-80125824D03*
X136140000Y-76924999D03*
D18*
X136140000Y-78799999D03*
D17*
X136140000Y-80674999D03*
X137465825Y-77474174D03*
X137465825Y-80125824D03*
X138015000Y-78799999D03*
X172265000Y-78799999D03*
X172814175Y-77474174D03*
X172814175Y-80125824D03*
X174140000Y-76924999D03*
D18*
X174140000Y-78799999D03*
D17*
X174140000Y-80674999D03*
X175465825Y-77474174D03*
X175465825Y-80125824D03*
X176015000Y-78799999D03*
D21*
X154421726Y-86750500D03*
X154421726Y-80750500D03*
D22*
X153400000Y-91600000D03*
X155940000Y-91600000D03*
X158480000Y-91600000D03*
D23*
X160500000Y-81250500D03*
X158221726Y-83750500D03*
X160500000Y-86250500D03*
%LPD*%
M02*
