%TF.GenerationSoftware,KiCad,Pcbnew,8.0.9*%
%TF.CreationDate,2025-04-23T02:47:11-04:00*%
%TF.ProjectId,digital-gate-driver,64696769-7461-46c2-9d67-6174652d6472,rev?*%
%TF.SameCoordinates,Original*%
%TF.FileFunction,Drillmap*%
%TF.FilePolarity,Positive*%
%FSLAX45Y45*%
G04 Gerber Fmt 4.5, Leading zero omitted, Abs format (unit mm)*
G04 Created by KiCad (PCBNEW 8.0.9) date 2025-04-23 02:47:11*
%MOMM*%
%LPD*%
G01*
G04 APERTURE LIST*
%ADD10C,0.100000*%
%ADD11C,0.200000*%
G04 APERTURE END LIST*
D10*
X17414000Y-7580000D02*
X17414000Y-7580000D01*
G75*
G02*
X17714000Y-7880000I0J-300000D01*
G01*
X17714000Y-10280000D01*
G75*
G02*
X17414000Y-10580000I-300000J0D01*
G01*
X13614000Y-10580000D01*
G75*
G02*
X13314000Y-10280000I0J300000D01*
G01*
X13314000Y-7880000D01*
G75*
G02*
X13614000Y-7580000I300000J0D01*
G01*
X17414000Y-7580000D01*
D11*
X13569777Y-10896484D02*
X13569777Y-10696484D01*
X13569777Y-10696484D02*
X13617396Y-10696484D01*
X13617396Y-10696484D02*
X13645967Y-10706008D01*
X13645967Y-10706008D02*
X13665015Y-10725055D01*
X13665015Y-10725055D02*
X13674539Y-10744103D01*
X13674539Y-10744103D02*
X13684062Y-10782198D01*
X13684062Y-10782198D02*
X13684062Y-10810769D01*
X13684062Y-10810769D02*
X13674539Y-10848865D01*
X13674539Y-10848865D02*
X13665015Y-10867912D01*
X13665015Y-10867912D02*
X13645967Y-10886960D01*
X13645967Y-10886960D02*
X13617396Y-10896484D01*
X13617396Y-10896484D02*
X13569777Y-10896484D01*
X13769777Y-10896484D02*
X13769777Y-10763150D01*
X13769777Y-10801246D02*
X13779301Y-10782198D01*
X13779301Y-10782198D02*
X13788824Y-10772674D01*
X13788824Y-10772674D02*
X13807872Y-10763150D01*
X13807872Y-10763150D02*
X13826920Y-10763150D01*
X13893586Y-10896484D02*
X13893586Y-10763150D01*
X13893586Y-10696484D02*
X13884062Y-10706008D01*
X13884062Y-10706008D02*
X13893586Y-10715531D01*
X13893586Y-10715531D02*
X13903110Y-10706008D01*
X13903110Y-10706008D02*
X13893586Y-10696484D01*
X13893586Y-10696484D02*
X13893586Y-10715531D01*
X14017396Y-10896484D02*
X13998348Y-10886960D01*
X13998348Y-10886960D02*
X13988824Y-10867912D01*
X13988824Y-10867912D02*
X13988824Y-10696484D01*
X14122158Y-10896484D02*
X14103110Y-10886960D01*
X14103110Y-10886960D02*
X14093586Y-10867912D01*
X14093586Y-10867912D02*
X14093586Y-10696484D01*
X14350729Y-10896484D02*
X14350729Y-10696484D01*
X14350729Y-10696484D02*
X14417396Y-10839341D01*
X14417396Y-10839341D02*
X14484062Y-10696484D01*
X14484062Y-10696484D02*
X14484062Y-10896484D01*
X14665015Y-10896484D02*
X14665015Y-10791722D01*
X14665015Y-10791722D02*
X14655491Y-10772674D01*
X14655491Y-10772674D02*
X14636443Y-10763150D01*
X14636443Y-10763150D02*
X14598348Y-10763150D01*
X14598348Y-10763150D02*
X14579301Y-10772674D01*
X14665015Y-10886960D02*
X14645967Y-10896484D01*
X14645967Y-10896484D02*
X14598348Y-10896484D01*
X14598348Y-10896484D02*
X14579301Y-10886960D01*
X14579301Y-10886960D02*
X14569777Y-10867912D01*
X14569777Y-10867912D02*
X14569777Y-10848865D01*
X14569777Y-10848865D02*
X14579301Y-10829817D01*
X14579301Y-10829817D02*
X14598348Y-10820293D01*
X14598348Y-10820293D02*
X14645967Y-10820293D01*
X14645967Y-10820293D02*
X14665015Y-10810769D01*
X14760253Y-10763150D02*
X14760253Y-10963150D01*
X14760253Y-10772674D02*
X14779301Y-10763150D01*
X14779301Y-10763150D02*
X14817396Y-10763150D01*
X14817396Y-10763150D02*
X14836443Y-10772674D01*
X14836443Y-10772674D02*
X14845967Y-10782198D01*
X14845967Y-10782198D02*
X14855491Y-10801246D01*
X14855491Y-10801246D02*
X14855491Y-10858388D01*
X14855491Y-10858388D02*
X14845967Y-10877436D01*
X14845967Y-10877436D02*
X14836443Y-10886960D01*
X14836443Y-10886960D02*
X14817396Y-10896484D01*
X14817396Y-10896484D02*
X14779301Y-10896484D01*
X14779301Y-10896484D02*
X14760253Y-10886960D01*
X14941205Y-10877436D02*
X14950729Y-10886960D01*
X14950729Y-10886960D02*
X14941205Y-10896484D01*
X14941205Y-10896484D02*
X14931682Y-10886960D01*
X14931682Y-10886960D02*
X14941205Y-10877436D01*
X14941205Y-10877436D02*
X14941205Y-10896484D01*
X14941205Y-10772674D02*
X14950729Y-10782198D01*
X14950729Y-10782198D02*
X14941205Y-10791722D01*
X14941205Y-10791722D02*
X14931682Y-10782198D01*
X14931682Y-10782198D02*
X14941205Y-10772674D01*
X14941205Y-10772674D02*
X14941205Y-10791722D01*
M02*
