G04 #@! TF.GenerationSoftware,KiCad,Pcbnew,8.0.9*
G04 #@! TF.CreationDate,2025-04-23T02:57:41-04:00*
G04 #@! TF.ProjectId,digital-gate-driver,64696769-7461-46c2-9d67-6174652d6472,rev?*
G04 #@! TF.SameCoordinates,Original*
G04 #@! TF.FileFunction,Copper,L1,Top*
G04 #@! TF.FilePolarity,Positive*
%FSLAX46Y46*%
G04 Gerber Fmt 4.6, Leading zero omitted, Abs format (unit mm)*
G04 Created by KiCad (PCBNEW 8.0.9) date 2025-04-23 02:57:41*
%MOMM*%
%LPD*%
G01*
G04 APERTURE LIST*
G04 Aperture macros list*
%AMRoundRect*
0 Rectangle with rounded corners*
0 $1 Rounding radius*
0 $2 $3 $4 $5 $6 $7 $8 $9 X,Y pos of 4 corners*
0 Add a 4 corners polygon primitive as box body*
4,1,4,$2,$3,$4,$5,$6,$7,$8,$9,$2,$3,0*
0 Add four circle primitives for the rounded corners*
1,1,$1+$1,$2,$3*
1,1,$1+$1,$4,$5*
1,1,$1+$1,$6,$7*
1,1,$1+$1,$8,$9*
0 Add four rect primitives between the rounded corners*
20,1,$1+$1,$2,$3,$4,$5,0*
20,1,$1+$1,$4,$5,$6,$7,0*
20,1,$1+$1,$6,$7,$8,$9,0*
20,1,$1+$1,$8,$9,$2,$3,0*%
%AMFreePoly0*
4,1,17,0.198500,-0.320000,0.195000,-0.323500,-0.045000,-0.323500,-0.048500,-0.320000,-0.048500,-0.230000,-0.051166,-0.188780,-0.092386,-0.117386,-0.163780,-0.076166,-0.205000,-0.073500,-0.445000,-0.073500,-0.486220,-0.076166,-0.557614,-0.117386,-0.598834,-0.188780,-0.601500,-0.230000,-0.601500,0.125000,0.198500,0.125000,0.198500,-0.320000,0.198500,-0.320000,$1*%
%AMFreePoly1*
4,1,11,0.173500,-0.425000,-0.170000,-0.425000,-0.202297,-0.422973,-0.247973,-0.377297,-0.250000,-0.345000,-0.250000,0.295000,-0.247973,0.327297,-0.202297,0.372973,-0.170000,0.375000,0.173500,0.375000,0.173500,-0.425000,0.173500,-0.425000,$1*%
%AMFreePoly2*
4,1,11,0.201876,0.346955,0.246955,0.301876,0.250000,0.270000,0.250000,-0.370000,0.246955,-0.401876,0.201876,-0.446955,0.170000,-0.450000,-0.173500,-0.450000,-0.173500,0.350000,0.170000,0.350000,0.201876,0.346955,0.201876,0.346955,$1*%
%AMFreePoly3*
4,1,17,-0.001500,0.345000,-0.001500,0.255000,0.001166,0.213780,0.042386,0.142386,0.113780,0.101166,0.155000,0.098500,0.395000,0.098500,0.436220,0.101166,0.507614,0.142386,0.548834,0.213780,0.551500,0.255000,0.551500,-0.100000,-0.248500,-0.100000,-0.248500,0.345000,-0.245000,0.348500,-0.005000,0.348500,-0.001500,0.345000,-0.001500,0.345000,$1*%
G04 Aperture macros list end*
G04 #@! TA.AperFunction,ComponentPad*
%ADD10C,2.905000*%
G04 #@! TD*
G04 #@! TA.AperFunction,ComponentPad*
%ADD11C,1.623000*%
G04 #@! TD*
G04 #@! TA.AperFunction,ComponentPad*
%ADD12C,1.000000*%
G04 #@! TD*
G04 #@! TA.AperFunction,ComponentPad*
%ADD13R,1.170000X1.170000*%
G04 #@! TD*
G04 #@! TA.AperFunction,ComponentPad*
%ADD14C,1.520000*%
G04 #@! TD*
G04 #@! TA.AperFunction,ComponentPad*
%ADD15C,1.170000*%
G04 #@! TD*
G04 #@! TA.AperFunction,ComponentPad*
%ADD16C,2.560000*%
G04 #@! TD*
G04 #@! TA.AperFunction,SMDPad,CuDef*
%ADD17RoundRect,0.050000X0.475000X0.175000X-0.475000X0.175000X-0.475000X-0.175000X0.475000X-0.175000X0*%
G04 #@! TD*
G04 #@! TA.AperFunction,ComponentPad*
%ADD18C,0.800000*%
G04 #@! TD*
G04 #@! TA.AperFunction,ComponentPad*
%ADD19C,5.000000*%
G04 #@! TD*
G04 #@! TA.AperFunction,SMDPad,CuDef*
%ADD20R,0.400000X1.200000*%
G04 #@! TD*
G04 #@! TA.AperFunction,ComponentPad*
%ADD21R,1.700000X1.700000*%
G04 #@! TD*
G04 #@! TA.AperFunction,ComponentPad*
%ADD22O,1.700000X1.700000*%
G04 #@! TD*
G04 #@! TA.AperFunction,SMDPad,CuDef*
%ADD23RoundRect,0.250000X-0.312500X-0.625000X0.312500X-0.625000X0.312500X0.625000X-0.312500X0.625000X0*%
G04 #@! TD*
G04 #@! TA.AperFunction,SMDPad,CuDef*
%ADD24RoundRect,0.225000X-0.225000X-0.250000X0.225000X-0.250000X0.225000X0.250000X-0.225000X0.250000X0*%
G04 #@! TD*
G04 #@! TA.AperFunction,SMDPad,CuDef*
%ADD25R,1.200000X0.600000*%
G04 #@! TD*
G04 #@! TA.AperFunction,SMDPad,CuDef*
%ADD26RoundRect,0.200000X0.275000X-0.200000X0.275000X0.200000X-0.275000X0.200000X-0.275000X-0.200000X0*%
G04 #@! TD*
G04 #@! TA.AperFunction,SMDPad,CuDef*
%ADD27RoundRect,0.200000X-0.200000X-0.275000X0.200000X-0.275000X0.200000X0.275000X-0.200000X0.275000X0*%
G04 #@! TD*
G04 #@! TA.AperFunction,SMDPad,CuDef*
%ADD28RoundRect,0.225000X0.250000X-0.225000X0.250000X0.225000X-0.250000X0.225000X-0.250000X-0.225000X0*%
G04 #@! TD*
G04 #@! TA.AperFunction,SMDPad,CuDef*
%ADD29FreePoly0,90.000000*%
G04 #@! TD*
G04 #@! TA.AperFunction,SMDPad,CuDef*
%ADD30FreePoly1,90.000000*%
G04 #@! TD*
G04 #@! TA.AperFunction,SMDPad,CuDef*
%ADD31FreePoly2,90.000000*%
G04 #@! TD*
G04 #@! TA.AperFunction,SMDPad,CuDef*
%ADD32FreePoly3,90.000000*%
G04 #@! TD*
G04 #@! TA.AperFunction,ComponentPad*
%ADD33C,2.295400*%
G04 #@! TD*
G04 #@! TA.AperFunction,ComponentPad*
%ADD34C,1.200000*%
G04 #@! TD*
G04 #@! TA.AperFunction,ComponentPad*
%ADD35C,2.574800*%
G04 #@! TD*
G04 #@! TA.AperFunction,SMDPad,CuDef*
%ADD36FreePoly0,180.000000*%
G04 #@! TD*
G04 #@! TA.AperFunction,SMDPad,CuDef*
%ADD37FreePoly1,180.000000*%
G04 #@! TD*
G04 #@! TA.AperFunction,SMDPad,CuDef*
%ADD38FreePoly2,180.000000*%
G04 #@! TD*
G04 #@! TA.AperFunction,SMDPad,CuDef*
%ADD39FreePoly3,180.000000*%
G04 #@! TD*
G04 #@! TA.AperFunction,SMDPad,CuDef*
%ADD40RoundRect,0.250000X0.312500X0.625000X-0.312500X0.625000X-0.312500X-0.625000X0.312500X-0.625000X0*%
G04 #@! TD*
G04 #@! TA.AperFunction,ViaPad*
%ADD41C,0.600000*%
G04 #@! TD*
G04 #@! TA.AperFunction,Conductor*
%ADD42C,0.152400*%
G04 #@! TD*
G04 #@! TA.AperFunction,Conductor*
%ADD43C,0.200000*%
G04 #@! TD*
G04 #@! TA.AperFunction,Conductor*
%ADD44C,0.381000*%
G04 #@! TD*
G04 #@! TA.AperFunction,Conductor*
%ADD45C,0.635000*%
G04 #@! TD*
G04 #@! TA.AperFunction,Conductor*
%ADD46C,1.016000*%
G04 #@! TD*
G04 #@! TA.AperFunction,Conductor*
%ADD47C,1.524000*%
G04 #@! TD*
G04 #@! TA.AperFunction,Conductor*
%ADD48C,0.254000*%
G04 #@! TD*
G04 APERTURE END LIST*
D10*
X144400000Y-100799999D03*
D11*
X141900000Y-103299999D03*
D10*
X166640000Y-100799999D03*
D11*
X164140000Y-103299999D03*
D10*
X144400000Y-80799999D03*
D11*
X141900000Y-83299999D03*
D10*
X166640000Y-80799999D03*
D11*
X164140000Y-83299999D03*
D12*
X157600000Y-87300000D03*
X157500000Y-81300000D03*
X150600000Y-91600000D03*
D13*
X174000000Y-95300000D03*
D14*
X174000000Y-92300000D03*
X174000000Y-89300000D03*
D15*
X174000000Y-86300000D03*
D16*
X174000000Y-97450000D03*
X174000000Y-84150000D03*
D17*
X153780000Y-100025000D03*
X151180000Y-100025000D03*
X153780000Y-99375000D03*
X151180000Y-99375000D03*
X153780000Y-98725000D03*
X151180000Y-98725000D03*
X153780000Y-98075000D03*
X151180000Y-98075000D03*
D18*
X138015001Y-102799998D03*
X137465826Y-104125823D03*
X137465826Y-101474173D03*
X136140001Y-104674998D03*
D19*
X136140001Y-102799998D03*
D18*
X136140001Y-100924998D03*
X134814176Y-104125823D03*
X134814176Y-101474173D03*
X134265001Y-102799998D03*
D20*
X146050000Y-89850000D03*
X145400000Y-89850000D03*
X144750000Y-89850000D03*
X144750000Y-91750000D03*
X146050000Y-91750000D03*
D21*
X134540000Y-84450000D03*
D22*
X134540000Y-86990000D03*
X134540000Y-89530000D03*
X134540000Y-92070000D03*
X134540000Y-94610000D03*
X134540000Y-97150000D03*
D23*
X158367500Y-102000000D03*
X161292500Y-102000000D03*
D18*
X176015000Y-102799999D03*
X175465825Y-104125824D03*
X175465825Y-101474174D03*
X174140000Y-104674999D03*
D19*
X174140000Y-102799999D03*
D18*
X174140000Y-100924999D03*
X172814175Y-104125824D03*
X172814175Y-101474174D03*
X172265000Y-102799999D03*
D24*
X159055000Y-96400000D03*
X160605000Y-96400000D03*
D25*
X151071726Y-82800500D03*
X151071726Y-83750500D03*
X151071726Y-84700500D03*
X148571726Y-84700500D03*
X148571726Y-83750500D03*
X148571726Y-82800500D03*
D18*
X134265000Y-78799999D03*
X134814175Y-77474174D03*
X134814175Y-80125824D03*
X136140000Y-76924999D03*
D19*
X136140000Y-78799999D03*
D18*
X136140000Y-80674999D03*
X137465825Y-77474174D03*
X137465825Y-80125824D03*
X138015000Y-78799999D03*
D26*
X155280000Y-99875000D03*
X155280000Y-98225000D03*
D27*
X151655000Y-96800000D03*
X153305000Y-96800000D03*
D26*
X156880000Y-98225000D03*
X156880000Y-99875000D03*
D25*
X158580000Y-98100000D03*
X158580000Y-99050000D03*
X158580000Y-100000000D03*
X161080000Y-100000000D03*
X161080000Y-98100000D03*
D28*
X149480000Y-99825000D03*
X149480000Y-98275000D03*
D24*
X151705000Y-101400000D03*
X153255000Y-101400000D03*
D29*
X152396726Y-83075500D03*
D30*
X152646726Y-83850500D03*
D31*
X152621726Y-82550500D03*
D32*
X152971726Y-83275500D03*
D20*
X156730000Y-101450000D03*
X156080000Y-101450000D03*
X155430000Y-101450000D03*
X155430000Y-103350000D03*
X156730000Y-103350000D03*
D18*
X172265000Y-78799999D03*
X172814175Y-77474174D03*
X172814175Y-80125824D03*
X174140000Y-76924999D03*
D19*
X174140000Y-78799999D03*
D18*
X174140000Y-80674999D03*
X175465825Y-77474174D03*
X175465825Y-80125824D03*
X176015000Y-78799999D03*
D24*
X149996726Y-86350500D03*
X148446726Y-86350500D03*
D33*
X154421726Y-86750500D03*
X154421726Y-80750500D03*
D34*
X153400000Y-91600000D03*
X155940000Y-91600000D03*
X158480000Y-91600000D03*
D24*
X149996726Y-87950500D03*
X148446726Y-87950500D03*
D35*
X160500000Y-81250500D03*
X158221726Y-83750500D03*
X160500000Y-86250500D03*
D36*
X154296726Y-84025500D03*
D37*
X155071726Y-83775500D03*
D38*
X153771726Y-83800500D03*
D39*
X154496726Y-83450500D03*
D40*
X148937500Y-80400000D03*
X151862500Y-80400000D03*
D41*
X143700000Y-86100000D03*
X143700000Y-90700000D03*
X144700000Y-88100000D03*
X146000000Y-86900000D03*
X150000000Y-80400000D03*
X154140997Y-97375867D03*
X163600000Y-94100000D03*
X162200000Y-92700000D03*
X164800000Y-104800000D03*
X164000000Y-104800000D03*
X163200000Y-104800000D03*
X158800000Y-103800000D03*
X158000000Y-103800000D03*
X159600000Y-103800000D03*
X160400000Y-103000000D03*
X160000000Y-102000000D03*
X145400000Y-88600000D03*
X145400000Y-90800000D03*
X152303800Y-98000000D03*
X154300000Y-96400000D03*
X161280000Y-103600000D03*
X156080000Y-102400000D03*
X152480000Y-100000000D03*
X154480000Y-101400000D03*
X148280000Y-99825000D03*
X150000000Y-89150500D03*
X148928274Y-81800000D03*
X148928274Y-79000000D03*
X147678274Y-80400000D03*
X157880000Y-96400000D03*
D42*
X143700000Y-90700000D02*
X144200000Y-90700000D01*
X144200000Y-90700000D02*
X144750000Y-91250000D01*
X144750000Y-91250000D02*
X144750000Y-91750000D01*
D43*
X148571726Y-83750500D02*
X147449500Y-83750500D01*
X146000000Y-85200000D02*
X146000000Y-86900000D01*
X147449500Y-83750500D02*
X146000000Y-85200000D01*
D42*
X143700000Y-86100000D02*
X146999500Y-82800500D01*
X146999500Y-82800500D02*
X148571726Y-82800500D01*
D43*
X144700000Y-89800000D02*
X144750000Y-89850000D01*
X144700000Y-88100000D02*
X144700000Y-89800000D01*
D44*
X154421726Y-86750500D02*
X154971226Y-87300000D01*
X154971226Y-87300000D02*
X157600000Y-87300000D01*
X154421726Y-80750500D02*
X156950500Y-80750500D01*
X156950500Y-80750500D02*
X157500000Y-81300000D01*
D42*
X157700000Y-83228774D02*
X158221726Y-83750500D01*
X153400000Y-91600000D02*
X150600000Y-91600000D01*
D45*
X159600000Y-103800000D02*
X158800000Y-103800000D01*
X148937500Y-80400000D02*
X150000000Y-80400000D01*
D46*
X151862500Y-80400000D02*
X151862500Y-79937500D01*
X151862500Y-79937500D02*
X153400000Y-78400000D01*
X157649500Y-78400000D02*
X160500000Y-81250500D01*
D42*
X154300000Y-96400000D02*
X155280000Y-97380000D01*
X155280000Y-97380000D02*
X155280000Y-98225000D01*
D44*
X153780000Y-98075000D02*
X154000000Y-97855000D01*
X154000000Y-97855000D02*
X154000000Y-97516864D01*
X154000000Y-97516864D02*
X154140997Y-97375867D01*
D42*
X162200000Y-92700000D02*
X159700000Y-92700000D01*
X159700000Y-92700000D02*
X156100000Y-96300000D01*
X156100000Y-96300000D02*
X156100000Y-99875000D01*
X163600000Y-94100000D02*
X166640000Y-97140000D01*
X166640000Y-97140000D02*
X166640000Y-100799999D01*
X155280000Y-99875000D02*
X156100000Y-99875000D01*
X156100000Y-99875000D02*
X156880000Y-99875000D01*
D45*
X164800000Y-104800000D02*
X166600000Y-104800000D01*
X166600000Y-104800000D02*
X169600000Y-101800000D01*
X169600000Y-101800000D02*
X169600000Y-97200000D01*
X174800000Y-93800000D02*
X175600000Y-93000000D01*
X169600000Y-97200000D02*
X173000000Y-93800000D01*
X173000000Y-93800000D02*
X174800000Y-93800000D01*
X175600000Y-93000000D02*
X175600000Y-87900000D01*
X175600000Y-87900000D02*
X174000000Y-86300000D01*
X164000000Y-104800000D02*
X163200000Y-104800000D01*
X164800000Y-104800000D02*
X164000000Y-104800000D01*
X158800000Y-103800000D02*
X158800000Y-102432500D01*
X158800000Y-102432500D02*
X158367500Y-102000000D01*
X158800000Y-103800000D02*
X158400000Y-103800000D01*
X158400000Y-103800000D02*
X157967500Y-103800000D01*
D44*
X161292500Y-102107500D02*
X160400000Y-103000000D01*
X161292500Y-102000000D02*
X161292500Y-102107500D01*
X161292500Y-102000000D02*
X160000000Y-102000000D01*
X161601250Y-94601250D02*
X162600000Y-95600000D01*
X162600000Y-95600000D02*
X162600000Y-103600000D01*
X153200000Y-104600000D02*
X151705000Y-103105000D01*
X162600000Y-103600000D02*
X161600000Y-104600000D01*
X161600000Y-104600000D02*
X153200000Y-104600000D01*
X151705000Y-103105000D02*
X151705000Y-101400000D01*
X163902500Y-92300000D02*
X162101250Y-94101250D01*
X162101250Y-94101250D02*
X160605000Y-95597500D01*
X174000000Y-92300000D02*
X163902500Y-92300000D01*
X160605000Y-95597500D02*
X160605000Y-96400000D01*
D47*
X160500000Y-86250500D02*
X163549500Y-89300000D01*
X163549500Y-89300000D02*
X174000000Y-89300000D01*
D42*
X151180000Y-99375000D02*
X150220038Y-99375000D01*
X150220038Y-99375000D02*
X149846238Y-99001200D01*
X149846238Y-99001200D02*
X149001200Y-99001200D01*
X149001200Y-99001200D02*
X147600000Y-97600000D01*
X147400000Y-97800000D02*
X147600000Y-97600000D01*
X147600000Y-97600000D02*
X147600000Y-92500000D01*
X147600000Y-92500000D02*
X146850000Y-91750000D01*
X146850000Y-91750000D02*
X146050000Y-91750000D01*
X147400000Y-97800000D02*
X147399999Y-97800000D01*
X147399999Y-97800000D02*
X144400000Y-100799999D01*
D44*
X160500000Y-86250500D02*
X160500000Y-84429842D01*
X164129843Y-80799999D02*
X166640000Y-80799999D01*
X160500000Y-84429842D02*
X164129843Y-80799999D01*
X151862500Y-80400000D02*
X151862500Y-80062500D01*
X151862500Y-80062500D02*
X150000000Y-78200000D01*
X150000000Y-78200000D02*
X146999999Y-78200000D01*
X146999999Y-78200000D02*
X144400000Y-80799999D01*
X149480000Y-98275000D02*
X149480000Y-94670000D01*
X149480000Y-94670000D02*
X150550000Y-93600000D01*
X150550000Y-93600000D02*
X150550000Y-93450000D01*
X146950000Y-89850000D02*
X150100000Y-93000000D01*
X150100000Y-93000000D02*
X151655000Y-94555000D01*
X146050000Y-89850000D02*
X146950000Y-89850000D01*
X151655000Y-94555000D02*
X151655000Y-96800000D01*
X146050000Y-89850000D02*
X146090500Y-89809500D01*
X146090500Y-89809500D02*
X146090500Y-88313985D01*
X146090500Y-88313985D02*
X144766515Y-86990000D01*
X144766515Y-86990000D02*
X134540000Y-86990000D01*
X145400000Y-89850000D02*
X145400000Y-88600000D01*
X145400000Y-89850000D02*
X145400000Y-90800000D01*
D42*
X134540000Y-97150000D02*
X140950000Y-97150000D01*
X140950000Y-97150000D02*
X146050000Y-92050000D01*
X146050000Y-92050000D02*
X146050000Y-91750000D01*
X144750000Y-91750000D02*
X134860000Y-91750000D01*
X134860000Y-91750000D02*
X134540000Y-92070000D01*
X144750000Y-89850000D02*
X134860000Y-89850000D01*
X134860000Y-89850000D02*
X134540000Y-89530000D01*
X152303800Y-98000000D02*
X152280000Y-98023800D01*
X152280000Y-98023800D02*
X152280000Y-99000000D01*
X152280000Y-99000000D02*
X151905000Y-99375000D01*
X151905000Y-99375000D02*
X151180000Y-99375000D01*
X153780000Y-98725000D02*
X153005000Y-98725000D01*
X153005000Y-98725000D02*
X152880000Y-98600000D01*
X152880000Y-97225000D02*
X153305000Y-96800000D01*
X152880000Y-98600000D02*
X152880000Y-97225000D01*
X153400000Y-91600000D02*
X153400000Y-96705000D01*
X153400000Y-96705000D02*
X153305000Y-96800000D01*
D44*
X161292500Y-103587500D02*
X161280000Y-103600000D01*
X161292500Y-102000000D02*
X161292500Y-103587500D01*
X161080000Y-100000000D02*
X161080000Y-101787500D01*
X161080000Y-101787500D02*
X161292500Y-102000000D01*
X158580000Y-99050000D02*
X159430000Y-99050000D01*
X159430000Y-99050000D02*
X159680000Y-98800000D01*
X159680000Y-98800000D02*
X159680000Y-97025000D01*
X159680000Y-97025000D02*
X159055000Y-96400000D01*
X161080000Y-98100000D02*
X161080000Y-96875000D01*
X161080000Y-96875000D02*
X160605000Y-96400000D01*
X158580000Y-100000000D02*
X158580000Y-101787500D01*
X158580000Y-101787500D02*
X158367500Y-102000000D01*
X156080000Y-101450000D02*
X156080000Y-102400000D01*
X158580000Y-98100000D02*
X157005000Y-98100000D01*
X157005000Y-98100000D02*
X156880000Y-98225000D01*
X156730000Y-101450000D02*
X156730000Y-100025000D01*
X156730000Y-100025000D02*
X156880000Y-99875000D01*
D42*
X153780000Y-99375000D02*
X154780000Y-99375000D01*
X154780000Y-99375000D02*
X155280000Y-99875000D01*
D44*
X152505000Y-100025000D02*
X152480000Y-100000000D01*
X153780000Y-100025000D02*
X152505000Y-100025000D01*
D48*
X148280000Y-99825000D02*
X149480000Y-99825000D01*
X149680000Y-99825000D02*
X149480000Y-99825000D01*
D44*
X149480000Y-98275000D02*
X149955000Y-98275000D01*
X149955000Y-98275000D02*
X150405000Y-98725000D01*
X150405000Y-98725000D02*
X151180000Y-98725000D01*
X153255000Y-101400000D02*
X154480000Y-101400000D01*
X151180000Y-100025000D02*
X151180000Y-100875000D01*
X151180000Y-100875000D02*
X151705000Y-101400000D01*
X149996726Y-89147226D02*
X150000000Y-89150500D01*
X149996726Y-87950500D02*
X149996726Y-89147226D01*
X149996726Y-86350500D02*
X149996726Y-87950500D01*
X148446726Y-86350500D02*
X148446726Y-87950500D01*
X151071726Y-84700500D02*
X151071726Y-85275500D01*
X151071726Y-85275500D02*
X149996726Y-86350500D01*
X148571726Y-84700500D02*
X148571726Y-86225500D01*
X148571726Y-86225500D02*
X148446726Y-86350500D01*
D45*
X148937500Y-80400000D02*
X148937500Y-81790774D01*
X148937500Y-80400000D02*
X148937500Y-79009226D01*
X148937500Y-80400000D02*
X147678274Y-80400000D01*
D44*
X158221726Y-83750500D02*
X155221726Y-86750500D01*
X155221726Y-86750500D02*
X154421726Y-86750500D01*
X154421726Y-80750500D02*
X152641426Y-82530800D01*
X152641426Y-82530800D02*
X152128324Y-82530800D01*
X152128324Y-82530800D02*
X151858624Y-82800500D01*
X151858624Y-82800500D02*
X151071726Y-82800500D01*
X158221726Y-83750500D02*
X155116426Y-83750500D01*
X155116426Y-83750500D02*
X155091426Y-83775500D01*
D48*
X153771726Y-83800500D02*
X153721726Y-83850500D01*
D44*
X153721726Y-83870500D02*
X152646726Y-83870500D01*
X151071726Y-83750500D02*
X151191426Y-83870200D01*
X151191426Y-83870200D02*
X152646726Y-83870200D01*
X159055000Y-96400000D02*
X157880000Y-96400000D01*
X148446726Y-87950500D02*
X148446726Y-88846726D01*
X161602500Y-90000000D02*
X163902500Y-92300000D01*
X148446726Y-88846726D02*
X149600000Y-90000000D01*
X149600000Y-90000000D02*
X161602500Y-90000000D01*
D46*
X153400000Y-78400000D02*
X157649500Y-78400000D01*
G04 #@! TA.AperFunction,Conductor*
G36*
X143824987Y-90428816D02*
G01*
X143826317Y-90429475D01*
X144311378Y-90709208D01*
X144316832Y-90716308D01*
X144315667Y-90725187D01*
X144313805Y-90727615D01*
X144218604Y-90822816D01*
X144214482Y-90825482D01*
X143825406Y-90973140D01*
X143816456Y-90972871D01*
X143810452Y-90966693D01*
X143701163Y-90703793D01*
X143701153Y-90694841D01*
X143809680Y-90435100D01*
X143816032Y-90428789D01*
X143824987Y-90428816D01*
G37*
G04 #@! TD.AperFunction*
G04 #@! TA.AperFunction,Conductor*
G36*
X144570729Y-90962667D02*
G01*
X144671235Y-91059536D01*
X144761393Y-91146432D01*
X144764972Y-91154640D01*
X144764971Y-91155136D01*
X144750943Y-91740851D01*
X144747319Y-91749040D01*
X144740955Y-91752146D01*
X144561744Y-91778605D01*
X144553059Y-91776423D01*
X144548460Y-91768739D01*
X144455458Y-91068187D01*
X144457766Y-91059536D01*
X144458775Y-91058383D01*
X144554340Y-90962818D01*
X144562612Y-90959392D01*
X144570729Y-90962667D01*
G37*
G04 #@! TD.AperFunction*
G04 #@! TA.AperFunction,Conductor*
G36*
X147977796Y-83453530D02*
G01*
X148551755Y-83740032D01*
X148557627Y-83746793D01*
X148556998Y-83755725D01*
X148551755Y-83760968D01*
X147977796Y-84047469D01*
X147968864Y-84048098D01*
X147966081Y-84046736D01*
X147676936Y-83853973D01*
X147671953Y-83846533D01*
X147671726Y-83844238D01*
X147671726Y-83656761D01*
X147675153Y-83648488D01*
X147676931Y-83647029D01*
X147966081Y-83454262D01*
X147974866Y-83452525D01*
X147977796Y-83453530D01*
G37*
G04 #@! TD.AperFunction*
G04 #@! TA.AperFunction,Conductor*
G36*
X146100090Y-86303427D02*
G01*
X146102807Y-86307687D01*
X146273330Y-86774694D01*
X146272949Y-86783641D01*
X146266851Y-86789503D01*
X146004511Y-86899115D01*
X145995556Y-86899142D01*
X145995489Y-86899115D01*
X145733148Y-86789503D01*
X145726836Y-86783151D01*
X145726669Y-86774697D01*
X145897193Y-86307686D01*
X145903249Y-86301091D01*
X145908183Y-86300000D01*
X146091817Y-86300000D01*
X146100090Y-86303427D01*
G37*
G04 #@! TD.AperFunction*
G04 #@! TA.AperFunction,Conductor*
G36*
X144075910Y-85627383D02*
G01*
X144172616Y-85724089D01*
X144176043Y-85732362D01*
X144175152Y-85736840D01*
X143981627Y-86204029D01*
X143975295Y-86210360D01*
X143966374Y-86210374D01*
X143703815Y-86102563D01*
X143697463Y-86096251D01*
X143697436Y-86096184D01*
X143589625Y-85833625D01*
X143589652Y-85824670D01*
X143595968Y-85818373D01*
X144063159Y-85624847D01*
X144072114Y-85624847D01*
X144075910Y-85627383D01*
G37*
G04 #@! TD.AperFunction*
G04 #@! TA.AperFunction,Conductor*
G36*
X147978168Y-82503715D02*
G01*
X148415254Y-82721895D01*
X148551755Y-82790032D01*
X148557627Y-82796793D01*
X148556998Y-82805725D01*
X148551755Y-82810968D01*
X147978172Y-83097282D01*
X147969240Y-83097911D01*
X147965951Y-83096192D01*
X147676430Y-82880209D01*
X147671848Y-82872515D01*
X147671726Y-82870831D01*
X147671726Y-82730168D01*
X147675153Y-82721895D01*
X147676423Y-82720795D01*
X147965953Y-82504806D01*
X147974631Y-82502607D01*
X147978168Y-82503715D01*
G37*
G04 #@! TD.AperFunction*
G04 #@! TA.AperFunction,Conductor*
G36*
X144801442Y-89053427D02*
G01*
X144803358Y-89055950D01*
X144910514Y-89245820D01*
X144911618Y-89254630D01*
X144760146Y-89813561D01*
X144754674Y-89820650D01*
X144745793Y-89821794D01*
X144738704Y-89816322D01*
X144737752Y-89814195D01*
X144551075Y-89253231D01*
X144550825Y-89246699D01*
X144597784Y-89058862D01*
X144603115Y-89051667D01*
X144609135Y-89050000D01*
X144793169Y-89050000D01*
X144801442Y-89053427D01*
G37*
G04 #@! TD.AperFunction*
G04 #@! TA.AperFunction,Conductor*
G36*
X144966851Y-88210496D02*
G01*
X144973163Y-88216848D01*
X144973330Y-88225305D01*
X144802807Y-88692313D01*
X144796751Y-88698909D01*
X144791817Y-88700000D01*
X144608183Y-88700000D01*
X144599910Y-88696573D01*
X144597193Y-88692313D01*
X144426669Y-88225302D01*
X144427050Y-88216358D01*
X144433147Y-88210496D01*
X144695490Y-88100883D01*
X144704444Y-88100857D01*
X144966851Y-88210496D01*
G37*
G04 #@! TD.AperFunction*
G04 #@! TA.AperFunction,Conductor*
G36*
X157407257Y-86842144D02*
G01*
X157412848Y-86848123D01*
X157599127Y-87295503D01*
X157599144Y-87304457D01*
X157599127Y-87304497D01*
X157412848Y-87751876D01*
X157406504Y-87758197D01*
X157398324Y-87758471D01*
X156607977Y-87493177D01*
X156601224Y-87487295D01*
X156600000Y-87482085D01*
X156600000Y-87117914D01*
X156603427Y-87109641D01*
X156607975Y-87106822D01*
X157398325Y-86841528D01*
X157407257Y-86842144D01*
G37*
G04 #@! TD.AperFunction*
G04 #@! TA.AperFunction,Conductor*
G36*
X155308490Y-86020266D02*
G01*
X156042006Y-86745879D01*
X156406116Y-87106065D01*
X156409588Y-87114320D01*
X156409588Y-87481031D01*
X156406161Y-87489304D01*
X156400328Y-87492474D01*
X154690752Y-87857074D01*
X154681946Y-87855448D01*
X154676918Y-87848290D01*
X154593141Y-87489304D01*
X154422360Y-86757503D01*
X154423817Y-86748670D01*
X154426234Y-86745883D01*
X155292748Y-86019617D01*
X155301289Y-86016930D01*
X155308490Y-86020266D01*
G37*
G04 #@! TD.AperFunction*
G04 #@! TA.AperFunction,Conductor*
G36*
X155005465Y-79761611D02*
G01*
X156563046Y-80556743D01*
X156568856Y-80563557D01*
X156569426Y-80567164D01*
X156569426Y-80933835D01*
X156565999Y-80942108D01*
X156563046Y-80944256D01*
X155005465Y-81739388D01*
X154996538Y-81740097D01*
X154990017Y-81734825D01*
X154424114Y-80756358D01*
X154422938Y-80747480D01*
X154424114Y-80744642D01*
X154990017Y-79766173D01*
X154997125Y-79760728D01*
X155005465Y-79761611D01*
G37*
G04 #@! TD.AperFunction*
G04 #@! TA.AperFunction,Conductor*
G36*
X156742550Y-80564310D02*
G01*
X157678790Y-80834438D01*
X157685789Y-80840024D01*
X157686788Y-80848922D01*
X157686365Y-80850136D01*
X157502853Y-81295502D01*
X157496532Y-81301846D01*
X157496504Y-81301858D01*
X157047630Y-81487386D01*
X157038675Y-81487379D01*
X157032971Y-81482321D01*
X156729120Y-80943676D01*
X156727610Y-80937928D01*
X156727610Y-80575552D01*
X156731037Y-80567279D01*
X156739310Y-80563852D01*
X156742550Y-80564310D01*
G37*
G04 #@! TD.AperFunction*
G04 #@! TA.AperFunction,Conductor*
G36*
X153174872Y-91056506D02*
G01*
X153175179Y-91057183D01*
X153399130Y-91595506D01*
X153399144Y-91604461D01*
X153399130Y-91604494D01*
X153175179Y-92142816D01*
X153168838Y-92149138D01*
X153159883Y-92149124D01*
X153159206Y-92148817D01*
X152206529Y-91679416D01*
X152200622Y-91672686D01*
X152200000Y-91668921D01*
X152200000Y-91531078D01*
X152203427Y-91522805D01*
X152206529Y-91520583D01*
X153159207Y-91051181D01*
X153168142Y-91050599D01*
X153174872Y-91056506D01*
G37*
G04 #@! TD.AperFunction*
G04 #@! TA.AperFunction,Conductor*
G36*
X150801909Y-91143117D02*
G01*
X150802443Y-91143355D01*
X151593338Y-91520622D01*
X151599329Y-91527276D01*
X151600000Y-91531181D01*
X151600000Y-91668818D01*
X151596573Y-91677091D01*
X151593337Y-91679378D01*
X150802449Y-92056641D01*
X150793507Y-92057110D01*
X150786852Y-92051118D01*
X150786611Y-92050578D01*
X150600872Y-91604497D01*
X150600855Y-91595544D01*
X150786611Y-91149420D01*
X150792955Y-91143100D01*
X150801909Y-91143117D01*
G37*
G04 #@! TD.AperFunction*
G04 #@! TA.AperFunction,Conductor*
G36*
X149507499Y-79841174D02*
G01*
X149993448Y-80079289D01*
X149999370Y-80086006D01*
X150000000Y-80089795D01*
X150000000Y-80710204D01*
X149996573Y-80718477D01*
X149993448Y-80720710D01*
X149507501Y-80958824D01*
X149498564Y-80959388D01*
X149494088Y-80956598D01*
X148944793Y-80408278D01*
X148941360Y-80400010D01*
X148944779Y-80391735D01*
X149494089Y-79843399D01*
X149502363Y-79839981D01*
X149507499Y-79841174D01*
G37*
G04 #@! TD.AperFunction*
G04 #@! TA.AperFunction,Conductor*
G36*
X159259722Y-79288037D02*
G01*
X160639053Y-79978992D01*
X160644915Y-79985761D01*
X160645437Y-79990788D01*
X160501759Y-81242040D01*
X160497410Y-81249868D01*
X160491547Y-81252320D01*
X159247910Y-81403467D01*
X159239283Y-81401063D01*
X159236048Y-81397115D01*
X158537563Y-80010234D01*
X158536903Y-80001303D01*
X158539738Y-79996700D01*
X159246213Y-79290225D01*
X159254485Y-79286799D01*
X159259722Y-79288037D01*
G37*
G04 #@! TD.AperFunction*
G04 #@! TA.AperFunction,Conductor*
G36*
X154575329Y-96289652D02*
G01*
X154581627Y-96295970D01*
X154775152Y-96763159D01*
X154775152Y-96772114D01*
X154772616Y-96775910D01*
X154675910Y-96872616D01*
X154667637Y-96876043D01*
X154663159Y-96875152D01*
X154195970Y-96681627D01*
X154189639Y-96675295D01*
X154189625Y-96666375D01*
X154297436Y-96403814D01*
X154303746Y-96397464D01*
X154566375Y-96289625D01*
X154575329Y-96289652D01*
G37*
G04 #@! TD.AperFunction*
G04 #@! TA.AperFunction,Conductor*
G36*
X155358496Y-97428427D02*
G01*
X155359703Y-97429842D01*
X155673779Y-97864006D01*
X155675851Y-97872718D01*
X155672046Y-97879632D01*
X155287747Y-98219155D01*
X155279278Y-98222065D01*
X155272253Y-98219155D01*
X154887953Y-97879632D01*
X154884022Y-97871586D01*
X154886219Y-97864008D01*
X155200297Y-97429841D01*
X155207923Y-97425148D01*
X155209777Y-97425000D01*
X155350223Y-97425000D01*
X155358496Y-97428427D01*
G37*
G04 #@! TD.AperFunction*
G04 #@! TA.AperFunction,Conductor*
G36*
X154184193Y-97628427D02*
G01*
X154187620Y-97636700D01*
X154187342Y-97639234D01*
X154141646Y-97845219D01*
X154136509Y-97852554D01*
X154136438Y-97852599D01*
X153789963Y-98069755D01*
X153781133Y-98071245D01*
X153773835Y-98066055D01*
X153773805Y-98066006D01*
X153724200Y-97985987D01*
X153644121Y-97856808D01*
X153642675Y-97847972D01*
X153644721Y-97843604D01*
X153805990Y-97629657D01*
X153813706Y-97625114D01*
X153815333Y-97625000D01*
X154175920Y-97625000D01*
X154184193Y-97628427D01*
G37*
G04 #@! TD.AperFunction*
G04 #@! TA.AperFunction,Conductor*
G36*
X154143879Y-97376068D02*
G01*
X154169067Y-97386593D01*
X154405565Y-97485409D01*
X154411877Y-97491761D01*
X154411850Y-97500716D01*
X154411032Y-97502314D01*
X154085512Y-98033984D01*
X154078270Y-98039251D01*
X154069425Y-98037853D01*
X154067261Y-98036148D01*
X153812179Y-97781066D01*
X153808752Y-97772793D01*
X153808790Y-97771864D01*
X153840124Y-97386591D01*
X153844210Y-97378624D01*
X153851755Y-97375841D01*
X154139343Y-97375165D01*
X154143879Y-97376068D01*
G37*
G04 #@! TD.AperFunction*
G04 #@! TA.AperFunction,Conductor*
G36*
X162089691Y-92433597D02*
G01*
X162199115Y-92695489D01*
X162199142Y-92704444D01*
X162199115Y-92704511D01*
X162089691Y-92966402D01*
X162083339Y-92972714D01*
X162074418Y-92972700D01*
X161607223Y-92779191D01*
X161600891Y-92772860D01*
X161600000Y-92768382D01*
X161600000Y-92631617D01*
X161603427Y-92623344D01*
X161607221Y-92620808D01*
X162074420Y-92427299D01*
X162083373Y-92427299D01*
X162089691Y-92433597D01*
G37*
G04 #@! TD.AperFunction*
G04 #@! TA.AperFunction,Conductor*
G36*
X163875329Y-93989652D02*
G01*
X163881627Y-93995970D01*
X164075152Y-94463159D01*
X164075152Y-94472114D01*
X164072616Y-94475910D01*
X163975910Y-94572616D01*
X163967637Y-94576043D01*
X163963159Y-94575152D01*
X163495970Y-94381627D01*
X163489639Y-94375295D01*
X163489625Y-94366375D01*
X163597436Y-94103814D01*
X163603746Y-94097464D01*
X163866375Y-93989625D01*
X163875329Y-93989652D01*
G37*
G04 #@! TD.AperFunction*
G04 #@! TA.AperFunction,Conductor*
G36*
X166718117Y-98350926D02*
G01*
X166719659Y-98352830D01*
X167634921Y-99763317D01*
X167636549Y-99772123D01*
X167633500Y-99777837D01*
X166648394Y-100792354D01*
X166640172Y-100795902D01*
X166631849Y-100792597D01*
X166631606Y-100792354D01*
X165646499Y-99777837D01*
X165643194Y-99769514D01*
X165645077Y-99763319D01*
X166560341Y-98352830D01*
X166567719Y-98347756D01*
X166570156Y-98347499D01*
X166709844Y-98347499D01*
X166718117Y-98350926D01*
G37*
G04 #@! TD.AperFunction*
G04 #@! TA.AperFunction,Conductor*
G36*
X155640140Y-99497456D02*
G01*
X156023800Y-99820000D01*
X156143672Y-99820000D01*
X156151945Y-99823427D01*
X156155372Y-99831700D01*
X156151945Y-99839973D01*
X156151133Y-99840711D01*
X156108425Y-99876000D01*
X155703833Y-100210297D01*
X155695273Y-100212924D01*
X155688976Y-100210335D01*
X155289557Y-99883813D01*
X155285321Y-99875924D01*
X155287904Y-99867350D01*
X155288293Y-99866898D01*
X155623966Y-99498531D01*
X155632069Y-99494726D01*
X155640140Y-99497456D01*
G37*
G04 #@! TD.AperFunction*
G04 #@! TA.AperFunction,Conductor*
G36*
X156535954Y-99498445D02*
G01*
X156871685Y-99866875D01*
X156874724Y-99875298D01*
X156870917Y-99883403D01*
X156870442Y-99883813D01*
X156471741Y-100209747D01*
X156463167Y-100212330D01*
X156456095Y-100208994D01*
X156043959Y-99800005D01*
X156040500Y-99791745D01*
X156043895Y-99783459D01*
X156052155Y-99780000D01*
X156176199Y-99780000D01*
X156176200Y-99780000D01*
X156519875Y-99497288D01*
X156528439Y-99494680D01*
X156535954Y-99498445D01*
G37*
G04 #@! TD.AperFunction*
G04 #@! TA.AperFunction,Conductor*
G36*
X174540239Y-86079931D02*
G01*
X174545695Y-86084578D01*
X175046946Y-86894930D01*
X175048384Y-86903769D01*
X175045269Y-86909358D01*
X174609358Y-87345269D01*
X174601085Y-87348696D01*
X174594930Y-87346946D01*
X173784578Y-86845695D01*
X173779345Y-86838429D01*
X173779916Y-86831286D01*
X173997437Y-86303792D01*
X174003758Y-86297451D01*
X174531286Y-86079917D01*
X174540239Y-86079931D01*
G37*
G04 #@! TD.AperFunction*
G04 #@! TA.AperFunction,Conductor*
G36*
X158926839Y-101918221D02*
G01*
X158931460Y-101925891D01*
X158931498Y-101926171D01*
X159115841Y-103389051D01*
X159113476Y-103397688D01*
X159105696Y-103402122D01*
X159104233Y-103402214D01*
X158488031Y-103402214D01*
X158479758Y-103398787D01*
X158478989Y-103397939D01*
X158471690Y-103389051D01*
X158052725Y-102878863D01*
X158050124Y-102870296D01*
X158050774Y-102867438D01*
X158365120Y-102005524D01*
X158371173Y-101998928D01*
X158374364Y-101997966D01*
X158918147Y-101916064D01*
X158926839Y-101918221D01*
G37*
G04 #@! TD.AperFunction*
G04 #@! TA.AperFunction,Conductor*
G36*
X161285400Y-101996330D02*
G01*
X161291919Y-102002469D01*
X161292943Y-102007638D01*
X161265803Y-102867017D01*
X161262117Y-102875178D01*
X161258027Y-102877673D01*
X160541669Y-103132228D01*
X160532726Y-103131769D01*
X160529478Y-103129476D01*
X160270907Y-102870905D01*
X160267480Y-102862632D01*
X160268432Y-102858009D01*
X160725573Y-101795845D01*
X160731990Y-101789602D01*
X160740469Y-101789533D01*
X161285400Y-101996330D01*
G37*
G04 #@! TD.AperFunction*
G04 #@! TA.AperFunction,Conductor*
G36*
X160696459Y-102447932D02*
G01*
X160952067Y-102703540D01*
X160955494Y-102711813D01*
X160953418Y-102718466D01*
X160620083Y-103200630D01*
X160612560Y-103205487D01*
X160603806Y-103203601D01*
X160602213Y-103202278D01*
X160399293Y-103000707D01*
X160399238Y-103000652D01*
X160197721Y-102797786D01*
X160194322Y-102789501D01*
X160197776Y-102781239D01*
X160199361Y-102779922D01*
X160681535Y-102446580D01*
X160690287Y-102444695D01*
X160696459Y-102447932D01*
G37*
G04 #@! TD.AperFunction*
G04 #@! TA.AperFunction,Conductor*
G36*
X160736757Y-101444245D02*
G01*
X161285205Y-101991720D01*
X161288639Y-101999990D01*
X161285219Y-102008266D01*
X161285205Y-102008280D01*
X160736757Y-102555754D01*
X160728481Y-102559174D01*
X160722037Y-102557233D01*
X160172746Y-102193969D01*
X160167736Y-102186547D01*
X160167500Y-102184210D01*
X160167500Y-101815789D01*
X160170927Y-101807516D01*
X160172741Y-101806033D01*
X160722037Y-101442765D01*
X160730828Y-101441061D01*
X160736757Y-101444245D01*
G37*
G04 #@! TD.AperFunction*
G04 #@! TA.AperFunction,Conductor*
G36*
X160013752Y-101702509D02*
G01*
X160590401Y-101807748D01*
X160597924Y-101812605D01*
X160600000Y-101819258D01*
X160600000Y-102180741D01*
X160596573Y-102189014D01*
X160590401Y-102192251D01*
X160013754Y-102297489D01*
X160005000Y-102295603D01*
X160000143Y-102288080D01*
X159999953Y-102286018D01*
X159999640Y-102192251D01*
X159999000Y-102000000D01*
X159999953Y-101713980D01*
X160003407Y-101705719D01*
X160011692Y-101702320D01*
X160013752Y-101702509D01*
G37*
G04 #@! TD.AperFunction*
G04 #@! TA.AperFunction,Conductor*
G36*
X151712187Y-101404597D02*
G01*
X152130859Y-101730642D01*
X152135281Y-101738428D01*
X152134489Y-101744325D01*
X151898483Y-102317753D01*
X151892166Y-102324099D01*
X151887664Y-102325000D01*
X151522336Y-102325000D01*
X151514063Y-102321573D01*
X151511517Y-102317753D01*
X151275510Y-101744323D01*
X151275530Y-101735370D01*
X151279137Y-101730644D01*
X151697811Y-101404597D01*
X151706444Y-101402218D01*
X151712187Y-101404597D01*
G37*
G04 #@! TD.AperFunction*
G04 #@! TA.AperFunction,Conductor*
G36*
X173713651Y-91608656D02*
G01*
X173713653Y-91608661D01*
X173999133Y-92295509D01*
X173999144Y-92304464D01*
X173999133Y-92304491D01*
X173713653Y-92991338D01*
X173707313Y-92997662D01*
X173698358Y-92997651D01*
X173698353Y-92997649D01*
X172487204Y-92493498D01*
X172480883Y-92487155D01*
X172480000Y-92482696D01*
X172480000Y-92117303D01*
X172483427Y-92109030D01*
X172487202Y-92106501D01*
X173698355Y-91602349D01*
X173707308Y-91602335D01*
X173713651Y-91608656D01*
G37*
G04 #@! TD.AperFunction*
G04 #@! TA.AperFunction,Conductor*
G36*
X160565294Y-95385188D02*
G01*
X160567883Y-95387142D01*
X160825000Y-95644259D01*
X160827168Y-95647252D01*
X161033521Y-96055291D01*
X161034196Y-96064220D01*
X161030258Y-96069811D01*
X160611860Y-96394828D01*
X160603224Y-96397197D01*
X160597038Y-96394446D01*
X160194642Y-96047206D01*
X160190618Y-96039207D01*
X160192059Y-96032664D01*
X160407924Y-95644259D01*
X160549383Y-95389730D01*
X160556398Y-95384165D01*
X160565294Y-95385188D01*
G37*
G04 #@! TD.AperFunction*
G04 #@! TA.AperFunction,Conductor*
G36*
X161762037Y-86099774D02*
G01*
X161764296Y-86102120D01*
X162639990Y-87310633D01*
X162642070Y-87319343D01*
X162638789Y-87325771D01*
X161575263Y-88389297D01*
X161566990Y-88392724D01*
X161560136Y-88390506D01*
X160359180Y-87522354D01*
X160354482Y-87514730D01*
X160354410Y-87511537D01*
X160375741Y-87325771D01*
X160498240Y-86258957D01*
X160502589Y-86251131D01*
X160508449Y-86248680D01*
X161753411Y-86097370D01*
X161762037Y-86099774D01*
G37*
G04 #@! TD.AperFunction*
G04 #@! TA.AperFunction,Conductor*
G36*
X150691263Y-99156217D02*
G01*
X151157088Y-99364318D01*
X151163244Y-99370821D01*
X151162998Y-99379772D01*
X151157088Y-99385682D01*
X150691263Y-99593782D01*
X150682312Y-99594028D01*
X150680723Y-99593279D01*
X150435932Y-99454561D01*
X150430423Y-99447501D01*
X150430000Y-99444382D01*
X150430000Y-99305617D01*
X150433427Y-99297344D01*
X150435929Y-99295439D01*
X150680723Y-99156719D01*
X150689610Y-99155622D01*
X150691263Y-99156217D01*
G37*
G04 #@! TD.AperFunction*
G04 #@! TA.AperFunction,Conductor*
G36*
X146257857Y-91554863D02*
G01*
X146444458Y-91670369D01*
X146449689Y-91677637D01*
X146450000Y-91680317D01*
X146450000Y-91819682D01*
X146446573Y-91827955D01*
X146444458Y-91829630D01*
X146257858Y-91945135D01*
X146249020Y-91946576D01*
X146243448Y-91943481D01*
X146129028Y-91829630D01*
X146057334Y-91758293D01*
X146053887Y-91750029D01*
X146057293Y-91741748D01*
X146243451Y-91556516D01*
X146251729Y-91553112D01*
X146257857Y-91554863D01*
G37*
G04 #@! TD.AperFunction*
G04 #@! TA.AperFunction,Conductor*
G36*
X146070294Y-99027547D02*
G01*
X146072084Y-99029014D01*
X146170984Y-99127914D01*
X146174411Y-99136187D01*
X146174182Y-99138490D01*
X145849107Y-100757772D01*
X145844119Y-100765209D01*
X145837909Y-100767166D01*
X144411548Y-100800420D01*
X144403197Y-100797187D01*
X144399578Y-100788996D01*
X144399578Y-100788481D01*
X144432833Y-99362085D01*
X144436452Y-99353897D01*
X144442223Y-99350891D01*
X146061509Y-99025816D01*
X146070294Y-99027547D01*
G37*
G04 #@! TD.AperFunction*
G04 #@! TA.AperFunction,Conductor*
G36*
X160689782Y-83987334D02*
G01*
X160690847Y-83988277D01*
X160949476Y-84246906D01*
X160951777Y-84250171D01*
X161598366Y-85615478D01*
X161598810Y-85624422D01*
X161593563Y-85630663D01*
X160507253Y-86246692D01*
X160498367Y-86247793D01*
X160492994Y-86244568D01*
X159631928Y-85336988D01*
X159628720Y-85328627D01*
X159631198Y-85321730D01*
X160673360Y-83989340D01*
X160681155Y-83984936D01*
X160689782Y-83987334D01*
G37*
G04 #@! TD.AperFunction*
G04 #@! TA.AperFunction,Conductor*
G36*
X165617445Y-79806116D02*
G01*
X166632355Y-80791605D01*
X166635903Y-80799827D01*
X166632598Y-80808150D01*
X166632355Y-80808393D01*
X165617445Y-81793881D01*
X165609122Y-81797186D01*
X165603511Y-81795658D01*
X164193417Y-80993863D01*
X164187919Y-80986794D01*
X164187500Y-80983692D01*
X164187500Y-80616305D01*
X164190927Y-80608032D01*
X164193414Y-80606136D01*
X165603512Y-79804338D01*
X165612396Y-79803229D01*
X165617445Y-79806116D01*
G37*
G04 #@! TD.AperFunction*
G04 #@! TA.AperFunction,Conductor*
G36*
X151132964Y-79060332D02*
G01*
X151457901Y-79250913D01*
X151918946Y-79521325D01*
X151924349Y-79528466D01*
X151924698Y-79532243D01*
X151863766Y-80392810D01*
X151859763Y-80400821D01*
X151855669Y-80403125D01*
X151310817Y-80577919D01*
X151301893Y-80577183D01*
X151296212Y-80570679D01*
X150858217Y-79332119D01*
X150858690Y-79323179D01*
X150860972Y-79319951D01*
X151118773Y-79062150D01*
X151127045Y-79058724D01*
X151132964Y-79060332D01*
G37*
G04 #@! TD.AperFunction*
G04 #@! TA.AperFunction,Conductor*
G36*
X145989204Y-78946679D02*
G01*
X145991582Y-78948513D01*
X146251485Y-79208416D01*
X146254912Y-79216689D01*
X146254527Y-79219667D01*
X145849505Y-80758433D01*
X145844085Y-80765562D01*
X145838463Y-80767152D01*
X144411548Y-80800420D01*
X144403197Y-80797187D01*
X144399578Y-80788996D01*
X144399578Y-80788481D01*
X144432845Y-79361532D01*
X144436464Y-79353343D01*
X144441563Y-79350492D01*
X145980332Y-78945471D01*
X145989204Y-78946679D01*
G37*
G04 #@! TD.AperFunction*
G04 #@! TA.AperFunction,Conductor*
G36*
X149671205Y-97378427D02*
G01*
X149673603Y-97381902D01*
X149926082Y-97943399D01*
X149926349Y-97952350D01*
X149922246Y-97957693D01*
X149486835Y-98271080D01*
X149478118Y-98273132D01*
X149473165Y-98271080D01*
X149037753Y-97957693D01*
X149033040Y-97950079D01*
X149033916Y-97943402D01*
X149286397Y-97381902D01*
X149292915Y-97375762D01*
X149297068Y-97375000D01*
X149662932Y-97375000D01*
X149671205Y-97378427D01*
G37*
G04 #@! TD.AperFunction*
G04 #@! TA.AperFunction,Conductor*
G36*
X151845635Y-95928427D02*
G01*
X151848331Y-95932629D01*
X152037036Y-96441082D01*
X152036702Y-96450031D01*
X152033971Y-96453780D01*
X151662904Y-96793758D01*
X151654489Y-96796820D01*
X151647096Y-96793758D01*
X151276028Y-96453780D01*
X151272243Y-96445664D01*
X151272963Y-96441082D01*
X151461669Y-95932629D01*
X151467760Y-95926065D01*
X151472638Y-95925000D01*
X151837362Y-95925000D01*
X151845635Y-95928427D01*
G37*
G04 #@! TD.AperFunction*
G04 #@! TA.AperFunction,Conductor*
G36*
X134876019Y-86209349D02*
G01*
X134876176Y-86209416D01*
X136232947Y-86796448D01*
X136239178Y-86802877D01*
X136240000Y-86807185D01*
X136240000Y-87172814D01*
X136236573Y-87181087D01*
X136232946Y-87183552D01*
X134876176Y-87770583D01*
X134867222Y-87770723D01*
X134860792Y-87764491D01*
X134860747Y-87764387D01*
X134540864Y-86994488D01*
X134540856Y-86985534D01*
X134540865Y-86985511D01*
X134618150Y-86799500D01*
X134860726Y-86215663D01*
X134867064Y-86209340D01*
X134876019Y-86209349D01*
G37*
G04 #@! TD.AperFunction*
G04 #@! TA.AperFunction,Conductor*
G36*
X145686018Y-88599953D02*
G01*
X145694280Y-88603407D01*
X145697679Y-88611692D01*
X145697489Y-88613754D01*
X145592252Y-89190401D01*
X145587395Y-89197924D01*
X145580742Y-89200000D01*
X145219258Y-89200000D01*
X145210985Y-89196573D01*
X145207748Y-89190401D01*
X145102510Y-88613754D01*
X145104396Y-88605000D01*
X145111919Y-88600143D01*
X145113976Y-88599953D01*
X145400000Y-88599000D01*
X145686018Y-88599953D01*
G37*
G04 #@! TD.AperFunction*
G04 #@! TA.AperFunction,Conductor*
G36*
X145589015Y-90203427D02*
G01*
X145592252Y-90209599D01*
X145697489Y-90786245D01*
X145695603Y-90794999D01*
X145688080Y-90799856D01*
X145686018Y-90800046D01*
X145400039Y-90800999D01*
X145399961Y-90800999D01*
X145113981Y-90800046D01*
X145105719Y-90796592D01*
X145102320Y-90788307D01*
X145102510Y-90786245D01*
X145207748Y-90209599D01*
X145212605Y-90202076D01*
X145219258Y-90200000D01*
X145580742Y-90200000D01*
X145589015Y-90203427D01*
G37*
G04 #@! TD.AperFunction*
G04 #@! TA.AperFunction,Conductor*
G36*
X134875699Y-96370120D02*
G01*
X134876572Y-96370526D01*
X136233665Y-97070532D01*
X136239445Y-97077369D01*
X136240000Y-97080929D01*
X136240000Y-97219070D01*
X136236573Y-97227343D01*
X136233664Y-97229468D01*
X134876574Y-97929472D01*
X134867650Y-97930219D01*
X134860812Y-97924438D01*
X134860405Y-97923563D01*
X134540865Y-97154489D01*
X134540856Y-97145534D01*
X134540865Y-97145511D01*
X134572018Y-97070531D01*
X134860406Y-96376434D01*
X134866744Y-96370111D01*
X134875699Y-96370120D01*
G37*
G04 #@! TD.AperFunction*
G04 #@! TA.AperFunction,Conductor*
G36*
X146040246Y-91746758D02*
G01*
X146047480Y-91752037D01*
X146049052Y-91759927D01*
X145958204Y-92343969D01*
X145953546Y-92351617D01*
X145951784Y-92352681D01*
X145769965Y-92441629D01*
X145761028Y-92442186D01*
X145756551Y-92439392D01*
X145659673Y-92342514D01*
X145656246Y-92334241D01*
X145656758Y-92330818D01*
X145846769Y-91711197D01*
X145852471Y-91704293D01*
X145860707Y-91703257D01*
X146040246Y-91746758D01*
G37*
G04 #@! TD.AperFunction*
G04 #@! TA.AperFunction,Conductor*
G36*
X144556548Y-91556516D02*
G01*
X144680969Y-91680317D01*
X144742665Y-91741706D01*
X144746112Y-91749971D01*
X144742706Y-91758253D01*
X144742664Y-91758294D01*
X144556551Y-91943481D01*
X144548270Y-91946887D01*
X144542141Y-91945135D01*
X144355542Y-91829630D01*
X144350311Y-91822362D01*
X144350000Y-91819682D01*
X144350000Y-91680317D01*
X144353427Y-91672044D01*
X144355539Y-91670371D01*
X144542142Y-91554863D01*
X144550979Y-91553423D01*
X144556548Y-91556516D01*
G37*
G04 #@! TD.AperFunction*
G04 #@! TA.AperFunction,Conductor*
G36*
X136167978Y-91671316D02*
G01*
X136174933Y-91676954D01*
X136176348Y-91682531D01*
X136176348Y-91820646D01*
X136172921Y-91828919D01*
X136172045Y-91829711D01*
X135149226Y-92664361D01*
X135140650Y-92666936D01*
X135133564Y-92663576D01*
X134544543Y-92075534D01*
X134541110Y-92067265D01*
X134542004Y-92062768D01*
X134861242Y-91294422D01*
X134867580Y-91288099D01*
X134875373Y-91287697D01*
X136167978Y-91671316D01*
G37*
G04 #@! TD.AperFunction*
G04 #@! TA.AperFunction,Conductor*
G36*
X144556548Y-89656516D02*
G01*
X144680969Y-89780317D01*
X144742665Y-89841706D01*
X144746112Y-89849971D01*
X144742706Y-89858253D01*
X144742664Y-89858294D01*
X144556551Y-90043481D01*
X144548270Y-90046887D01*
X144542141Y-90045135D01*
X144355542Y-89929630D01*
X144350311Y-89922362D01*
X144350000Y-89919682D01*
X144350000Y-89780317D01*
X144353427Y-89772044D01*
X144355539Y-89770371D01*
X144542142Y-89654863D01*
X144550979Y-89653423D01*
X144556548Y-89656516D01*
G37*
G04 #@! TD.AperFunction*
G04 #@! TA.AperFunction,Conductor*
G36*
X135149225Y-88935637D02*
G01*
X136172045Y-89770289D01*
X136176288Y-89778174D01*
X136176348Y-89779353D01*
X136176348Y-89917468D01*
X136172921Y-89925741D01*
X136167977Y-89928684D01*
X134875375Y-90312302D01*
X134866469Y-90311371D01*
X134861241Y-90305575D01*
X134640295Y-89773800D01*
X134542004Y-89537232D01*
X134541996Y-89528278D01*
X134544541Y-89524467D01*
X135133565Y-88936421D01*
X135141839Y-88933003D01*
X135149225Y-88935637D01*
G37*
G04 #@! TD.AperFunction*
G04 #@! TA.AperFunction,Conductor*
G36*
X152569707Y-98110102D02*
G01*
X152576019Y-98116453D01*
X152575992Y-98125408D01*
X152575794Y-98125855D01*
X152359354Y-98588524D01*
X152352744Y-98594565D01*
X152348756Y-98595266D01*
X152211955Y-98595266D01*
X152203682Y-98591839D01*
X152200978Y-98587614D01*
X152030515Y-98125324D01*
X152030868Y-98116378D01*
X152036979Y-98110483D01*
X152299290Y-98000883D01*
X152308244Y-98000857D01*
X152569707Y-98110102D01*
G37*
G04 #@! TD.AperFunction*
G04 #@! TA.AperFunction,Conductor*
G36*
X151693027Y-99167248D02*
G01*
X151695716Y-99168815D01*
X151868220Y-99302992D01*
X151869310Y-99303954D01*
X151966037Y-99400681D01*
X151969464Y-99408954D01*
X151966037Y-99417227D01*
X151963852Y-99418945D01*
X151691134Y-99585133D01*
X151682286Y-99586512D01*
X151680521Y-99585931D01*
X151205216Y-99386579D01*
X151198912Y-99380219D01*
X151198952Y-99371265D01*
X151205273Y-99364977D01*
X151684073Y-99167239D01*
X151693027Y-99167248D01*
G37*
G04 #@! TD.AperFunction*
G04 #@! TA.AperFunction,Conductor*
G36*
X153291263Y-98506217D02*
G01*
X153757088Y-98714318D01*
X153763244Y-98720821D01*
X153762998Y-98729772D01*
X153757088Y-98735682D01*
X153291263Y-98943782D01*
X153282312Y-98944028D01*
X153280723Y-98943279D01*
X153035932Y-98804561D01*
X153030423Y-98797501D01*
X153030000Y-98794382D01*
X153030000Y-98655617D01*
X153033427Y-98647344D01*
X153035929Y-98645439D01*
X153280723Y-98506719D01*
X153289610Y-98505622D01*
X153291263Y-98506217D01*
G37*
G04 #@! TD.AperFunction*
G04 #@! TA.AperFunction,Conductor*
G36*
X152918015Y-96697008D02*
G01*
X153299301Y-96797498D01*
X153306427Y-96802920D01*
X153307185Y-96804473D01*
X153491123Y-97265079D01*
X153491008Y-97274033D01*
X153485564Y-97279845D01*
X152958701Y-97548013D01*
X152953394Y-97549286D01*
X152816965Y-97549286D01*
X152808692Y-97545859D01*
X152805265Y-97537586D01*
X152805346Y-97536212D01*
X152836238Y-97275000D01*
X152903418Y-96706947D01*
X152907793Y-96699135D01*
X152916411Y-96696704D01*
X152918015Y-96697008D01*
G37*
G04 #@! TD.AperFunction*
G04 #@! TA.AperFunction,Conductor*
G36*
X153942817Y-91824821D02*
G01*
X153949138Y-91831161D01*
X153949124Y-91840116D01*
X153948817Y-91840793D01*
X153479417Y-92793471D01*
X153472687Y-92799378D01*
X153468922Y-92800000D01*
X153331078Y-92800000D01*
X153322805Y-92796573D01*
X153320583Y-92793471D01*
X152851182Y-91840793D01*
X152850599Y-91831857D01*
X152856506Y-91825127D01*
X152857150Y-91824834D01*
X153395507Y-91600868D01*
X153404458Y-91600855D01*
X153942817Y-91824821D01*
G37*
G04 #@! TD.AperFunction*
G04 #@! TA.AperFunction,Conductor*
G36*
X153476610Y-95928427D02*
G01*
X153479170Y-95932280D01*
X153686698Y-96440919D01*
X153686650Y-96449874D01*
X153683769Y-96453966D01*
X153314124Y-96792639D01*
X153305709Y-96795701D01*
X153297593Y-96791916D01*
X153297164Y-96791420D01*
X153021150Y-96453966D01*
X152969516Y-96390838D01*
X152966931Y-96382265D01*
X152969372Y-96376204D01*
X153320286Y-95929473D01*
X153328092Y-95925084D01*
X153329487Y-95925000D01*
X153468337Y-95925000D01*
X153476610Y-95928427D01*
G37*
G04 #@! TD.AperFunction*
G04 #@! TA.AperFunction,Conductor*
G36*
X161299538Y-102009102D02*
G01*
X161301846Y-102011410D01*
X161831640Y-102714921D01*
X161833880Y-102723591D01*
X161832790Y-102727128D01*
X161486216Y-103430969D01*
X161479487Y-103436877D01*
X161475720Y-103437500D01*
X161109280Y-103437500D01*
X161101007Y-103434073D01*
X161098784Y-103430969D01*
X160752209Y-102727128D01*
X160751628Y-102718192D01*
X160753356Y-102714926D01*
X161283154Y-102011409D01*
X161290868Y-102006862D01*
X161299538Y-102009102D01*
G37*
G04 #@! TD.AperFunction*
G04 #@! TA.AperFunction,Conductor*
G36*
X161481319Y-103005913D02*
G01*
X161484595Y-103012311D01*
X161577803Y-103586470D01*
X161575746Y-103595186D01*
X161568129Y-103599894D01*
X161566293Y-103600045D01*
X161282367Y-103600992D01*
X161277817Y-103600088D01*
X161277606Y-103600000D01*
X161238316Y-103583583D01*
X161011724Y-103488908D01*
X161005412Y-103482556D01*
X161004774Y-103475760D01*
X161100080Y-103011831D01*
X161105102Y-103004417D01*
X161111541Y-103002486D01*
X161473046Y-103002486D01*
X161481319Y-103005913D01*
G37*
G04 #@! TD.AperFunction*
G04 #@! TA.AperFunction,Conductor*
G36*
X161273020Y-100565927D02*
G01*
X161274013Y-100567056D01*
X161733592Y-101163120D01*
X161735929Y-101171764D01*
X161734639Y-101175790D01*
X161300373Y-101986305D01*
X161293445Y-101991979D01*
X161284534Y-101991092D01*
X161281357Y-101988599D01*
X160733902Y-101379343D01*
X160730922Y-101370899D01*
X160731122Y-101369283D01*
X160887646Y-100571946D01*
X160892602Y-100564488D01*
X160899127Y-100562500D01*
X161264747Y-100562500D01*
X161273020Y-100565927D01*
G37*
G04 #@! TD.AperFunction*
G04 #@! TA.AperFunction,Conductor*
G36*
X161088258Y-100007285D02*
G01*
X161374742Y-100294724D01*
X161378155Y-100303002D01*
X161377446Y-100306995D01*
X161273306Y-100592312D01*
X161267250Y-100598908D01*
X161262315Y-100600000D01*
X160897685Y-100600000D01*
X160889412Y-100596573D01*
X160886694Y-100592312D01*
X160782553Y-100306995D01*
X160782936Y-100298048D01*
X160785253Y-100294728D01*
X161071714Y-100007313D01*
X161079981Y-100003873D01*
X161088258Y-100007285D01*
G37*
G04 #@! TD.AperFunction*
G04 #@! TA.AperFunction,Conductor*
G36*
X159185904Y-98755093D02*
G01*
X159330331Y-98879664D01*
X159330962Y-98880251D01*
X159587763Y-99137052D01*
X159591190Y-99145325D01*
X159587763Y-99153598D01*
X159584037Y-99156105D01*
X159184747Y-99324504D01*
X159175792Y-99324562D01*
X159175318Y-99324357D01*
X158601458Y-99060883D01*
X158595369Y-99054317D01*
X158595707Y-99045368D01*
X158601100Y-99039790D01*
X159173026Y-98753490D01*
X159181957Y-98752852D01*
X159185904Y-98755093D01*
G37*
G04 #@! TD.AperFunction*
G04 #@! TA.AperFunction,Conductor*
G36*
X159503307Y-96240247D02*
G01*
X159509207Y-96246493D01*
X159864071Y-97132427D01*
X159863966Y-97141381D01*
X159857560Y-97147638D01*
X159853210Y-97148477D01*
X159491954Y-97148477D01*
X159487254Y-97147492D01*
X159452908Y-97132427D01*
X158876347Y-96879535D01*
X158870148Y-96873074D01*
X158870173Y-96864504D01*
X159053059Y-96403887D01*
X159059296Y-96397465D01*
X159059918Y-96397218D01*
X159494363Y-96239843D01*
X159503307Y-96240247D01*
G37*
G04 #@! TD.AperFunction*
G04 #@! TA.AperFunction,Conductor*
G36*
X161270588Y-97503427D02*
G01*
X161273306Y-97507688D01*
X161377446Y-97793004D01*
X161377063Y-97801951D01*
X161374742Y-97805275D01*
X161088287Y-98092685D01*
X161080019Y-98096126D01*
X161071741Y-98092713D01*
X161071713Y-98092685D01*
X160785257Y-97805275D01*
X160781844Y-97796997D01*
X160782552Y-97793006D01*
X160886694Y-97507688D01*
X160892750Y-97501092D01*
X160897685Y-97500000D01*
X161262315Y-97500000D01*
X161270588Y-97503427D01*
G37*
G04 #@! TD.AperFunction*
G04 #@! TA.AperFunction,Conductor*
G36*
X161052153Y-96281317D02*
G01*
X161057625Y-96288405D01*
X161057733Y-96288836D01*
X161267192Y-97196278D01*
X161265714Y-97205109D01*
X161258423Y-97210309D01*
X161255792Y-97210609D01*
X160892928Y-97210609D01*
X160886613Y-97208758D01*
X160368820Y-96876752D01*
X160363705Y-96869402D01*
X160364751Y-96861513D01*
X160602634Y-96403553D01*
X160609488Y-96397793D01*
X160609915Y-96397667D01*
X161043273Y-96280175D01*
X161052153Y-96281317D01*
G37*
G04 #@! TD.AperFunction*
G04 #@! TA.AperFunction,Conductor*
G36*
X158769146Y-100565927D02*
G01*
X158772354Y-100571946D01*
X158928875Y-101369269D01*
X158927106Y-101378048D01*
X158926097Y-101379343D01*
X158378642Y-101988599D01*
X158370563Y-101992462D01*
X158362119Y-101989482D01*
X158359627Y-101986307D01*
X157925358Y-101175788D01*
X157924472Y-101166879D01*
X157926403Y-101163124D01*
X158385987Y-100567055D01*
X158393753Y-100562597D01*
X158395253Y-100562500D01*
X158760873Y-100562500D01*
X158769146Y-100565927D01*
G37*
G04 #@! TD.AperFunction*
G04 #@! TA.AperFunction,Conductor*
G36*
X158588258Y-100007285D02*
G01*
X158874742Y-100294724D01*
X158878155Y-100303002D01*
X158877446Y-100306995D01*
X158773306Y-100592312D01*
X158767250Y-100598908D01*
X158762315Y-100600000D01*
X158397685Y-100600000D01*
X158389412Y-100596573D01*
X158386694Y-100592312D01*
X158282553Y-100306995D01*
X158282936Y-100298048D01*
X158285253Y-100294728D01*
X158571714Y-100007313D01*
X158579981Y-100003873D01*
X158588258Y-100007285D01*
G37*
G04 #@! TD.AperFunction*
G04 #@! TA.AperFunction,Conductor*
G36*
X156269015Y-101803427D02*
G01*
X156272252Y-101809599D01*
X156377489Y-102386245D01*
X156375603Y-102394999D01*
X156368080Y-102399856D01*
X156366018Y-102400046D01*
X156080039Y-102400999D01*
X156079961Y-102400999D01*
X155793981Y-102400046D01*
X155785719Y-102396592D01*
X155782320Y-102388307D01*
X155782510Y-102386245D01*
X155887748Y-101809599D01*
X155892605Y-101802076D01*
X155899258Y-101800000D01*
X156260742Y-101800000D01*
X156269015Y-101803427D01*
G37*
G04 #@! TD.AperFunction*
G04 #@! TA.AperFunction,Conductor*
G36*
X157744932Y-97908082D02*
G01*
X157752646Y-97912629D01*
X157755000Y-97919668D01*
X157755000Y-98283889D01*
X157751573Y-98292162D01*
X157749338Y-98293911D01*
X157297739Y-98566009D01*
X157288884Y-98567343D01*
X157284181Y-98564950D01*
X156887157Y-98231843D01*
X156883022Y-98223900D01*
X156885046Y-98216236D01*
X157150896Y-97830946D01*
X157158414Y-97826085D01*
X157162151Y-97826007D01*
X157744932Y-97908082D01*
G37*
G04 #@! TD.AperFunction*
G04 #@! TA.AperFunction,Conductor*
G36*
X157984216Y-97802109D02*
G01*
X157984490Y-97802241D01*
X158459391Y-98039296D01*
X158560029Y-98089532D01*
X158565901Y-98096293D01*
X158565272Y-98105225D01*
X158560029Y-98110468D01*
X157984506Y-98397750D01*
X157975574Y-98398379D01*
X157975269Y-98398273D01*
X157687688Y-98293306D01*
X157681092Y-98287250D01*
X157680000Y-98282315D01*
X157680000Y-97917684D01*
X157683427Y-97909411D01*
X157687684Y-97906695D01*
X157975270Y-97801726D01*
X157984216Y-97802109D01*
G37*
G04 #@! TD.AperFunction*
G04 #@! TA.AperFunction,Conductor*
G36*
X156886462Y-99881530D02*
G01*
X157208092Y-100256299D01*
X157210879Y-100264809D01*
X157208740Y-100270711D01*
X156923999Y-100670092D01*
X156916406Y-100674839D01*
X156914472Y-100675000D01*
X156548842Y-100675000D01*
X156540569Y-100671573D01*
X156537432Y-100665890D01*
X156422753Y-100160749D01*
X156424264Y-100151923D01*
X156428092Y-100148157D01*
X156871516Y-99879146D01*
X156880365Y-99877786D01*
X156886462Y-99881530D01*
G37*
G04 #@! TD.AperFunction*
G04 #@! TA.AperFunction,Conductor*
G36*
X154279277Y-99156720D02*
G01*
X154524068Y-99295438D01*
X154529577Y-99302498D01*
X154530000Y-99305617D01*
X154530000Y-99444382D01*
X154526573Y-99452655D01*
X154524068Y-99454561D01*
X154279276Y-99593279D01*
X154270389Y-99594377D01*
X154268736Y-99593782D01*
X153802911Y-99385682D01*
X153796755Y-99379179D01*
X153797001Y-99370228D01*
X153802911Y-99364318D01*
X153934311Y-99305617D01*
X154268737Y-99156216D01*
X154277687Y-99155971D01*
X154279277Y-99156720D01*
G37*
G04 #@! TD.AperFunction*
G04 #@! TA.AperFunction,Conductor*
G36*
X154575866Y-99301738D02*
G01*
X155125460Y-99416394D01*
X155393743Y-99472364D01*
X155401142Y-99477408D01*
X155402807Y-99486206D01*
X155402518Y-99487316D01*
X155282799Y-99869259D01*
X155277055Y-99876129D01*
X155275284Y-99876876D01*
X154815262Y-100027880D01*
X154806333Y-100027205D01*
X154800823Y-100021288D01*
X154562690Y-99453370D01*
X154561780Y-99448846D01*
X154561780Y-99313192D01*
X154565207Y-99304919D01*
X154573480Y-99301492D01*
X154575866Y-99301738D01*
G37*
G04 #@! TD.AperFunction*
G04 #@! TA.AperFunction,Conductor*
G36*
X153308430Y-99801621D02*
G01*
X153758622Y-100014422D01*
X153764636Y-100021055D01*
X153764199Y-100029999D01*
X153758621Y-100035577D01*
X153308077Y-100248545D01*
X153301621Y-100249576D01*
X153040244Y-100216785D01*
X153032461Y-100212355D01*
X153030000Y-100205176D01*
X153030000Y-99844823D01*
X153033427Y-99836550D01*
X153040241Y-99833215D01*
X153300289Y-99800590D01*
X153301745Y-99800500D01*
X153303432Y-99800500D01*
X153308430Y-99801621D01*
G37*
G04 #@! TD.AperFunction*
G04 #@! TA.AperFunction,Conductor*
G36*
X152634048Y-99731961D02*
G01*
X153065978Y-99832395D01*
X153073259Y-99837607D01*
X153075027Y-99843791D01*
X153075027Y-100205343D01*
X153071600Y-100213616D01*
X153064972Y-100216927D01*
X152493300Y-100298111D01*
X152484627Y-100295881D01*
X152480071Y-100288172D01*
X152479955Y-100286566D01*
X152479684Y-100205343D01*
X152479007Y-100002362D01*
X152479909Y-99997822D01*
X152590992Y-99731960D01*
X152597344Y-99725649D01*
X152604438Y-99725076D01*
X152634048Y-99731961D01*
G37*
G04 #@! TD.AperFunction*
G04 #@! TA.AperFunction,Conductor*
G36*
X149149878Y-99399809D02*
G01*
X149475401Y-99817811D01*
X149477781Y-99826444D01*
X149475401Y-99832189D01*
X149149878Y-100250190D01*
X149142091Y-100254612D01*
X149135254Y-100253384D01*
X148561307Y-99955275D01*
X148555545Y-99948420D01*
X148555000Y-99944892D01*
X148555000Y-99705107D01*
X148558427Y-99696834D01*
X148561307Y-99694724D01*
X149135255Y-99396614D01*
X149144175Y-99395843D01*
X149149878Y-99399809D01*
G37*
G04 #@! TD.AperFunction*
G04 #@! TA.AperFunction,Conductor*
G36*
X148871759Y-99695449D02*
G01*
X148878649Y-99701169D01*
X148880000Y-99706626D01*
X148880000Y-99943373D01*
X148876573Y-99951646D01*
X148871759Y-99954550D01*
X148404961Y-100099020D01*
X148396045Y-100098192D01*
X148390706Y-100092354D01*
X148280883Y-99829509D01*
X148280857Y-99820556D01*
X148280862Y-99820542D01*
X148390707Y-99557643D01*
X148397058Y-99551333D01*
X148404960Y-99550979D01*
X148871759Y-99695449D01*
G37*
G04 #@! TD.AperFunction*
G04 #@! TA.AperFunction,Conductor*
G36*
X149946666Y-97981329D02*
G01*
X150399906Y-98450223D01*
X150403192Y-98458553D01*
X150399767Y-98466627D01*
X150141940Y-98724454D01*
X150133667Y-98727881D01*
X150133621Y-98727881D01*
X149893284Y-98726944D01*
X149890303Y-98726546D01*
X149886794Y-98725606D01*
X149882666Y-98724500D01*
X149882665Y-98724500D01*
X149408265Y-98724500D01*
X149399992Y-98721073D01*
X149396565Y-98712800D01*
X149396769Y-98710626D01*
X149478365Y-98279199D01*
X149483269Y-98271707D01*
X149483442Y-98271591D01*
X149931873Y-97979655D01*
X149940674Y-97978014D01*
X149946666Y-97981329D01*
G37*
G04 #@! TD.AperFunction*
G04 #@! TA.AperFunction,Conductor*
G36*
X150708430Y-98501621D02*
G01*
X150775266Y-98533214D01*
X151158621Y-98714422D01*
X151164636Y-98721056D01*
X151164199Y-98730000D01*
X151158621Y-98735578D01*
X150917974Y-98849329D01*
X150708430Y-98948378D01*
X150703432Y-98949500D01*
X150701745Y-98949500D01*
X150700289Y-98949409D01*
X150440244Y-98916785D01*
X150432461Y-98912355D01*
X150430000Y-98905176D01*
X150430000Y-98544823D01*
X150433427Y-98536550D01*
X150440241Y-98533215D01*
X150700289Y-98500590D01*
X150701745Y-98500500D01*
X150703432Y-98500500D01*
X150708430Y-98501621D01*
G37*
G04 #@! TD.AperFunction*
G04 #@! TA.AperFunction,Conductor*
G36*
X153586597Y-100953916D02*
G01*
X154148098Y-101206396D01*
X154154238Y-101212914D01*
X154155000Y-101217067D01*
X154155000Y-101582932D01*
X154151573Y-101591205D01*
X154148098Y-101593603D01*
X153586600Y-101846082D01*
X153577649Y-101846349D01*
X153572306Y-101842246D01*
X153258918Y-101406834D01*
X153256867Y-101398118D01*
X153258919Y-101393165D01*
X153572307Y-100957752D01*
X153579920Y-100953040D01*
X153586597Y-100953916D01*
G37*
G04 #@! TD.AperFunction*
G04 #@! TA.AperFunction,Conductor*
G36*
X154474999Y-101104396D02*
G01*
X154479856Y-101111919D01*
X154480046Y-101113981D01*
X154481000Y-101400000D01*
X154481000Y-101400078D01*
X154480046Y-101686018D01*
X154476592Y-101694280D01*
X154468307Y-101697679D01*
X154466245Y-101697489D01*
X153889599Y-101592251D01*
X153882076Y-101587394D01*
X153880000Y-101580741D01*
X153880000Y-101219258D01*
X153883427Y-101210985D01*
X153889598Y-101207748D01*
X154466245Y-101102510D01*
X154474999Y-101104396D01*
G37*
G04 #@! TD.AperFunction*
G04 #@! TA.AperFunction,Conductor*
G36*
X151188253Y-100032290D02*
G01*
X151318821Y-100163438D01*
X151400830Y-100245812D01*
X151404239Y-100254093D01*
X151404104Y-100255840D01*
X151372022Y-100465073D01*
X151367381Y-100472731D01*
X151360457Y-100475000D01*
X150999543Y-100475000D01*
X150991270Y-100471573D01*
X150987978Y-100465073D01*
X150955895Y-100255840D01*
X150958029Y-100247143D01*
X150959169Y-100245812D01*
X151171710Y-100032326D01*
X151179974Y-100028882D01*
X151188253Y-100032290D01*
G37*
G04 #@! TD.AperFunction*
G04 #@! TA.AperFunction,Conductor*
G36*
X151373175Y-100611610D02*
G01*
X151919676Y-100919660D01*
X151925200Y-100926707D01*
X151924516Y-100934837D01*
X151707218Y-101396288D01*
X151700593Y-101402312D01*
X151700012Y-101402504D01*
X151266358Y-101533335D01*
X151257448Y-101532444D01*
X151251778Y-101525513D01*
X151251732Y-101525357D01*
X150993776Y-100625025D01*
X150994791Y-100616128D01*
X151001800Y-100610555D01*
X151005023Y-100610102D01*
X151367430Y-100610102D01*
X151373175Y-100611610D01*
G37*
G04 #@! TD.AperFunction*
G04 #@! TA.AperFunction,Conductor*
G36*
X150003913Y-87955097D02*
G01*
X150422585Y-88281142D01*
X150427007Y-88288928D01*
X150426215Y-88294825D01*
X150190209Y-88868253D01*
X150183892Y-88874599D01*
X150179390Y-88875500D01*
X149814062Y-88875500D01*
X149805789Y-88872073D01*
X149803243Y-88868253D01*
X149567236Y-88294823D01*
X149567256Y-88285870D01*
X149570863Y-88281144D01*
X149989537Y-87955097D01*
X149998170Y-87952718D01*
X150003913Y-87955097D01*
G37*
G04 #@! TD.AperFunction*
G04 #@! TA.AperFunction,Conductor*
G36*
X150185795Y-88554578D02*
G01*
X150189020Y-88560687D01*
X150297400Y-89136682D01*
X150295562Y-89145447D01*
X150288066Y-89150344D01*
X150285941Y-89150546D01*
X150000039Y-89151499D01*
X149999961Y-89151499D01*
X149713908Y-89150546D01*
X149705646Y-89147092D01*
X149702247Y-89138807D01*
X149702427Y-89136804D01*
X149804514Y-88560809D01*
X149809332Y-88553261D01*
X149816034Y-88551151D01*
X150177522Y-88551151D01*
X150185795Y-88554578D01*
G37*
G04 #@! TD.AperFunction*
G04 #@! TA.AperFunction,Conductor*
G36*
X150187663Y-87028927D02*
G01*
X150190209Y-87032747D01*
X150426215Y-87606174D01*
X150426195Y-87615129D01*
X150422585Y-87619858D01*
X150003915Y-87945901D01*
X149995282Y-87948281D01*
X149989537Y-87945901D01*
X149792426Y-87792399D01*
X149570865Y-87619856D01*
X149566444Y-87612071D01*
X149567235Y-87606177D01*
X149803243Y-87032746D01*
X149809560Y-87026401D01*
X149814062Y-87025500D01*
X150179390Y-87025500D01*
X150187663Y-87028927D01*
G37*
G04 #@! TD.AperFunction*
G04 #@! TA.AperFunction,Conductor*
G36*
X150003913Y-86355097D02*
G01*
X150422585Y-86681142D01*
X150427007Y-86688928D01*
X150426215Y-86694825D01*
X150190209Y-87268253D01*
X150183892Y-87274599D01*
X150179390Y-87275500D01*
X149814062Y-87275500D01*
X149805789Y-87272073D01*
X149803243Y-87268253D01*
X149567236Y-86694823D01*
X149567256Y-86685870D01*
X149570863Y-86681144D01*
X149989537Y-86355097D01*
X149998170Y-86352718D01*
X150003913Y-86355097D01*
G37*
G04 #@! TD.AperFunction*
G04 #@! TA.AperFunction,Conductor*
G36*
X148637663Y-87028927D02*
G01*
X148640209Y-87032747D01*
X148876215Y-87606174D01*
X148876195Y-87615129D01*
X148872585Y-87619858D01*
X148453915Y-87945901D01*
X148445282Y-87948281D01*
X148439537Y-87945901D01*
X148242426Y-87792399D01*
X148020865Y-87619856D01*
X148016444Y-87612071D01*
X148017235Y-87606177D01*
X148253243Y-87032746D01*
X148259560Y-87026401D01*
X148264062Y-87025500D01*
X148629390Y-87025500D01*
X148637663Y-87028927D01*
G37*
G04 #@! TD.AperFunction*
G04 #@! TA.AperFunction,Conductor*
G36*
X148453913Y-86355097D02*
G01*
X148872585Y-86681142D01*
X148877007Y-86688928D01*
X148876215Y-86694825D01*
X148640209Y-87268253D01*
X148633892Y-87274599D01*
X148629390Y-87275500D01*
X148264062Y-87275500D01*
X148255789Y-87272073D01*
X148253243Y-87268253D01*
X148017236Y-86694823D01*
X148017256Y-86685870D01*
X148020863Y-86681144D01*
X148439537Y-86355097D01*
X148448170Y-86352718D01*
X148453913Y-86355097D01*
G37*
G04 #@! TD.AperFunction*
G04 #@! TA.AperFunction,Conductor*
G36*
X151080567Y-84708203D02*
G01*
X151080586Y-84708223D01*
X151357951Y-84995011D01*
X151361239Y-85003340D01*
X151360373Y-85007568D01*
X151195407Y-85411581D01*
X151189107Y-85417945D01*
X151180152Y-85417990D01*
X151176302Y-85415431D01*
X150919303Y-85158432D01*
X150771280Y-85008892D01*
X150767895Y-85000601D01*
X150771364Y-84992346D01*
X151064022Y-84707965D01*
X151072344Y-84704658D01*
X151080567Y-84708203D01*
G37*
G04 #@! TD.AperFunction*
G04 #@! TA.AperFunction,Conductor*
G36*
X150580313Y-85509466D02*
G01*
X150837678Y-85766831D01*
X150841105Y-85775104D01*
X150839787Y-85780499D01*
X150451663Y-86527393D01*
X150444807Y-86533154D01*
X150436824Y-86532816D01*
X150000942Y-86353235D01*
X149994598Y-86346915D01*
X149994318Y-86346174D01*
X149838581Y-85885124D01*
X149839180Y-85876192D01*
X149844403Y-85870932D01*
X150566780Y-85507287D01*
X150575710Y-85506629D01*
X150580313Y-85509466D01*
G37*
G04 #@! TD.AperFunction*
G04 #@! TA.AperFunction,Conductor*
G36*
X148579984Y-84707785D02*
G01*
X148866468Y-84995224D01*
X148869881Y-85003502D01*
X148869172Y-85007495D01*
X148765032Y-85292812D01*
X148758976Y-85299408D01*
X148754041Y-85300500D01*
X148389411Y-85300500D01*
X148381138Y-85297073D01*
X148378420Y-85292812D01*
X148274279Y-85007495D01*
X148274662Y-84998548D01*
X148276979Y-84995228D01*
X148563440Y-84707813D01*
X148571707Y-84704373D01*
X148579984Y-84707785D01*
G37*
G04 #@! TD.AperFunction*
G04 #@! TA.AperFunction,Conductor*
G36*
X148760901Y-85428927D02*
G01*
X148764102Y-85434913D01*
X148878187Y-86007314D01*
X148876444Y-86016097D01*
X148873902Y-86018832D01*
X148454675Y-86345309D01*
X148446042Y-86347689D01*
X148439425Y-86344557D01*
X148094011Y-86016097D01*
X148051197Y-85975384D01*
X148047563Y-85967199D01*
X148049316Y-85960739D01*
X148377794Y-85431034D01*
X148385066Y-85425809D01*
X148387737Y-85425500D01*
X148752628Y-85425500D01*
X148760901Y-85428927D01*
G37*
G04 #@! TD.AperFunction*
G04 #@! TA.AperFunction,Conductor*
G36*
X148944538Y-80409102D02*
G01*
X148946846Y-80411410D01*
X149477257Y-81115740D01*
X149479497Y-81124410D01*
X149478998Y-81126517D01*
X149257685Y-81782813D01*
X149251794Y-81789557D01*
X149246598Y-81790774D01*
X148628402Y-81790774D01*
X148620129Y-81787347D01*
X148617315Y-81782813D01*
X148396001Y-81126517D01*
X148396605Y-81117582D01*
X148397735Y-81115750D01*
X148928154Y-80411409D01*
X148935868Y-80406862D01*
X148944538Y-80409102D01*
G37*
G04 #@! TD.AperFunction*
G04 #@! TA.AperFunction,Conductor*
G36*
X149254871Y-79012653D02*
G01*
X149257685Y-79017187D01*
X149478998Y-79673482D01*
X149478394Y-79682417D01*
X149477257Y-79684259D01*
X148946846Y-80388589D01*
X148939132Y-80393137D01*
X148930462Y-80390897D01*
X148928154Y-80388589D01*
X148733591Y-80130230D01*
X148397741Y-79684257D01*
X148395502Y-79675589D01*
X148395999Y-79673489D01*
X148617315Y-79017186D01*
X148623206Y-79010443D01*
X148628402Y-79009226D01*
X149246598Y-79009226D01*
X149254871Y-79012653D01*
G37*
G04 #@! TD.AperFunction*
G04 #@! TA.AperFunction,Conductor*
G36*
X148380636Y-79843126D02*
G01*
X148930205Y-80391720D01*
X148933639Y-80399990D01*
X148930219Y-80408266D01*
X148930205Y-80408280D01*
X148380636Y-80956873D01*
X148372360Y-80960293D01*
X148367699Y-80959320D01*
X147819528Y-80720561D01*
X147813311Y-80714115D01*
X147812500Y-80709834D01*
X147812500Y-80090165D01*
X147815927Y-80081892D01*
X147819524Y-80079440D01*
X148367701Y-79840678D01*
X148376651Y-79840517D01*
X148380636Y-79843126D01*
G37*
G04 #@! TD.AperFunction*
G04 #@! TA.AperFunction,Conductor*
G36*
X158213274Y-83748679D02*
G01*
X158221072Y-83753079D01*
X158223485Y-83758959D01*
X158366972Y-85008547D01*
X158364511Y-85017157D01*
X158358635Y-85021111D01*
X156756055Y-85490285D01*
X156747153Y-85489320D01*
X156744495Y-85487329D01*
X156484913Y-85227747D01*
X156481486Y-85219474D01*
X156481966Y-85216157D01*
X156958664Y-83606025D01*
X156964299Y-83599066D01*
X156971292Y-83597732D01*
X158213274Y-83748679D01*
G37*
G04 #@! TD.AperFunction*
G04 #@! TA.AperFunction,Conductor*
G36*
X156093121Y-85616521D02*
G01*
X156352339Y-85875739D01*
X156355766Y-85884012D01*
X156353805Y-85890495D01*
X155377256Y-87357470D01*
X155369819Y-87362458D01*
X155361152Y-87360804D01*
X154426219Y-86754578D01*
X154421141Y-86747202D01*
X154420887Y-86745010D01*
X154402528Y-85882517D01*
X154397198Y-85632133D01*
X154400448Y-85623790D01*
X154408646Y-85620188D01*
X154408763Y-85620186D01*
X156084835Y-85613129D01*
X156093121Y-85616521D01*
G37*
G04 #@! TD.AperFunction*
G04 #@! TA.AperFunction,Conductor*
G36*
X154415481Y-80747736D02*
G01*
X154422442Y-80753369D01*
X154423686Y-80756932D01*
X154619266Y-81870768D01*
X154617321Y-81879509D01*
X154611373Y-81883913D01*
X153053880Y-82392351D01*
X153044952Y-82391661D01*
X153041976Y-82389502D01*
X152782720Y-82130246D01*
X152779293Y-82121973D01*
X152779868Y-82118353D01*
X153327552Y-80437754D01*
X153333372Y-80430952D01*
X153341994Y-80430162D01*
X154415481Y-80747736D01*
G37*
G04 #@! TD.AperFunction*
G04 #@! TA.AperFunction,Conductor*
G36*
X151677333Y-82504119D02*
G01*
X151802852Y-82585147D01*
X151804779Y-82586704D01*
X152061593Y-82843518D01*
X152065020Y-82851791D01*
X152061593Y-82860064D01*
X152058354Y-82862353D01*
X151676395Y-83044411D01*
X151667452Y-83044877D01*
X151666936Y-83044680D01*
X151094886Y-82810958D01*
X151088523Y-82804657D01*
X151088480Y-82795702D01*
X151094072Y-82789666D01*
X151665755Y-82503488D01*
X151674685Y-82502850D01*
X151677333Y-82504119D01*
G37*
G04 #@! TD.AperFunction*
G04 #@! TA.AperFunction,Conductor*
G36*
X157447139Y-82758267D02*
G01*
X158217094Y-83743295D01*
X158219489Y-83751923D01*
X158217094Y-83757705D01*
X157447139Y-84742732D01*
X157439344Y-84747140D01*
X157432384Y-84745834D01*
X155940489Y-83944311D01*
X155934823Y-83937376D01*
X155934326Y-83934004D01*
X155934326Y-83566995D01*
X155937753Y-83558722D01*
X155940484Y-83556691D01*
X157432385Y-82755164D01*
X157441293Y-82754269D01*
X157447139Y-82758267D01*
G37*
G04 #@! TD.AperFunction*
G04 #@! TA.AperFunction,Conductor*
G36*
X151675880Y-83529822D02*
G01*
X151676274Y-83530012D01*
X151965314Y-83676451D01*
X151971145Y-83683247D01*
X151971726Y-83686888D01*
X151971726Y-84048869D01*
X151968299Y-84057142D01*
X151960026Y-84060569D01*
X151959896Y-84060568D01*
X151063245Y-84050636D01*
X151055011Y-84047118D01*
X151051676Y-84038807D01*
X151051699Y-84038192D01*
X151070225Y-83758061D01*
X151074190Y-83750034D01*
X151077828Y-83747867D01*
X151666932Y-83529485D01*
X151675880Y-83529822D01*
G37*
G04 #@! TD.AperFunction*
G04 #@! TA.AperFunction,Conductor*
G36*
X158737693Y-95957753D02*
G01*
X159051080Y-96393165D01*
X159053132Y-96401882D01*
X159051080Y-96406835D01*
X158737693Y-96842246D01*
X158730079Y-96846959D01*
X158723399Y-96846082D01*
X158527260Y-96757887D01*
X158161902Y-96593603D01*
X158155762Y-96587085D01*
X158155000Y-96582932D01*
X158155000Y-96217067D01*
X158158427Y-96208794D01*
X158161899Y-96206397D01*
X158723402Y-95953916D01*
X158732350Y-95953650D01*
X158737693Y-95957753D01*
G37*
G04 #@! TD.AperFunction*
G04 #@! TA.AperFunction,Conductor*
G36*
X157893752Y-96102509D02*
G01*
X158470401Y-96207748D01*
X158477924Y-96212605D01*
X158480000Y-96219258D01*
X158480000Y-96580741D01*
X158476573Y-96589014D01*
X158470401Y-96592251D01*
X157893754Y-96697489D01*
X157885000Y-96695603D01*
X157880143Y-96688080D01*
X157879953Y-96686018D01*
X157879640Y-96592251D01*
X157879000Y-96400000D01*
X157879953Y-96113980D01*
X157883407Y-96105719D01*
X157891692Y-96102320D01*
X157893752Y-96102509D01*
G37*
G04 #@! TD.AperFunction*
G04 #@! TA.AperFunction,Conductor*
G36*
X148453206Y-87955376D02*
G01*
X148453223Y-87955389D01*
X148871266Y-88280131D01*
X148875697Y-88287913D01*
X148874017Y-88295559D01*
X148602485Y-88731230D01*
X148600829Y-88733315D01*
X148344404Y-88989740D01*
X148336131Y-88993167D01*
X148327858Y-88989740D01*
X148325445Y-88986230D01*
X148017575Y-88294963D01*
X148017341Y-88286013D01*
X148021070Y-88280978D01*
X148438839Y-87955388D01*
X148447470Y-87953006D01*
X148453206Y-87955376D01*
G37*
G04 #@! TD.AperFunction*
M02*
